<mxfile host="Electron" agent="Mozilla/5.0 (Windows NT 10.0; Win64; x64) AppleWebKit/537.36 (KHTML, like Gecko) draw.io/24.4.6 Chrome/124.0.6367.207 Electron/30.0.6 Safari/537.36" modified="2025-02-10T20:30:01.166Z" etag="jbgpaY765Yn1FEWZY-HC" version="24.4.6" type="device">
  <diagram id="C5RBs43oDa-KdzZeNtuy" name="Page-1">
    <mxGraphModel dx="8489" dy="6127" grid="1" gridSize="10" guides="1" tooltips="1" connect="1" arrows="1" fold="1" page="1" pageScale="1" pageWidth="827" pageHeight="1169" math="0" shadow="0">
      <root>
        <mxCell id="WIyWlLk6GJQsqaUBKTNV-0" />
        <mxCell id="WIyWlLk6GJQsqaUBKTNV-1" parent="WIyWlLk6GJQsqaUBKTNV-0" />
        <mxCell id="tdPHjlki5LSOHwfFaQ_Z-15" value="" style="rounded=0;whiteSpace=wrap;html=1;" parent="WIyWlLk6GJQsqaUBKTNV-1" vertex="1">
          <mxGeometry x="50" y="-748" width="770" height="588" as="geometry" />
        </mxCell>
        <mxCell id="p1KBks_BvdkvikkBRHm6-34" value="" style="shape=folder;fontStyle=1;tabWidth=80;tabHeight=30;tabPosition=left;html=1;boundedLbl=1;whiteSpace=wrap;" parent="WIyWlLk6GJQsqaUBKTNV-1" vertex="1">
          <mxGeometry x="-800" y="-290" width="660" height="390" as="geometry" />
        </mxCell>
        <mxCell id="Rs6AaWUYdlJJOVlor8ce-9" value="Gallery management&lt;div&gt;&lt;br&gt;&lt;/div&gt;" style="shape=folder;fontStyle=1;tabWidth=110;tabHeight=30;tabPosition=left;html=1;boundedLbl=1;labelInHeader=1;container=1;collapsible=0;whiteSpace=wrap;" parent="WIyWlLk6GJQsqaUBKTNV-1" vertex="1">
          <mxGeometry x="-1340" y="-1390" width="440" height="350" as="geometry" />
        </mxCell>
        <mxCell id="Rs6AaWUYdlJJOVlor8ce-10" value="" style="html=1;strokeColor=none;resizeWidth=1;resizeHeight=1;fillColor=none;part=1;connectable=0;allowArrows=0;deletable=0;whiteSpace=wrap;" parent="Rs6AaWUYdlJJOVlor8ce-9" vertex="1">
          <mxGeometry width="440" height="245.00000000000003" relative="1" as="geometry">
            <mxPoint y="30" as="offset" />
          </mxGeometry>
        </mxCell>
        <mxCell id="UPpW3QvQ503PZCW4TQQM-24" value="" style="shape=folder;fontStyle=1;tabWidth=80;tabHeight=30;tabPosition=left;html=1;boundedLbl=1;whiteSpace=wrap;" parent="WIyWlLk6GJQsqaUBKTNV-1" vertex="1">
          <mxGeometry x="250" y="-2370" width="680" height="690" as="geometry" />
        </mxCell>
        <mxCell id="Q5uJ2qeS1NoMDb9aisBC-40" value="" style="shape=folder;fontStyle=1;tabWidth=80;tabHeight=30;tabPosition=left;html=1;boundedLbl=1;whiteSpace=wrap;" parent="WIyWlLk6GJQsqaUBKTNV-1" vertex="1">
          <mxGeometry x="-1265" y="-2590" width="640" height="280" as="geometry" />
        </mxCell>
        <mxCell id="Q5uJ2qeS1NoMDb9aisBC-21" value="" style="shape=folder;fontStyle=1;tabWidth=80;tabHeight=30;tabPosition=left;html=1;boundedLbl=1;whiteSpace=wrap;" parent="WIyWlLk6GJQsqaUBKTNV-1" vertex="1">
          <mxGeometry x="-500" y="-2620" width="635" height="310" as="geometry" />
        </mxCell>
        <mxCell id="bvaL93AAkVeGiQjm07bp-16" value="" style="shape=folder;fontStyle=1;tabWidth=80;tabHeight=30;tabPosition=left;html=1;boundedLbl=1;whiteSpace=wrap;" parent="WIyWlLk6GJQsqaUBKTNV-1" vertex="1">
          <mxGeometry x="-500" y="-2140" width="640" height="460" as="geometry" />
        </mxCell>
        <mxCell id="zkfFHV4jXpPFQw0GAbJ--0" value="Order" style="swimlane;fontStyle=2;align=center;verticalAlign=top;childLayout=stackLayout;horizontal=1;startSize=26;horizontalStack=0;resizeParent=1;resizeLast=0;collapsible=1;marginBottom=0;rounded=0;shadow=0;strokeWidth=1;" parent="WIyWlLk6GJQsqaUBKTNV-1" vertex="1">
          <mxGeometry x="-380" y="-2090" width="190" height="220" as="geometry">
            <mxRectangle x="230" y="140" width="160" height="26" as="alternateBounds" />
          </mxGeometry>
        </mxCell>
        <mxCell id="zkfFHV4jXpPFQw0GAbJ--1" value="-id:string" style="text;align=left;verticalAlign=top;spacingLeft=4;spacingRight=4;overflow=hidden;rotatable=0;points=[[0,0.5],[1,0.5]];portConstraint=eastwest;" parent="zkfFHV4jXpPFQw0GAbJ--0" vertex="1">
          <mxGeometry y="26" width="190" height="26" as="geometry" />
        </mxCell>
        <mxCell id="zkfFHV4jXpPFQw0GAbJ--2" value="-total_amount:float" style="text;align=left;verticalAlign=top;spacingLeft=4;spacingRight=4;overflow=hidden;rotatable=0;points=[[0,0.5],[1,0.5]];portConstraint=eastwest;rounded=0;shadow=0;html=0;" parent="zkfFHV4jXpPFQw0GAbJ--0" vertex="1">
          <mxGeometry y="52" width="190" height="26" as="geometry" />
        </mxCell>
        <mxCell id="zkfFHV4jXpPFQw0GAbJ--3" value="-Products:list" style="text;align=left;verticalAlign=top;spacingLeft=4;spacingRight=4;overflow=hidden;rotatable=0;points=[[0,0.5],[1,0.5]];portConstraint=eastwest;rounded=0;shadow=0;html=0;" parent="zkfFHV4jXpPFQw0GAbJ--0" vertex="1">
          <mxGeometry y="78" width="190" height="26" as="geometry" />
        </mxCell>
        <mxCell id="bvaL93AAkVeGiQjm07bp-6" value="-status:string" style="text;align=left;verticalAlign=top;spacingLeft=4;spacingRight=4;overflow=hidden;rotatable=0;points=[[0,0.5],[1,0.5]];portConstraint=eastwest;rounded=0;shadow=0;html=0;" parent="zkfFHV4jXpPFQw0GAbJ--0" vertex="1">
          <mxGeometry y="104" width="190" height="26" as="geometry" />
        </mxCell>
        <mxCell id="bvaL93AAkVeGiQjm07bp-7" value="-buyer_id:string" style="text;align=left;verticalAlign=top;spacingLeft=4;spacingRight=4;overflow=hidden;rotatable=0;points=[[0,0.5],[1,0.5]];portConstraint=eastwest;rounded=0;shadow=0;html=0;" parent="zkfFHV4jXpPFQw0GAbJ--0" vertex="1">
          <mxGeometry y="130" width="190" height="26" as="geometry" />
        </mxCell>
        <mxCell id="zkfFHV4jXpPFQw0GAbJ--4" value="" style="line;html=1;strokeWidth=1;align=left;verticalAlign=middle;spacingTop=-1;spacingLeft=3;spacingRight=3;rotatable=0;labelPosition=right;points=[];portConstraint=eastwest;" parent="zkfFHV4jXpPFQw0GAbJ--0" vertex="1">
          <mxGeometry y="156" width="190" height="8" as="geometry" />
        </mxCell>
        <mxCell id="zkfFHV4jXpPFQw0GAbJ--5" value="+get_order(string):Order" style="text;align=left;verticalAlign=top;spacingLeft=4;spacingRight=4;overflow=hidden;rotatable=0;points=[[0,0.5],[1,0.5]];portConstraint=eastwest;" parent="zkfFHV4jXpPFQw0GAbJ--0" vertex="1">
          <mxGeometry y="164" width="190" height="26" as="geometry" />
        </mxCell>
        <mxCell id="zkfFHV4jXpPFQw0GAbJ--6" value="Normal_order" style="swimlane;fontStyle=0;align=center;verticalAlign=top;childLayout=stackLayout;horizontal=1;startSize=26;horizontalStack=0;resizeParent=1;resizeLast=0;collapsible=1;marginBottom=0;rounded=0;shadow=0;strokeWidth=1;" parent="WIyWlLk6GJQsqaUBKTNV-1" vertex="1">
          <mxGeometry x="-490" y="-1770" width="160" height="60" as="geometry">
            <mxRectangle x="130" y="380" width="160" height="26" as="alternateBounds" />
          </mxGeometry>
        </mxCell>
        <mxCell id="zkfFHV4jXpPFQw0GAbJ--9" value="" style="line;html=1;strokeWidth=1;align=left;verticalAlign=middle;spacingTop=-1;spacingLeft=3;spacingRight=3;rotatable=0;labelPosition=right;points=[];portConstraint=eastwest;" parent="zkfFHV4jXpPFQw0GAbJ--6" vertex="1">
          <mxGeometry y="26" width="160" height="8" as="geometry" />
        </mxCell>
        <mxCell id="zkfFHV4jXpPFQw0GAbJ--12" value="" style="endArrow=block;endSize=10;endFill=0;shadow=0;strokeWidth=1;rounded=0;curved=0;edgeStyle=elbowEdgeStyle;elbow=vertical;" parent="WIyWlLk6GJQsqaUBKTNV-1" source="zkfFHV4jXpPFQw0GAbJ--6" target="zkfFHV4jXpPFQw0GAbJ--0" edge="1">
          <mxGeometry width="160" relative="1" as="geometry">
            <mxPoint x="-320" y="-1927" as="sourcePoint" />
            <mxPoint x="-320" y="-1927" as="targetPoint" />
          </mxGeometry>
        </mxCell>
        <mxCell id="zkfFHV4jXpPFQw0GAbJ--16" value="" style="endArrow=block;endSize=10;endFill=0;shadow=0;strokeWidth=1;rounded=0;curved=0;edgeStyle=elbowEdgeStyle;elbow=vertical;" parent="WIyWlLk6GJQsqaUBKTNV-1" target="zkfFHV4jXpPFQw0GAbJ--0" edge="1">
          <mxGeometry width="160" relative="1" as="geometry">
            <mxPoint x="-110" y="-1790" as="sourcePoint" />
            <mxPoint x="-210" y="-1859" as="targetPoint" />
          </mxGeometry>
        </mxCell>
        <mxCell id="zkfFHV4jXpPFQw0GAbJ--17" value="Order_management" style="swimlane;fontStyle=0;align=center;verticalAlign=top;childLayout=stackLayout;horizontal=1;startSize=26;horizontalStack=0;resizeParent=1;resizeLast=0;collapsible=1;marginBottom=0;rounded=0;shadow=0;strokeWidth=1;" parent="WIyWlLk6GJQsqaUBKTNV-1" vertex="1">
          <mxGeometry x="-100" y="-2088" width="210" height="88" as="geometry">
            <mxRectangle x="550" y="140" width="160" height="26" as="alternateBounds" />
          </mxGeometry>
        </mxCell>
        <mxCell id="zkfFHV4jXpPFQw0GAbJ--23" value="" style="line;html=1;strokeWidth=1;align=left;verticalAlign=middle;spacingTop=-1;spacingLeft=3;spacingRight=3;rotatable=0;labelPosition=right;points=[];portConstraint=eastwest;" parent="zkfFHV4jXpPFQw0GAbJ--17" vertex="1">
          <mxGeometry y="26" width="210" height="8" as="geometry" />
        </mxCell>
        <mxCell id="zkfFHV4jXpPFQw0GAbJ--24" value="+create_order(string,list)" style="text;align=left;verticalAlign=top;spacingLeft=4;spacingRight=4;overflow=hidden;rotatable=0;points=[[0,0.5],[1,0.5]];portConstraint=eastwest;" parent="zkfFHV4jXpPFQw0GAbJ--17" vertex="1">
          <mxGeometry y="34" width="210" height="26" as="geometry" />
        </mxCell>
        <mxCell id="zkfFHV4jXpPFQw0GAbJ--25" value="+cancel_order(string)" style="text;align=left;verticalAlign=top;spacingLeft=4;spacingRight=4;overflow=hidden;rotatable=0;points=[[0,0.5],[1,0.5]];portConstraint=eastwest;" parent="zkfFHV4jXpPFQw0GAbJ--17" vertex="1">
          <mxGeometry y="60" width="210" height="26" as="geometry" />
        </mxCell>
        <mxCell id="bvaL93AAkVeGiQjm07bp-10" value="&amp;lt;&amp;lt;abstract&amp;gt;&amp;gt;" style="text;html=1;align=center;verticalAlign=middle;whiteSpace=wrap;rounded=0;" parent="WIyWlLk6GJQsqaUBKTNV-1" vertex="1">
          <mxGeometry x="-315" y="-2110" width="60" height="30" as="geometry" />
        </mxCell>
        <mxCell id="bvaL93AAkVeGiQjm07bp-19" value="manges" style="text;html=1;align=center;verticalAlign=middle;whiteSpace=wrap;rounded=0;" parent="WIyWlLk6GJQsqaUBKTNV-1" vertex="1">
          <mxGeometry x="-170" y="-2038.5" width="60" height="19" as="geometry" />
        </mxCell>
        <mxCell id="bvaL93AAkVeGiQjm07bp-20" value="1" style="text;html=1;align=center;verticalAlign=middle;whiteSpace=wrap;rounded=0;" parent="WIyWlLk6GJQsqaUBKTNV-1" vertex="1">
          <mxGeometry x="-140" y="-2044" width="60" height="30" as="geometry" />
        </mxCell>
        <mxCell id="Q5uJ2qeS1NoMDb9aisBC-0" value="ITrackingService" style="swimlane;fontStyle=0;align=center;verticalAlign=top;childLayout=stackLayout;horizontal=1;startSize=26;horizontalStack=0;resizeParent=1;resizeLast=0;collapsible=1;marginBottom=0;rounded=0;shadow=0;strokeWidth=1;" parent="WIyWlLk6GJQsqaUBKTNV-1" vertex="1">
          <mxGeometry x="-420" y="-2578" width="210" height="90" as="geometry">
            <mxRectangle x="550" y="140" width="160" height="26" as="alternateBounds" />
          </mxGeometry>
        </mxCell>
        <mxCell id="Q5uJ2qeS1NoMDb9aisBC-1" value="" style="line;html=1;strokeWidth=1;align=left;verticalAlign=middle;spacingTop=-1;spacingLeft=3;spacingRight=3;rotatable=0;labelPosition=right;points=[];portConstraint=eastwest;" parent="Q5uJ2qeS1NoMDb9aisBC-0" vertex="1">
          <mxGeometry y="26" width="210" height="8" as="geometry" />
        </mxCell>
        <mxCell id="Q5uJ2qeS1NoMDb9aisBC-2" value="+get_current_loaction()" style="text;align=left;verticalAlign=top;spacingLeft=4;spacingRight=4;overflow=hidden;rotatable=0;points=[[0,0.5],[1,0.5]];portConstraint=eastwest;" parent="Q5uJ2qeS1NoMDb9aisBC-0" vertex="1">
          <mxGeometry y="34" width="210" height="26" as="geometry" />
        </mxCell>
        <mxCell id="Q5uJ2qeS1NoMDb9aisBC-3" value="+update_current_location()" style="text;align=left;verticalAlign=top;spacingLeft=4;spacingRight=4;overflow=hidden;rotatable=0;points=[[0,0.5],[1,0.5]];portConstraint=eastwest;" parent="Q5uJ2qeS1NoMDb9aisBC-0" vertex="1">
          <mxGeometry y="60" width="210" height="26" as="geometry" />
        </mxCell>
        <mxCell id="Q5uJ2qeS1NoMDb9aisBC-6" value="&amp;lt;&amp;lt;interface&amp;gt;&amp;gt;" style="text;html=1;align=center;verticalAlign=middle;whiteSpace=wrap;rounded=0;" parent="WIyWlLk6GJQsqaUBKTNV-1" vertex="1">
          <mxGeometry x="-345" y="-2598" width="60" height="30" as="geometry" />
        </mxCell>
        <mxCell id="Q5uJ2qeS1NoMDb9aisBC-9" value="" style="endArrow=block;endSize=10;endFill=0;shadow=0;strokeWidth=1;rounded=0;curved=0;edgeStyle=elbowEdgeStyle;elbow=vertical;" parent="WIyWlLk6GJQsqaUBKTNV-1" edge="1">
          <mxGeometry width="160" relative="1" as="geometry">
            <mxPoint x="-330" y="-2438" as="sourcePoint" />
            <mxPoint x="-330" y="-2488" as="targetPoint" />
            <Array as="points">
              <mxPoint x="-255" y="-2478" />
            </Array>
          </mxGeometry>
        </mxCell>
        <mxCell id="Q5uJ2qeS1NoMDb9aisBC-10" value="Tracking_management" style="swimlane;fontStyle=0;align=center;verticalAlign=top;childLayout=stackLayout;horizontal=1;startSize=26;horizontalStack=0;resizeParent=1;resizeLast=0;collapsible=1;marginBottom=0;rounded=0;shadow=0;strokeWidth=1;" parent="WIyWlLk6GJQsqaUBKTNV-1" vertex="1">
          <mxGeometry x="-420" y="-2438" width="210" height="60" as="geometry">
            <mxRectangle x="550" y="140" width="160" height="26" as="alternateBounds" />
          </mxGeometry>
        </mxCell>
        <mxCell id="Q5uJ2qeS1NoMDb9aisBC-11" value="" style="line;html=1;strokeWidth=1;align=left;verticalAlign=middle;spacingTop=-1;spacingLeft=3;spacingRight=3;rotatable=0;labelPosition=right;points=[];portConstraint=eastwest;" parent="Q5uJ2qeS1NoMDb9aisBC-10" vertex="1">
          <mxGeometry y="26" width="210" height="8" as="geometry" />
        </mxCell>
        <mxCell id="Q5uJ2qeS1NoMDb9aisBC-13" value="+start_tracking()" style="text;align=left;verticalAlign=top;spacingLeft=4;spacingRight=4;overflow=hidden;rotatable=0;points=[[0,0.5],[1,0.5]];portConstraint=eastwest;" parent="Q5uJ2qeS1NoMDb9aisBC-10" vertex="1">
          <mxGeometry y="34" width="210" height="26" as="geometry" />
        </mxCell>
        <mxCell id="Q5uJ2qeS1NoMDb9aisBC-15" value="Use" style="endArrow=open;endSize=12;dashed=1;html=1;rounded=0;" parent="WIyWlLk6GJQsqaUBKTNV-1" edge="1">
          <mxGeometry width="160" relative="1" as="geometry">
            <mxPoint x="-210" y="-2388" as="sourcePoint" />
            <mxPoint x="-120" y="-2388" as="targetPoint" />
          </mxGeometry>
        </mxCell>
        <mxCell id="Q5uJ2qeS1NoMDb9aisBC-16" value="ThirdPartyTrackingAPI" style="swimlane;fontStyle=0;align=center;verticalAlign=top;childLayout=stackLayout;horizontal=1;startSize=26;horizontalStack=0;resizeParent=1;resizeLast=0;collapsible=1;marginBottom=0;rounded=0;shadow=0;strokeWidth=1;" parent="WIyWlLk6GJQsqaUBKTNV-1" vertex="1">
          <mxGeometry x="-120" y="-2438" width="210" height="90" as="geometry">
            <mxRectangle x="550" y="140" width="160" height="26" as="alternateBounds" />
          </mxGeometry>
        </mxCell>
        <mxCell id="Q5uJ2qeS1NoMDb9aisBC-17" value="" style="line;html=1;strokeWidth=1;align=left;verticalAlign=middle;spacingTop=-1;spacingLeft=3;spacingRight=3;rotatable=0;labelPosition=right;points=[];portConstraint=eastwest;" parent="Q5uJ2qeS1NoMDb9aisBC-16" vertex="1">
          <mxGeometry y="26" width="210" height="8" as="geometry" />
        </mxCell>
        <mxCell id="Q5uJ2qeS1NoMDb9aisBC-18" value="+get_current_loaction()" style="text;align=left;verticalAlign=top;spacingLeft=4;spacingRight=4;overflow=hidden;rotatable=0;points=[[0,0.5],[1,0.5]];portConstraint=eastwest;" parent="Q5uJ2qeS1NoMDb9aisBC-16" vertex="1">
          <mxGeometry y="34" width="210" height="26" as="geometry" />
        </mxCell>
        <mxCell id="Q5uJ2qeS1NoMDb9aisBC-19" value="+update_current_location()" style="text;align=left;verticalAlign=top;spacingLeft=4;spacingRight=4;overflow=hidden;rotatable=0;points=[[0,0.5],[1,0.5]];portConstraint=eastwest;" parent="Q5uJ2qeS1NoMDb9aisBC-16" vertex="1">
          <mxGeometry y="60" width="210" height="26" as="geometry" />
        </mxCell>
        <mxCell id="Q5uJ2qeS1NoMDb9aisBC-20" value="&amp;lt;&amp;lt;external&amp;gt;&amp;gt;" style="text;whiteSpace=wrap;html=1;" parent="WIyWlLk6GJQsqaUBKTNV-1" vertex="1">
          <mxGeometry x="-70" y="-2458" width="90" height="40" as="geometry" />
        </mxCell>
        <mxCell id="Q5uJ2qeS1NoMDb9aisBC-22" value="&amp;lt;&amp;lt;Order Tracking&amp;gt;&amp;gt;" style="text;html=1;align=center;verticalAlign=middle;whiteSpace=wrap;rounded=0;" parent="WIyWlLk6GJQsqaUBKTNV-1" vertex="1">
          <mxGeometry x="-490" y="-2620" width="60" height="30" as="geometry" />
        </mxCell>
        <mxCell id="Q5uJ2qeS1NoMDb9aisBC-23" value="IPaymentService" style="swimlane;fontStyle=0;align=center;verticalAlign=top;childLayout=stackLayout;horizontal=1;startSize=26;horizontalStack=0;resizeParent=1;resizeLast=0;collapsible=1;marginBottom=0;rounded=0;shadow=0;strokeWidth=1;" parent="WIyWlLk6GJQsqaUBKTNV-1" vertex="1">
          <mxGeometry x="-1170" y="-2540" width="210" height="112" as="geometry">
            <mxRectangle x="550" y="140" width="160" height="26" as="alternateBounds" />
          </mxGeometry>
        </mxCell>
        <mxCell id="Q5uJ2qeS1NoMDb9aisBC-24" value="" style="line;html=1;strokeWidth=1;align=left;verticalAlign=middle;spacingTop=-1;spacingLeft=3;spacingRight=3;rotatable=0;labelPosition=right;points=[];portConstraint=eastwest;" parent="Q5uJ2qeS1NoMDb9aisBC-23" vertex="1">
          <mxGeometry y="26" width="210" height="8" as="geometry" />
        </mxCell>
        <mxCell id="Q5uJ2qeS1NoMDb9aisBC-25" value="+get_Payment_status()" style="text;align=left;verticalAlign=top;spacingLeft=4;spacingRight=4;overflow=hidden;rotatable=0;points=[[0,0.5],[1,0.5]];portConstraint=eastwest;" parent="Q5uJ2qeS1NoMDb9aisBC-23" vertex="1">
          <mxGeometry y="34" width="210" height="26" as="geometry" />
        </mxCell>
        <mxCell id="Q5uJ2qeS1NoMDb9aisBC-26" value="+get_payment_method()" style="text;align=left;verticalAlign=top;spacingLeft=4;spacingRight=4;overflow=hidden;rotatable=0;points=[[0,0.5],[1,0.5]];portConstraint=eastwest;" parent="Q5uJ2qeS1NoMDb9aisBC-23" vertex="1">
          <mxGeometry y="60" width="210" height="26" as="geometry" />
        </mxCell>
        <mxCell id="Q5uJ2qeS1NoMDb9aisBC-33" value="+get_receipt()" style="text;align=left;verticalAlign=top;spacingLeft=4;spacingRight=4;overflow=hidden;rotatable=0;points=[[0,0.5],[1,0.5]];portConstraint=eastwest;" parent="Q5uJ2qeS1NoMDb9aisBC-23" vertex="1">
          <mxGeometry y="86" width="210" height="26" as="geometry" />
        </mxCell>
        <mxCell id="Q5uJ2qeS1NoMDb9aisBC-27" value="&amp;lt;&amp;lt;interface&amp;gt;&amp;gt;" style="text;html=1;align=center;verticalAlign=middle;whiteSpace=wrap;rounded=0;" parent="WIyWlLk6GJQsqaUBKTNV-1" vertex="1">
          <mxGeometry x="-1096" y="-2560" width="60" height="30" as="geometry" />
        </mxCell>
        <mxCell id="Q5uJ2qeS1NoMDb9aisBC-29" value="Payment_management" style="swimlane;fontStyle=0;align=center;verticalAlign=top;childLayout=stackLayout;horizontal=1;startSize=26;horizontalStack=0;resizeParent=1;resizeLast=0;collapsible=1;marginBottom=0;rounded=0;shadow=0;strokeWidth=1;" parent="WIyWlLk6GJQsqaUBKTNV-1" vertex="1">
          <mxGeometry x="-1164" y="-2398" width="210" height="60" as="geometry">
            <mxRectangle x="550" y="140" width="160" height="26" as="alternateBounds" />
          </mxGeometry>
        </mxCell>
        <mxCell id="Q5uJ2qeS1NoMDb9aisBC-30" value="" style="line;html=1;strokeWidth=1;align=left;verticalAlign=middle;spacingTop=-1;spacingLeft=3;spacingRight=3;rotatable=0;labelPosition=right;points=[];portConstraint=eastwest;" parent="Q5uJ2qeS1NoMDb9aisBC-29" vertex="1">
          <mxGeometry y="26" width="210" height="8" as="geometry" />
        </mxCell>
        <mxCell id="Q5uJ2qeS1NoMDb9aisBC-31" value="+pay():bool" style="text;align=left;verticalAlign=top;spacingLeft=4;spacingRight=4;overflow=hidden;rotatable=0;points=[[0,0.5],[1,0.5]];portConstraint=eastwest;" parent="Q5uJ2qeS1NoMDb9aisBC-29" vertex="1">
          <mxGeometry y="34" width="210" height="26" as="geometry" />
        </mxCell>
        <mxCell id="Q5uJ2qeS1NoMDb9aisBC-34" value="ThirdPartyTrackingAPI" style="swimlane;fontStyle=0;align=center;verticalAlign=top;childLayout=stackLayout;horizontal=1;startSize=26;horizontalStack=0;resizeParent=1;resizeLast=0;collapsible=1;marginBottom=0;rounded=0;shadow=0;strokeWidth=1;" parent="WIyWlLk6GJQsqaUBKTNV-1" vertex="1">
          <mxGeometry x="-864" y="-2493" width="210" height="112" as="geometry">
            <mxRectangle x="550" y="140" width="160" height="26" as="alternateBounds" />
          </mxGeometry>
        </mxCell>
        <mxCell id="Q5uJ2qeS1NoMDb9aisBC-35" value="" style="line;html=1;strokeWidth=1;align=left;verticalAlign=middle;spacingTop=-1;spacingLeft=3;spacingRight=3;rotatable=0;labelPosition=right;points=[];portConstraint=eastwest;" parent="Q5uJ2qeS1NoMDb9aisBC-34" vertex="1">
          <mxGeometry y="26" width="210" height="8" as="geometry" />
        </mxCell>
        <mxCell id="Q5uJ2qeS1NoMDb9aisBC-36" value="+get_Payment_status()" style="text;align=left;verticalAlign=top;spacingLeft=4;spacingRight=4;overflow=hidden;rotatable=0;points=[[0,0.5],[1,0.5]];portConstraint=eastwest;" parent="Q5uJ2qeS1NoMDb9aisBC-34" vertex="1">
          <mxGeometry y="34" width="210" height="26" as="geometry" />
        </mxCell>
        <mxCell id="Q5uJ2qeS1NoMDb9aisBC-37" value="+get_payment_method()" style="text;align=left;verticalAlign=top;spacingLeft=4;spacingRight=4;overflow=hidden;rotatable=0;points=[[0,0.5],[1,0.5]];portConstraint=eastwest;" parent="Q5uJ2qeS1NoMDb9aisBC-34" vertex="1">
          <mxGeometry y="60" width="210" height="26" as="geometry" />
        </mxCell>
        <mxCell id="Q5uJ2qeS1NoMDb9aisBC-39" value="+get_receipt()" style="text;align=left;verticalAlign=top;spacingLeft=4;spacingRight=4;overflow=hidden;rotatable=0;points=[[0,0.5],[1,0.5]];portConstraint=eastwest;" parent="Q5uJ2qeS1NoMDb9aisBC-34" vertex="1">
          <mxGeometry y="86" width="210" height="26" as="geometry" />
        </mxCell>
        <mxCell id="Q5uJ2qeS1NoMDb9aisBC-38" value="&amp;lt;&amp;lt;external&amp;gt;&amp;gt;" style="text;whiteSpace=wrap;html=1;" parent="WIyWlLk6GJQsqaUBKTNV-1" vertex="1">
          <mxGeometry x="-804" y="-2513" width="90" height="40" as="geometry" />
        </mxCell>
        <mxCell id="Q5uJ2qeS1NoMDb9aisBC-41" value="&amp;lt;&amp;lt;payment&amp;gt;&amp;gt;" style="text;html=1;align=center;verticalAlign=middle;whiteSpace=wrap;rounded=0;" parent="WIyWlLk6GJQsqaUBKTNV-1" vertex="1">
          <mxGeometry x="-1260" y="-2590" width="60" height="30" as="geometry" />
        </mxCell>
        <mxCell id="Q5uJ2qeS1NoMDb9aisBC-44" value="Use" style="endArrow=open;endSize=12;dashed=1;html=1;rounded=0;" parent="WIyWlLk6GJQsqaUBKTNV-1" edge="1">
          <mxGeometry width="160" relative="1" as="geometry">
            <mxPoint x="-950" y="-2403" as="sourcePoint" />
            <mxPoint x="-860" y="-2403" as="targetPoint" />
          </mxGeometry>
        </mxCell>
        <mxCell id="UPpW3QvQ503PZCW4TQQM-0" value="Notification" style="swimlane;fontStyle=2;align=center;verticalAlign=top;childLayout=stackLayout;horizontal=1;startSize=26;horizontalStack=0;resizeParent=1;resizeLast=0;collapsible=1;marginBottom=0;rounded=0;shadow=0;strokeWidth=1;" parent="WIyWlLk6GJQsqaUBKTNV-1" vertex="1">
          <mxGeometry x="280" y="-2298" width="190" height="268" as="geometry">
            <mxRectangle x="230" y="140" width="160" height="26" as="alternateBounds" />
          </mxGeometry>
        </mxCell>
        <mxCell id="UPpW3QvQ503PZCW4TQQM-1" value="-content:string" style="text;align=left;verticalAlign=top;spacingLeft=4;spacingRight=4;overflow=hidden;rotatable=0;points=[[0,0.5],[1,0.5]];portConstraint=eastwest;" parent="UPpW3QvQ503PZCW4TQQM-0" vertex="1">
          <mxGeometry y="26" width="190" height="26" as="geometry" />
        </mxCell>
        <mxCell id="UPpW3QvQ503PZCW4TQQM-2" value="-receiver_acc:Account" style="text;align=left;verticalAlign=top;spacingLeft=4;spacingRight=4;overflow=hidden;rotatable=0;points=[[0,0.5],[1,0.5]];portConstraint=eastwest;rounded=0;shadow=0;html=0;" parent="UPpW3QvQ503PZCW4TQQM-0" vertex="1">
          <mxGeometry y="52" width="190" height="26" as="geometry" />
        </mxCell>
        <mxCell id="UPpW3QvQ503PZCW4TQQM-4" value="-subject:string" style="text;align=left;verticalAlign=top;spacingLeft=4;spacingRight=4;overflow=hidden;rotatable=0;points=[[0,0.5],[1,0.5]];portConstraint=eastwest;rounded=0;shadow=0;html=0;" parent="UPpW3QvQ503PZCW4TQQM-0" vertex="1">
          <mxGeometry y="78" width="190" height="26" as="geometry" />
        </mxCell>
        <mxCell id="UPpW3QvQ503PZCW4TQQM-18" value="-timestamp:date" style="text;align=left;verticalAlign=top;spacingLeft=4;spacingRight=4;overflow=hidden;rotatable=0;points=[[0,0.5],[1,0.5]];portConstraint=eastwest;rounded=0;shadow=0;html=0;" parent="UPpW3QvQ503PZCW4TQQM-0" vertex="1">
          <mxGeometry y="104" width="190" height="26" as="geometry" />
        </mxCell>
        <mxCell id="UPpW3QvQ503PZCW4TQQM-19" value="-type:enum" style="text;align=left;verticalAlign=top;spacingLeft=4;spacingRight=4;overflow=hidden;rotatable=0;points=[[0,0.5],[1,0.5]];portConstraint=eastwest;rounded=0;shadow=0;html=0;" parent="UPpW3QvQ503PZCW4TQQM-0" vertex="1">
          <mxGeometry y="130" width="190" height="26" as="geometry" />
        </mxCell>
        <mxCell id="UPpW3QvQ503PZCW4TQQM-6" value="" style="line;html=1;strokeWidth=1;align=left;verticalAlign=middle;spacingTop=-1;spacingLeft=3;spacingRight=3;rotatable=0;labelPosition=right;points=[];portConstraint=eastwest;" parent="UPpW3QvQ503PZCW4TQQM-0" vertex="1">
          <mxGeometry y="156" width="190" height="8" as="geometry" />
        </mxCell>
        <mxCell id="UPpW3QvQ503PZCW4TQQM-7" value="+get_notification():notification" style="text;align=left;verticalAlign=top;spacingLeft=4;spacingRight=4;overflow=hidden;rotatable=0;points=[[0,0.5],[1,0.5]];portConstraint=eastwest;" parent="UPpW3QvQ503PZCW4TQQM-0" vertex="1">
          <mxGeometry y="164" width="190" height="26" as="geometry" />
        </mxCell>
        <mxCell id="UPpW3QvQ503PZCW4TQQM-10" value="+set_content(string):" style="text;align=left;verticalAlign=top;spacingLeft=4;spacingRight=4;overflow=hidden;rotatable=0;points=[[0,0.5],[1,0.5]];portConstraint=eastwest;" parent="UPpW3QvQ503PZCW4TQQM-0" vertex="1">
          <mxGeometry y="190" width="190" height="26" as="geometry" />
        </mxCell>
        <mxCell id="UPpW3QvQ503PZCW4TQQM-11" value="+set_subject(string):" style="text;align=left;verticalAlign=top;spacingLeft=4;spacingRight=4;overflow=hidden;rotatable=0;points=[[0,0.5],[1,0.5]];portConstraint=eastwest;" parent="UPpW3QvQ503PZCW4TQQM-0" vertex="1">
          <mxGeometry y="216" width="190" height="26" as="geometry" />
        </mxCell>
        <mxCell id="UPpW3QvQ503PZCW4TQQM-20" value="+set_type()" style="text;align=left;verticalAlign=top;spacingLeft=4;spacingRight=4;overflow=hidden;rotatable=0;points=[[0,0.5],[1,0.5]];portConstraint=eastwest;" parent="UPpW3QvQ503PZCW4TQQM-0" vertex="1">
          <mxGeometry y="242" width="190" height="26" as="geometry" />
        </mxCell>
        <mxCell id="UPpW3QvQ503PZCW4TQQM-12" value="Notifiaction_management" style="swimlane;fontStyle=0;align=center;verticalAlign=top;childLayout=stackLayout;horizontal=1;startSize=26;horizontalStack=0;resizeParent=1;resizeLast=0;collapsible=1;marginBottom=0;rounded=0;shadow=0;strokeWidth=1;" parent="WIyWlLk6GJQsqaUBKTNV-1" vertex="1">
          <mxGeometry x="670" y="-2220" width="240" height="112" as="geometry">
            <mxRectangle x="550" y="140" width="160" height="26" as="alternateBounds" />
          </mxGeometry>
        </mxCell>
        <mxCell id="UPpW3QvQ503PZCW4TQQM-13" value="" style="line;html=1;strokeWidth=1;align=left;verticalAlign=middle;spacingTop=-1;spacingLeft=3;spacingRight=3;rotatable=0;labelPosition=right;points=[];portConstraint=eastwest;" parent="UPpW3QvQ503PZCW4TQQM-12" vertex="1">
          <mxGeometry y="26" width="240" height="8" as="geometry" />
        </mxCell>
        <mxCell id="UPpW3QvQ503PZCW4TQQM-14" value="+send_notification(string)" style="text;align=left;verticalAlign=top;spacingLeft=4;spacingRight=4;overflow=hidden;rotatable=0;points=[[0,0.5],[1,0.5]];portConstraint=eastwest;" parent="UPpW3QvQ503PZCW4TQQM-12" vertex="1">
          <mxGeometry y="34" width="240" height="26" as="geometry" />
        </mxCell>
        <mxCell id="q637Gu_soD_jAeFLe_u1-50" value="+recieve_notification(string):Notification" style="text;align=left;verticalAlign=top;spacingLeft=4;spacingRight=4;overflow=hidden;rotatable=0;points=[[0,0.5],[1,0.5]];portConstraint=eastwest;" parent="UPpW3QvQ503PZCW4TQQM-12" vertex="1">
          <mxGeometry y="60" width="240" height="26" as="geometry" />
        </mxCell>
        <mxCell id="UPpW3QvQ503PZCW4TQQM-16" value="+create_notification(string,string,Account)" style="text;align=left;verticalAlign=top;spacingLeft=4;spacingRight=4;overflow=hidden;rotatable=0;points=[[0,0.5],[1,0.5]];portConstraint=eastwest;" parent="UPpW3QvQ503PZCW4TQQM-12" vertex="1">
          <mxGeometry y="86" width="240" height="26" as="geometry" />
        </mxCell>
        <mxCell id="UPpW3QvQ503PZCW4TQQM-17" value="manges" style="text;html=1;align=center;verticalAlign=middle;whiteSpace=wrap;rounded=0;" parent="WIyWlLk6GJQsqaUBKTNV-1" vertex="1">
          <mxGeometry x="540" y="-2187" width="60" height="30" as="geometry" />
        </mxCell>
        <mxCell id="UPpW3QvQ503PZCW4TQQM-22" value="1" style="text;html=1;align=center;verticalAlign=middle;whiteSpace=wrap;rounded=0;" parent="WIyWlLk6GJQsqaUBKTNV-1" vertex="1">
          <mxGeometry x="620" y="-2187.5" width="60" height="30" as="geometry" />
        </mxCell>
        <mxCell id="UPpW3QvQ503PZCW4TQQM-23" value="1..*" style="text;html=1;align=center;verticalAlign=middle;whiteSpace=wrap;rounded=0;" parent="WIyWlLk6GJQsqaUBKTNV-1" vertex="1">
          <mxGeometry x="470" y="-2179" width="60" height="30" as="geometry" />
        </mxCell>
        <mxCell id="fNxkAU7-AeEzuZAgSad1-9" value="" style="endArrow=block;endSize=10;endFill=0;shadow=0;strokeWidth=1;rounded=0;curved=0;edgeStyle=elbowEdgeStyle;elbow=vertical;exitX=0.25;exitY=0;exitDx=0;exitDy=0;" parent="WIyWlLk6GJQsqaUBKTNV-1" source="fNxkAU7-AeEzuZAgSad1-10" edge="1">
          <mxGeometry width="160" relative="1" as="geometry">
            <mxPoint x="380" y="-1960" as="sourcePoint" />
            <mxPoint x="380" y="-2030" as="targetPoint" />
          </mxGeometry>
        </mxCell>
        <mxCell id="fNxkAU7-AeEzuZAgSad1-10" value="auction_notification" style="swimlane;fontStyle=0;align=center;verticalAlign=top;childLayout=stackLayout;horizontal=1;startSize=26;horizontalStack=0;resizeParent=1;resizeLast=0;collapsible=1;marginBottom=0;rounded=0;shadow=0;strokeWidth=1;" parent="WIyWlLk6GJQsqaUBKTNV-1" vertex="1">
          <mxGeometry x="450" y="-1852" width="160" height="112" as="geometry">
            <mxRectangle x="340" y="380" width="170" height="26" as="alternateBounds" />
          </mxGeometry>
        </mxCell>
        <mxCell id="fNxkAU7-AeEzuZAgSad1-11" value="-status:enum" style="text;align=left;verticalAlign=top;spacingLeft=4;spacingRight=4;overflow=hidden;rotatable=0;points=[[0,0.5],[1,0.5]];portConstraint=eastwest;" parent="fNxkAU7-AeEzuZAgSad1-10" vertex="1">
          <mxGeometry y="26" width="160" height="26" as="geometry" />
        </mxCell>
        <mxCell id="fNxkAU7-AeEzuZAgSad1-12" value="-highest_bid:float" style="text;align=left;verticalAlign=top;spacingLeft=4;spacingRight=4;overflow=hidden;rotatable=0;points=[[0,0.5],[1,0.5]];portConstraint=eastwest;" parent="fNxkAU7-AeEzuZAgSad1-10" vertex="1">
          <mxGeometry y="52" width="160" height="26" as="geometry" />
        </mxCell>
        <mxCell id="q637Gu_soD_jAeFLe_u1-1" value="-aution_id:string" style="text;align=left;verticalAlign=top;spacingLeft=4;spacingRight=4;overflow=hidden;rotatable=0;points=[[0,0.5],[1,0.5]];portConstraint=eastwest;" parent="fNxkAU7-AeEzuZAgSad1-10" vertex="1">
          <mxGeometry y="78" width="160" height="26" as="geometry" />
        </mxCell>
        <mxCell id="fNxkAU7-AeEzuZAgSad1-13" value="" style="line;html=1;strokeWidth=1;align=left;verticalAlign=middle;spacingTop=-1;spacingLeft=3;spacingRight=3;rotatable=0;labelPosition=right;points=[];portConstraint=eastwest;" parent="fNxkAU7-AeEzuZAgSad1-10" vertex="1">
          <mxGeometry y="104" width="160" height="8" as="geometry" />
        </mxCell>
        <mxCell id="fNxkAU7-AeEzuZAgSad1-14" value="" style="endArrow=block;endSize=10;endFill=0;shadow=0;strokeWidth=1;rounded=0;curved=0;edgeStyle=elbowEdgeStyle;elbow=vertical;" parent="WIyWlLk6GJQsqaUBKTNV-1" edge="1">
          <mxGeometry width="160" relative="1" as="geometry">
            <mxPoint x="270" y="-1830" as="sourcePoint" />
            <mxPoint x="300" y="-2030" as="targetPoint" />
          </mxGeometry>
        </mxCell>
        <mxCell id="fNxkAU7-AeEzuZAgSad1-15" value="order_notification" style="swimlane;fontStyle=0;align=center;verticalAlign=top;childLayout=stackLayout;horizontal=1;startSize=26;horizontalStack=0;resizeParent=1;resizeLast=0;collapsible=1;marginBottom=0;rounded=0;shadow=0;strokeWidth=1;" parent="WIyWlLk6GJQsqaUBKTNV-1" vertex="1">
          <mxGeometry x="260" y="-1830" width="160" height="86" as="geometry">
            <mxRectangle x="340" y="380" width="170" height="26" as="alternateBounds" />
          </mxGeometry>
        </mxCell>
        <mxCell id="fNxkAU7-AeEzuZAgSad1-16" value="-status:enum" style="text;align=left;verticalAlign=top;spacingLeft=4;spacingRight=4;overflow=hidden;rotatable=0;points=[[0,0.5],[1,0.5]];portConstraint=eastwest;" parent="fNxkAU7-AeEzuZAgSad1-15" vertex="1">
          <mxGeometry y="26" width="160" height="26" as="geometry" />
        </mxCell>
        <mxCell id="fNxkAU7-AeEzuZAgSad1-17" value="-order_id:string" style="text;align=left;verticalAlign=top;spacingLeft=4;spacingRight=4;overflow=hidden;rotatable=0;points=[[0,0.5],[1,0.5]];portConstraint=eastwest;" parent="fNxkAU7-AeEzuZAgSad1-15" vertex="1">
          <mxGeometry y="52" width="160" height="26" as="geometry" />
        </mxCell>
        <mxCell id="fNxkAU7-AeEzuZAgSad1-18" value="" style="line;html=1;strokeWidth=1;align=left;verticalAlign=middle;spacingTop=-1;spacingLeft=3;spacingRight=3;rotatable=0;labelPosition=right;points=[];portConstraint=eastwest;" parent="fNxkAU7-AeEzuZAgSad1-15" vertex="1">
          <mxGeometry y="78" width="160" height="8" as="geometry" />
        </mxCell>
        <mxCell id="dm6teemk28US-Uhx1sEG-0" value="" style="shape=folder;fontStyle=1;spacingTop=10;tabWidth=40;tabHeight=14;tabPosition=left;html=1;whiteSpace=wrap;shadow=1;" parent="WIyWlLk6GJQsqaUBKTNV-1" vertex="1">
          <mxGeometry x="-500" y="-1630" width="1030" height="700" as="geometry" />
        </mxCell>
        <mxCell id="dm6teemk28US-Uhx1sEG-1" value="Auction" style="swimlane;fontStyle=2;align=center;verticalAlign=top;childLayout=stackLayout;horizontal=1;startSize=26;horizontalStack=0;resizeParent=1;resizeLast=0;collapsible=1;marginBottom=0;rounded=0;shadow=0;strokeWidth=1;" parent="WIyWlLk6GJQsqaUBKTNV-1" vertex="1">
          <mxGeometry x="-440" y="-1580" width="440" height="280" as="geometry">
            <mxRectangle x="230" y="140" width="160" height="26" as="alternateBounds" />
          </mxGeometry>
        </mxCell>
        <mxCell id="dm6teemk28US-Uhx1sEG-2" value="- auctionID:int" style="text;align=left;verticalAlign=top;spacingLeft=4;spacingRight=4;overflow=hidden;rotatable=0;points=[[0,0.5],[1,0.5]];portConstraint=eastwest;" parent="dm6teemk28US-Uhx1sEG-1" vertex="1">
          <mxGeometry y="26" width="440" height="24" as="geometry" />
        </mxCell>
        <mxCell id="dm6teemk28US-Uhx1sEG-4" value="- description:string" style="text;align=left;verticalAlign=top;spacingLeft=4;spacingRight=4;overflow=hidden;rotatable=0;points=[[0,0.5],[1,0.5]];portConstraint=eastwest;" parent="dm6teemk28US-Uhx1sEG-1" vertex="1">
          <mxGeometry y="50" width="440" height="20" as="geometry" />
        </mxCell>
        <mxCell id="dm6teemk28US-Uhx1sEG-5" value=" - startingBid: float" style="text;align=left;verticalAlign=top;spacingLeft=4;spacingRight=4;overflow=hidden;rotatable=0;points=[[0,0.5],[1,0.5]];portConstraint=eastwest;" parent="dm6teemk28US-Uhx1sEG-1" vertex="1">
          <mxGeometry y="70" width="440" height="20" as="geometry" />
        </mxCell>
        <mxCell id="dm6teemk28US-Uhx1sEG-6" value="- startTime:datetime" style="text;align=left;verticalAlign=top;spacingLeft=4;spacingRight=4;overflow=hidden;rotatable=0;points=[[0,0.5],[1,0.5]];portConstraint=eastwest;" parent="dm6teemk28US-Uhx1sEG-1" vertex="1">
          <mxGeometry y="90" width="440" height="20" as="geometry" />
        </mxCell>
        <mxCell id="dm6teemk28US-Uhx1sEG-7" value="- endTime:datetime&#xa;" style="text;align=left;verticalAlign=top;spacingLeft=4;spacingRight=4;overflow=hidden;rotatable=0;points=[[0,0.5],[1,0.5]];portConstraint=eastwest;" parent="dm6teemk28US-Uhx1sEG-1" vertex="1">
          <mxGeometry y="110" width="440" height="20" as="geometry" />
        </mxCell>
        <mxCell id="dm6teemk28US-Uhx1sEG-8" value="- currentPrice:float" style="text;align=left;verticalAlign=top;spacingLeft=4;spacingRight=4;overflow=hidden;rotatable=0;points=[[0,0.5],[1,0.5]];portConstraint=eastwest;" parent="dm6teemk28US-Uhx1sEG-1" vertex="1">
          <mxGeometry y="130" width="440" height="20" as="geometry" />
        </mxCell>
        <mxCell id="dm6teemk28US-Uhx1sEG-9" value="- status:AuctionStatus(Enum: PENDING,ACTIVE,CLOSED)" style="text;align=left;verticalAlign=top;spacingLeft=4;spacingRight=4;overflow=hidden;rotatable=0;points=[[0,0.5],[1,0.5]];portConstraint=eastwest;" parent="dm6teemk28US-Uhx1sEG-1" vertex="1">
          <mxGeometry y="150" width="440" height="20" as="geometry" />
        </mxCell>
        <mxCell id="dm6teemk28US-Uhx1sEG-10" value="- creator : Artist" style="text;align=left;verticalAlign=top;spacingLeft=4;spacingRight=4;overflow=hidden;rotatable=0;points=[[0,0.5],[1,0.5]];portConstraint=eastwest;" parent="dm6teemk28US-Uhx1sEG-1" vertex="1">
          <mxGeometry y="170" width="440" height="20" as="geometry" />
        </mxCell>
        <mxCell id="A3RSYJNHKTK07t-ZciKc-88" value="- highestBidder: Bid" style="text;align=left;verticalAlign=top;spacingLeft=4;spacingRight=4;overflow=hidden;rotatable=0;points=[[0,0.5],[1,0.5]];portConstraint=eastwest;" parent="dm6teemk28US-Uhx1sEG-1" vertex="1">
          <mxGeometry y="190" width="440" height="30" as="geometry" />
        </mxCell>
        <mxCell id="dm6teemk28US-Uhx1sEG-11" value="- product: Product" style="text;align=left;verticalAlign=top;spacingLeft=4;spacingRight=4;overflow=hidden;rotatable=0;points=[[0,0.5],[1,0.5]];portConstraint=eastwest;" parent="dm6teemk28US-Uhx1sEG-1" vertex="1">
          <mxGeometry y="220" width="440" height="30" as="geometry" />
        </mxCell>
        <mxCell id="dm6teemk28US-Uhx1sEG-12" value="" style="line;html=1;strokeWidth=1;align=left;verticalAlign=middle;spacingTop=-1;spacingLeft=3;spacingRight=3;rotatable=0;labelPosition=right;points=[];portConstraint=eastwest;" parent="dm6teemk28US-Uhx1sEG-1" vertex="1">
          <mxGeometry y="250" width="440" height="30" as="geometry" />
        </mxCell>
        <mxCell id="dm6teemk28US-Uhx1sEG-13" value="AuctionManager" style="swimlane;fontStyle=1;align=center;verticalAlign=top;childLayout=stackLayout;horizontal=1;startSize=26;horizontalStack=0;resizeParent=1;resizeParentMax=0;resizeLast=0;collapsible=1;marginBottom=0;whiteSpace=wrap;html=1;" parent="WIyWlLk6GJQsqaUBKTNV-1" vertex="1">
          <mxGeometry x="120" y="-1600" width="290" height="150" as="geometry" />
        </mxCell>
        <mxCell id="dm6teemk28US-Uhx1sEG-14" value="" style="line;strokeWidth=1;fillColor=none;align=left;verticalAlign=middle;spacingTop=-1;spacingLeft=3;spacingRight=3;rotatable=0;labelPosition=right;points=[];portConstraint=eastwest;strokeColor=inherit;" parent="dm6teemk28US-Uhx1sEG-13" vertex="1">
          <mxGeometry y="26" width="290" height="8" as="geometry" />
        </mxCell>
        <mxCell id="dm6teemk28US-Uhx1sEG-15" value="+ createAuction(request:AuctionRequest):Auction" style="text;strokeColor=none;fillColor=none;align=left;verticalAlign=top;spacingLeft=4;spacingRight=4;overflow=hidden;rotatable=0;points=[[0,0.5],[1,0.5]];portConstraint=eastwest;whiteSpace=wrap;html=1;" parent="dm6teemk28US-Uhx1sEG-13" vertex="1">
          <mxGeometry y="34" width="290" height="16" as="geometry" />
        </mxCell>
        <mxCell id="dm6teemk28US-Uhx1sEG-16" value="+ startAuction(auctionId:int):void" style="text;strokeColor=none;fillColor=none;align=left;verticalAlign=top;spacingLeft=4;spacingRight=4;overflow=hidden;rotatable=0;points=[[0,0.5],[1,0.5]];portConstraint=eastwest;whiteSpace=wrap;html=1;" parent="dm6teemk28US-Uhx1sEG-13" vertex="1">
          <mxGeometry y="50" width="290" height="20" as="geometry" />
        </mxCell>
        <mxCell id="dm6teemk28US-Uhx1sEG-17" value="+ terminateAuction(auctionId:int)void" style="text;strokeColor=none;fillColor=none;align=left;verticalAlign=top;spacingLeft=4;spacingRight=4;overflow=hidden;rotatable=0;points=[[0,0.5],[1,0.5]];portConstraint=eastwest;whiteSpace=wrap;html=1;" parent="dm6teemk28US-Uhx1sEG-13" vertex="1">
          <mxGeometry y="70" width="290" height="20" as="geometry" />
        </mxCell>
        <mxCell id="dm6teemk28US-Uhx1sEG-18" value="+ getAuctionDetails(auctionId:int):Auction" style="text;strokeColor=none;fillColor=none;align=left;verticalAlign=top;spacingLeft=4;spacingRight=4;overflow=hidden;rotatable=0;points=[[0,0.5],[1,0.5]];portConstraint=eastwest;whiteSpace=wrap;html=1;" parent="dm6teemk28US-Uhx1sEG-13" vertex="1">
          <mxGeometry y="90" width="290" height="20" as="geometry" />
        </mxCell>
        <mxCell id="dm6teemk28US-Uhx1sEG-21" value="+ updateAuction(auctionId:int);void" style="text;strokeColor=none;fillColor=none;align=left;verticalAlign=top;spacingLeft=4;spacingRight=4;overflow=hidden;rotatable=0;points=[[0,0.5],[1,0.5]];portConstraint=eastwest;whiteSpace=wrap;html=1;" parent="dm6teemk28US-Uhx1sEG-13" vertex="1">
          <mxGeometry y="110" width="290" height="20" as="geometry" />
        </mxCell>
        <mxCell id="L00tVhecsyWKnv9jJQQv-0" value="+ checkBidRange(Bid);bool" style="text;strokeColor=none;fillColor=none;align=left;verticalAlign=top;spacingLeft=4;spacingRight=4;overflow=hidden;rotatable=0;points=[[0,0.5],[1,0.5]];portConstraint=eastwest;whiteSpace=wrap;html=1;" parent="dm6teemk28US-Uhx1sEG-13" vertex="1">
          <mxGeometry y="130" width="290" height="20" as="geometry" />
        </mxCell>
        <mxCell id="dm6teemk28US-Uhx1sEG-22" value="BidManager" style="swimlane;fontStyle=1;align=center;verticalAlign=top;childLayout=stackLayout;horizontal=1;startSize=26;horizontalStack=0;resizeParent=1;resizeParentMax=0;resizeLast=0;collapsible=1;marginBottom=0;whiteSpace=wrap;html=1;" parent="WIyWlLk6GJQsqaUBKTNV-1" vertex="1">
          <mxGeometry x="120" y="-1060" width="320" height="110" as="geometry" />
        </mxCell>
        <mxCell id="dm6teemk28US-Uhx1sEG-23" value="" style="line;strokeWidth=1;fillColor=none;align=left;verticalAlign=middle;spacingTop=-1;spacingLeft=3;spacingRight=3;rotatable=0;labelPosition=right;points=[];portConstraint=eastwest;strokeColor=inherit;" parent="dm6teemk28US-Uhx1sEG-22" vertex="1">
          <mxGeometry y="26" width="320" height="8" as="geometry" />
        </mxCell>
        <mxCell id="dm6teemk28US-Uhx1sEG-24" value="+ placeBid(auctionId: int,userId:int,amount:float):Bid" style="text;strokeColor=none;fillColor=none;align=left;verticalAlign=top;spacingLeft=4;spacingRight=4;overflow=hidden;rotatable=0;points=[[0,0.5],[1,0.5]];portConstraint=eastwest;whiteSpace=wrap;html=1;" parent="dm6teemk28US-Uhx1sEG-22" vertex="1">
          <mxGeometry y="34" width="320" height="36" as="geometry" />
        </mxCell>
        <mxCell id="dm6teemk28US-Uhx1sEG-25" value="+ updateBid(bidId: int, newAmount: float):void" style="text;strokeColor=none;fillColor=none;align=left;verticalAlign=top;spacingLeft=4;spacingRight=4;overflow=hidden;rotatable=0;points=[[0,0.5],[1,0.5]];portConstraint=eastwest;whiteSpace=wrap;html=1;" parent="dm6teemk28US-Uhx1sEG-22" vertex="1">
          <mxGeometry y="70" width="320" height="40" as="geometry" />
        </mxCell>
        <mxCell id="dm6teemk28US-Uhx1sEG-26" value="AuctionRequestService" style="swimlane;fontStyle=1;align=center;verticalAlign=top;childLayout=stackLayout;horizontal=1;startSize=26;horizontalStack=0;resizeParent=1;resizeParentMax=0;resizeLast=0;collapsible=1;marginBottom=0;whiteSpace=wrap;html=1;" parent="WIyWlLk6GJQsqaUBKTNV-1" vertex="1">
          <mxGeometry x="120" y="-1424" width="340" height="138" as="geometry" />
        </mxCell>
        <mxCell id="dm6teemk28US-Uhx1sEG-27" value="" style="line;strokeWidth=1;fillColor=none;align=left;verticalAlign=middle;spacingTop=-1;spacingLeft=3;spacingRight=3;rotatable=0;labelPosition=right;points=[];portConstraint=eastwest;strokeColor=inherit;" parent="dm6teemk28US-Uhx1sEG-26" vertex="1">
          <mxGeometry y="26" width="340" height="8" as="geometry" />
        </mxCell>
        <mxCell id="dm6teemk28US-Uhx1sEG-28" value="+ submitRequest(artistId:int,product:Product):AuctionRequest" style="text;strokeColor=none;fillColor=none;align=left;verticalAlign=top;spacingLeft=4;spacingRight=4;overflow=hidden;rotatable=0;points=[[0,0.5],[1,0.5]];portConstraint=eastwest;whiteSpace=wrap;html=1;" parent="dm6teemk28US-Uhx1sEG-26" vertex="1">
          <mxGeometry y="34" width="340" height="26" as="geometry" />
        </mxCell>
        <mxCell id="q637Gu_soD_jAeFLe_u1-11" value="+ rejectRequest(request:AuctionRequest):void" style="text;strokeColor=none;fillColor=none;align=left;verticalAlign=top;spacingLeft=4;spacingRight=4;overflow=hidden;rotatable=0;points=[[0,0.5],[1,0.5]];portConstraint=eastwest;whiteSpace=wrap;html=1;" parent="dm6teemk28US-Uhx1sEG-26" vertex="1">
          <mxGeometry y="60" width="340" height="26" as="geometry" />
        </mxCell>
        <mxCell id="q637Gu_soD_jAeFLe_u1-12" value="+ receiveRequest(artistId:int,product:Product):AuctionRequest" style="text;strokeColor=none;fillColor=none;align=left;verticalAlign=top;spacingLeft=4;spacingRight=4;overflow=hidden;rotatable=0;points=[[0,0.5],[1,0.5]];portConstraint=eastwest;whiteSpace=wrap;html=1;" parent="dm6teemk28US-Uhx1sEG-26" vertex="1">
          <mxGeometry y="86" width="340" height="26" as="geometry" />
        </mxCell>
        <mxCell id="q637Gu_soD_jAeFLe_u1-13" value="+ approveRequest(requestId:int):void" style="text;strokeColor=none;fillColor=none;align=left;verticalAlign=top;spacingLeft=4;spacingRight=4;overflow=hidden;rotatable=0;points=[[0,0.5],[1,0.5]];portConstraint=eastwest;whiteSpace=wrap;html=1;" parent="dm6teemk28US-Uhx1sEG-26" vertex="1">
          <mxGeometry y="112" width="340" height="26" as="geometry" />
        </mxCell>
        <mxCell id="dm6teemk28US-Uhx1sEG-29" value="Bid" style="swimlane;fontStyle=1;align=center;verticalAlign=top;childLayout=stackLayout;horizontal=1;startSize=26;horizontalStack=0;resizeParent=1;resizeParentMax=0;resizeLast=0;collapsible=1;marginBottom=0;whiteSpace=wrap;html=1;" parent="WIyWlLk6GJQsqaUBKTNV-1" vertex="1">
          <mxGeometry x="-440" y="-1120" width="440" height="150" as="geometry" />
        </mxCell>
        <mxCell id="dm6teemk28US-Uhx1sEG-30" value="-bidId: int" style="text;strokeColor=none;fillColor=none;align=left;verticalAlign=top;spacingLeft=4;spacingRight=4;overflow=hidden;rotatable=0;points=[[0,0.5],[1,0.5]];portConstraint=eastwest;whiteSpace=wrap;html=1;" parent="dm6teemk28US-Uhx1sEG-29" vertex="1">
          <mxGeometry y="26" width="440" height="24" as="geometry" />
        </mxCell>
        <mxCell id="dm6teemk28US-Uhx1sEG-32" value="- bidder :user" style="text;strokeColor=none;fillColor=none;align=left;verticalAlign=top;spacingLeft=4;spacingRight=4;overflow=hidden;rotatable=0;points=[[0,0.5],[1,0.5]];portConstraint=eastwest;whiteSpace=wrap;html=1;" parent="dm6teemk28US-Uhx1sEG-29" vertex="1">
          <mxGeometry y="50" width="440" height="20" as="geometry" />
        </mxCell>
        <mxCell id="dm6teemk28US-Uhx1sEG-33" value="- amount: float" style="text;strokeColor=none;fillColor=none;align=left;verticalAlign=top;spacingLeft=4;spacingRight=4;overflow=hidden;rotatable=0;points=[[0,0.5],[1,0.5]];portConstraint=eastwest;whiteSpace=wrap;html=1;" parent="dm6teemk28US-Uhx1sEG-29" vertex="1">
          <mxGeometry y="70" width="440" height="20" as="geometry" />
        </mxCell>
        <mxCell id="dm6teemk28US-Uhx1sEG-34" value="- time: datetime" style="text;strokeColor=none;fillColor=none;align=left;verticalAlign=top;spacingLeft=4;spacingRight=4;overflow=hidden;rotatable=0;points=[[0,0.5],[1,0.5]];portConstraint=eastwest;whiteSpace=wrap;html=1;" parent="dm6teemk28US-Uhx1sEG-29" vertex="1">
          <mxGeometry y="90" width="440" height="20" as="geometry" />
        </mxCell>
        <mxCell id="dm6teemk28US-Uhx1sEG-35" value="" style="line;strokeWidth=1;fillColor=none;align=left;verticalAlign=middle;spacingTop=-1;spacingLeft=3;spacingRight=3;rotatable=0;labelPosition=right;points=[];portConstraint=eastwest;strokeColor=inherit;" parent="dm6teemk28US-Uhx1sEG-29" vertex="1">
          <mxGeometry y="110" width="440" height="8" as="geometry" />
        </mxCell>
        <mxCell id="dm6teemk28US-Uhx1sEG-36" value="+ isHigherThanCurrentBid():Boolen" style="text;strokeColor=none;fillColor=none;align=left;verticalAlign=top;spacingLeft=4;spacingRight=4;overflow=hidden;rotatable=0;points=[[0,0.5],[1,0.5]];portConstraint=eastwest;whiteSpace=wrap;html=1;" parent="dm6teemk28US-Uhx1sEG-29" vertex="1">
          <mxGeometry y="118" width="440" height="32" as="geometry" />
        </mxCell>
        <mxCell id="dm6teemk28US-Uhx1sEG-37" value="" style="endArrow=open;html=1;endSize=12;startArrow=diamondThin;startSize=14;startFill=0;edgeStyle=orthogonalEdgeStyle;align=left;verticalAlign=bottom;rounded=0;" parent="WIyWlLk6GJQsqaUBKTNV-1" source="dm6teemk28US-Uhx1sEG-1" target="dm6teemk28US-Uhx1sEG-29" edge="1">
          <mxGeometry x="-1" y="3" relative="1" as="geometry">
            <mxPoint x="-270" y="-1230" as="sourcePoint" />
            <mxPoint x="-260" y="-1120" as="targetPoint" />
            <Array as="points">
              <mxPoint x="-220" y="-1220" />
              <mxPoint x="-270" y="-1220" />
            </Array>
          </mxGeometry>
        </mxCell>
        <mxCell id="dm6teemk28US-Uhx1sEG-39" value="" style="endArrow=open;endFill=1;endSize=12;html=1;rounded=0;entryX=1;entryY=0.5;entryDx=0;entryDy=0;exitX=0;exitY=0.5;exitDx=0;exitDy=0;" parent="WIyWlLk6GJQsqaUBKTNV-1" source="dm6teemk28US-Uhx1sEG-17" edge="1">
          <mxGeometry width="160" relative="1" as="geometry">
            <mxPoint x="-10" y="-1480" as="sourcePoint" />
            <mxPoint y="-1520.0000000000005" as="targetPoint" />
            <Array as="points">
              <mxPoint x="40" y="-1520" />
            </Array>
          </mxGeometry>
        </mxCell>
        <mxCell id="dm6teemk28US-Uhx1sEG-40" value="1" style="text;html=1;strokeColor=none;fillColor=none;align=center;verticalAlign=middle;whiteSpace=wrap;rounded=0;" parent="WIyWlLk6GJQsqaUBKTNV-1" vertex="1">
          <mxGeometry x="90" y="-1540" width="20" height="10" as="geometry" />
        </mxCell>
        <mxCell id="dm6teemk28US-Uhx1sEG-41" value="1..*" style="text;html=1;strokeColor=none;fillColor=none;align=center;verticalAlign=middle;whiteSpace=wrap;rounded=0;" parent="WIyWlLk6GJQsqaUBKTNV-1" vertex="1">
          <mxGeometry x="6" y="-1540" width="30" height="10" as="geometry" />
        </mxCell>
        <mxCell id="dm6teemk28US-Uhx1sEG-42" value="manage" style="text;html=1;strokeColor=none;fillColor=none;align=center;verticalAlign=middle;whiteSpace=wrap;rounded=0;" parent="WIyWlLk6GJQsqaUBKTNV-1" vertex="1">
          <mxGeometry x="30" y="-1520" width="60" height="30" as="geometry" />
        </mxCell>
        <mxCell id="dm6teemk28US-Uhx1sEG-43" value="" style="endArrow=open;endFill=1;endSize=12;html=1;rounded=0;" parent="WIyWlLk6GJQsqaUBKTNV-1" source="dm6teemk28US-Uhx1sEG-22" target="dm6teemk28US-Uhx1sEG-29" edge="1">
          <mxGeometry width="160" relative="1" as="geometry">
            <mxPoint x="60" y="-1060" as="sourcePoint" />
            <mxPoint x="220" y="-1060" as="targetPoint" />
          </mxGeometry>
        </mxCell>
        <mxCell id="dm6teemk28US-Uhx1sEG-44" value="1" style="text;html=1;strokeColor=none;fillColor=none;align=center;verticalAlign=middle;whiteSpace=wrap;rounded=0;" parent="WIyWlLk6GJQsqaUBKTNV-1" vertex="1">
          <mxGeometry x="100" y="-1050" width="20" height="10" as="geometry" />
        </mxCell>
        <mxCell id="dm6teemk28US-Uhx1sEG-45" value="1..*" style="text;html=1;strokeColor=none;fillColor=none;align=center;verticalAlign=middle;whiteSpace=wrap;rounded=0;" parent="WIyWlLk6GJQsqaUBKTNV-1" vertex="1">
          <mxGeometry x="6" y="-1050" width="30" height="10" as="geometry" />
        </mxCell>
        <mxCell id="dm6teemk28US-Uhx1sEG-46" value="manage" style="text;html=1;strokeColor=none;fillColor=none;align=center;verticalAlign=middle;whiteSpace=wrap;rounded=0;" parent="WIyWlLk6GJQsqaUBKTNV-1" vertex="1">
          <mxGeometry x="36" y="-1030" width="60" height="30" as="geometry" />
        </mxCell>
        <mxCell id="dm6teemk28US-Uhx1sEG-47" value="" style="shape=folder;fontStyle=1;spacingTop=10;tabWidth=40;tabHeight=14;tabPosition=left;html=1;whiteSpace=wrap;" parent="WIyWlLk6GJQsqaUBKTNV-1" vertex="1">
          <mxGeometry x="-1870" y="-2230" width="1020" height="1190" as="geometry" />
        </mxCell>
        <mxCell id="dm6teemk28US-Uhx1sEG-51" value="Account" style="swimlane;fontStyle=1;align=center;verticalAlign=top;childLayout=stackLayout;horizontal=1;startSize=26;horizontalStack=0;resizeParent=1;resizeParentMax=0;resizeLast=0;collapsible=1;marginBottom=0;whiteSpace=wrap;html=1;" parent="WIyWlLk6GJQsqaUBKTNV-1" vertex="1">
          <mxGeometry x="-1410" y="-2200" width="230" height="242" as="geometry" />
        </mxCell>
        <mxCell id="dm6teemk28US-Uhx1sEG-52" value="- accountId:int" style="text;strokeColor=none;fillColor=none;align=left;verticalAlign=top;spacingLeft=4;spacingRight=4;overflow=hidden;rotatable=0;points=[[0,0.5],[1,0.5]];portConstraint=eastwest;whiteSpace=wrap;html=1;" parent="dm6teemk28US-Uhx1sEG-51" vertex="1">
          <mxGeometry y="26" width="230" height="26" as="geometry" />
        </mxCell>
        <mxCell id="dm6teemk28US-Uhx1sEG-53" value="- name:string" style="text;strokeColor=none;fillColor=none;align=left;verticalAlign=top;spacingLeft=4;spacingRight=4;overflow=hidden;rotatable=0;points=[[0,0.5],[1,0.5]];portConstraint=eastwest;whiteSpace=wrap;html=1;" parent="dm6teemk28US-Uhx1sEG-51" vertex="1">
          <mxGeometry y="52" width="230" height="26" as="geometry" />
        </mxCell>
        <mxCell id="dm6teemk28US-Uhx1sEG-54" value="- email:string" style="text;strokeColor=none;fillColor=none;align=left;verticalAlign=top;spacingLeft=4;spacingRight=4;overflow=hidden;rotatable=0;points=[[0,0.5],[1,0.5]];portConstraint=eastwest;whiteSpace=wrap;html=1;" parent="dm6teemk28US-Uhx1sEG-51" vertex="1">
          <mxGeometry y="78" width="230" height="26" as="geometry" />
        </mxCell>
        <mxCell id="dm6teemk28US-Uhx1sEG-55" value="- password:string" style="text;strokeColor=none;fillColor=none;align=left;verticalAlign=top;spacingLeft=4;spacingRight=4;overflow=hidden;rotatable=0;points=[[0,0.5],[1,0.5]];portConstraint=eastwest;whiteSpace=wrap;html=1;" parent="dm6teemk28US-Uhx1sEG-51" vertex="1">
          <mxGeometry y="104" width="230" height="26" as="geometry" />
        </mxCell>
        <mxCell id="dm6teemk28US-Uhx1sEG-56" value="- username:string" style="text;strokeColor=none;fillColor=none;align=left;verticalAlign=top;spacingLeft=4;spacingRight=4;overflow=hidden;rotatable=0;points=[[0,0.5],[1,0.5]];portConstraint=eastwest;whiteSpace=wrap;html=1;" parent="dm6teemk28US-Uhx1sEG-51" vertex="1">
          <mxGeometry y="130" width="230" height="26" as="geometry" />
        </mxCell>
        <mxCell id="gIYWmrHFyz6RbOEe7uVL-0" value="- phoneNumber: int" style="text;strokeColor=none;fillColor=none;align=left;verticalAlign=top;spacingLeft=4;spacingRight=4;overflow=hidden;rotatable=0;points=[[0,0.5],[1,0.5]];portConstraint=eastwest;whiteSpace=wrap;html=1;" parent="dm6teemk28US-Uhx1sEG-51" vertex="1">
          <mxGeometry y="156" width="230" height="26" as="geometry" />
        </mxCell>
        <mxCell id="dm6teemk28US-Uhx1sEG-58" value="" style="line;strokeWidth=1;fillColor=none;align=left;verticalAlign=middle;spacingTop=-1;spacingLeft=3;spacingRight=3;rotatable=0;labelPosition=right;points=[];portConstraint=eastwest;strokeColor=inherit;" parent="dm6teemk28US-Uhx1sEG-51" vertex="1">
          <mxGeometry y="182" width="230" height="8" as="geometry" />
        </mxCell>
        <mxCell id="K0LZEwd1qcSagDW5QjRj-0" value="+reset_password(new_password:string)" style="text;strokeColor=none;fillColor=none;align=left;verticalAlign=top;spacingLeft=4;spacingRight=4;overflow=hidden;rotatable=0;points=[[0,0.5],[1,0.5]];portConstraint=eastwest;whiteSpace=wrap;html=1;" parent="dm6teemk28US-Uhx1sEG-51" vertex="1">
          <mxGeometry y="190" width="230" height="26" as="geometry" />
        </mxCell>
        <mxCell id="K0LZEwd1qcSagDW5QjRj-1" value="+delete_account()" style="text;strokeColor=none;fillColor=none;align=left;verticalAlign=top;spacingLeft=4;spacingRight=4;overflow=hidden;rotatable=0;points=[[0,0.5],[1,0.5]];portConstraint=eastwest;whiteSpace=wrap;html=1;" parent="dm6teemk28US-Uhx1sEG-51" vertex="1">
          <mxGeometry y="216" width="230" height="26" as="geometry" />
        </mxCell>
        <mxCell id="dm6teemk28US-Uhx1sEG-61" value="&amp;lt;&amp;lt;Abstract&amp;gt;&amp;gt;" style="text;html=1;strokeColor=none;fillColor=none;align=center;verticalAlign=middle;whiteSpace=wrap;rounded=0;" parent="WIyWlLk6GJQsqaUBKTNV-1" vertex="1">
          <mxGeometry x="-1325" y="-2220" width="60" height="30" as="geometry" />
        </mxCell>
        <mxCell id="dm6teemk28US-Uhx1sEG-62" value="AdminAccount" style="swimlane;fontStyle=1;align=center;verticalAlign=top;childLayout=stackLayout;horizontal=1;startSize=26;horizontalStack=0;resizeParent=1;resizeParentMax=0;resizeLast=0;collapsible=1;marginBottom=0;whiteSpace=wrap;html=1;" parent="WIyWlLk6GJQsqaUBKTNV-1" vertex="1">
          <mxGeometry x="-1690" y="-1868" width="230" height="34" as="geometry" />
        </mxCell>
        <mxCell id="dm6teemk28US-Uhx1sEG-63" value="" style="line;strokeWidth=1;fillColor=none;align=left;verticalAlign=middle;spacingTop=-1;spacingLeft=3;spacingRight=3;rotatable=0;labelPosition=right;points=[];portConstraint=eastwest;strokeColor=inherit;" parent="dm6teemk28US-Uhx1sEG-62" vertex="1">
          <mxGeometry y="26" width="230" height="8" as="geometry" />
        </mxCell>
        <mxCell id="dm6teemk28US-Uhx1sEG-68" value="ArtistAccount" style="swimlane;fontStyle=1;align=center;verticalAlign=top;childLayout=stackLayout;horizontal=1;startSize=26;horizontalStack=0;resizeParent=1;resizeParentMax=0;resizeLast=0;collapsible=1;marginBottom=0;whiteSpace=wrap;html=1;" parent="WIyWlLk6GJQsqaUBKTNV-1" vertex="1">
          <mxGeometry x="-1410" y="-1880" width="270" height="294" as="geometry" />
        </mxCell>
        <mxCell id="dm6teemk28US-Uhx1sEG-69" value="- gallery: Gallery" style="text;strokeColor=none;fillColor=none;align=left;verticalAlign=top;spacingLeft=4;spacingRight=4;overflow=hidden;rotatable=0;points=[[0,0.5],[1,0.5]];portConstraint=eastwest;whiteSpace=wrap;html=1;" parent="dm6teemk28US-Uhx1sEG-68" vertex="1">
          <mxGeometry y="26" width="270" height="26" as="geometry" />
        </mxCell>
        <mxCell id="dm6teemk28US-Uhx1sEG-70" value="- Biography:string" style="text;strokeColor=none;fillColor=none;align=left;verticalAlign=top;spacingLeft=4;spacingRight=4;overflow=hidden;rotatable=0;points=[[0,0.5],[1,0.5]];portConstraint=eastwest;whiteSpace=wrap;html=1;" parent="dm6teemk28US-Uhx1sEG-68" vertex="1">
          <mxGeometry y="52" width="270" height="26" as="geometry" />
        </mxCell>
        <mxCell id="dm6teemk28US-Uhx1sEG-71" value="- profileVideo:string" style="text;strokeColor=none;fillColor=none;align=left;verticalAlign=top;spacingLeft=4;spacingRight=4;overflow=hidden;rotatable=0;points=[[0,0.5],[1,0.5]];portConstraint=eastwest;whiteSpace=wrap;html=1;" parent="dm6teemk28US-Uhx1sEG-68" vertex="1">
          <mxGeometry y="78" width="270" height="26" as="geometry" />
        </mxCell>
        <mxCell id="dm6teemk28US-Uhx1sEG-72" value="- profilePicture:string" style="text;strokeColor=none;fillColor=none;align=left;verticalAlign=top;spacingLeft=4;spacingRight=4;overflow=hidden;rotatable=0;points=[[0,0.5],[1,0.5]];portConstraint=eastwest;whiteSpace=wrap;html=1;" parent="dm6teemk28US-Uhx1sEG-68" vertex="1">
          <mxGeometry y="104" width="270" height="26" as="geometry" />
        </mxCell>
        <mxCell id="IZNv1gLnLJnbKeBYkeAr-4" value="- ratings:string" style="text;strokeColor=none;fillColor=none;align=left;verticalAlign=top;spacingLeft=4;spacingRight=4;overflow=hidden;rotatable=0;points=[[0,0.5],[1,0.5]];portConstraint=eastwest;whiteSpace=wrap;html=1;" parent="dm6teemk28US-Uhx1sEG-68" vertex="1">
          <mxGeometry y="130" width="270" height="26" as="geometry" />
        </mxCell>
        <mxCell id="dm6teemk28US-Uhx1sEG-73" value="" style="line;strokeWidth=1;fillColor=none;align=left;verticalAlign=middle;spacingTop=-1;spacingLeft=3;spacingRight=3;rotatable=0;labelPosition=right;points=[];portConstraint=eastwest;strokeColor=inherit;" parent="dm6teemk28US-Uhx1sEG-68" vertex="1">
          <mxGeometry y="156" width="270" height="8" as="geometry" />
        </mxCell>
        <mxCell id="dm6teemk28US-Uhx1sEG-76" value="+ get_gallery(galleryId:int):gallery" style="text;strokeColor=none;fillColor=none;align=left;verticalAlign=top;spacingLeft=4;spacingRight=4;overflow=hidden;rotatable=0;points=[[0,0.5],[1,0.5]];portConstraint=eastwest;whiteSpace=wrap;html=1;" parent="dm6teemk28US-Uhx1sEG-68" vertex="1">
          <mxGeometry y="164" width="270" height="26" as="geometry" />
        </mxCell>
        <mxCell id="dm6teemk28US-Uhx1sEG-77" value="+ update_biography(bio:string):void" style="text;strokeColor=none;fillColor=none;align=left;verticalAlign=top;spacingLeft=4;spacingRight=4;overflow=hidden;rotatable=0;points=[[0,0.5],[1,0.5]];portConstraint=eastwest;whiteSpace=wrap;html=1;" parent="dm6teemk28US-Uhx1sEG-68" vertex="1">
          <mxGeometry y="190" width="270" height="26" as="geometry" />
        </mxCell>
        <mxCell id="dm6teemk28US-Uhx1sEG-78" value="+ update_profile_picture(picture:bytes):void" style="text;strokeColor=none;fillColor=none;align=left;verticalAlign=top;spacingLeft=4;spacingRight=4;overflow=hidden;rotatable=0;points=[[0,0.5],[1,0.5]];portConstraint=eastwest;whiteSpace=wrap;html=1;" parent="dm6teemk28US-Uhx1sEG-68" vertex="1">
          <mxGeometry y="216" width="270" height="26" as="geometry" />
        </mxCell>
        <mxCell id="dm6teemk28US-Uhx1sEG-79" value="+ update_profile_video(video:bytes):void" style="text;strokeColor=none;fillColor=none;align=left;verticalAlign=top;spacingLeft=4;spacingRight=4;overflow=hidden;rotatable=0;points=[[0,0.5],[1,0.5]];portConstraint=eastwest;whiteSpace=wrap;html=1;" parent="dm6teemk28US-Uhx1sEG-68" vertex="1">
          <mxGeometry y="242" width="270" height="26" as="geometry" />
        </mxCell>
        <mxCell id="6KwpjvI5Y8AULeYpcBRz-1" value="+ follow_artist():void" style="text;strokeColor=none;fillColor=none;align=left;verticalAlign=top;spacingLeft=4;spacingRight=4;overflow=hidden;rotatable=0;points=[[0,0.5],[1,0.5]];portConstraint=eastwest;whiteSpace=wrap;html=1;" parent="dm6teemk28US-Uhx1sEG-68" vertex="1">
          <mxGeometry y="268" width="270" height="26" as="geometry" />
        </mxCell>
        <mxCell id="dm6teemk28US-Uhx1sEG-80" value="CustomerAccount" style="swimlane;fontStyle=1;align=center;verticalAlign=top;childLayout=stackLayout;horizontal=1;startSize=26;horizontalStack=0;resizeParent=1;resizeParentMax=0;resizeLast=0;collapsible=1;marginBottom=0;whiteSpace=wrap;html=1;" parent="WIyWlLk6GJQsqaUBKTNV-1" vertex="1">
          <mxGeometry x="-1096" y="-1892" width="240" height="208" as="geometry" />
        </mxCell>
        <mxCell id="dm6teemk28US-Uhx1sEG-81" value="- wishlist:list[product]" style="text;strokeColor=none;fillColor=none;align=left;verticalAlign=top;spacingLeft=4;spacingRight=4;overflow=hidden;rotatable=0;points=[[0,0.5],[1,0.5]];portConstraint=eastwest;whiteSpace=wrap;html=1;" parent="dm6teemk28US-Uhx1sEG-80" vertex="1">
          <mxGeometry y="26" width="240" height="26" as="geometry" />
        </mxCell>
        <mxCell id="dm6teemk28US-Uhx1sEG-82" value="- order_history: list[order]" style="text;strokeColor=none;fillColor=none;align=left;verticalAlign=top;spacingLeft=4;spacingRight=4;overflow=hidden;rotatable=0;points=[[0,0.5],[1,0.5]];portConstraint=eastwest;whiteSpace=wrap;html=1;" parent="dm6teemk28US-Uhx1sEG-80" vertex="1">
          <mxGeometry y="52" width="240" height="26" as="geometry" />
        </mxCell>
        <mxCell id="IZNv1gLnLJnbKeBYkeAr-1" value="-addresse:String" style="text;strokeColor=none;fillColor=none;align=left;verticalAlign=top;spacingLeft=4;spacingRight=4;overflow=hidden;rotatable=0;points=[[0,0.5],[1,0.5]];portConstraint=eastwest;whiteSpace=wrap;html=1;" parent="dm6teemk28US-Uhx1sEG-80" vertex="1">
          <mxGeometry y="78" width="240" height="26" as="geometry" />
        </mxCell>
        <mxCell id="dm6teemk28US-Uhx1sEG-83" value="" style="line;strokeWidth=1;fillColor=none;align=left;verticalAlign=middle;spacingTop=-1;spacingLeft=3;spacingRight=3;rotatable=0;labelPosition=right;points=[];portConstraint=eastwest;strokeColor=inherit;" parent="dm6teemk28US-Uhx1sEG-80" vertex="1">
          <mxGeometry y="104" width="240" height="8" as="geometry" />
        </mxCell>
        <mxCell id="dm6teemk28US-Uhx1sEG-88" value="+ add_to_wishlist(productId:int):void" style="text;strokeColor=none;fillColor=none;align=left;verticalAlign=top;spacingLeft=4;spacingRight=4;overflow=hidden;rotatable=0;points=[[0,0.5],[1,0.5]];portConstraint=eastwest;whiteSpace=wrap;html=1;" parent="dm6teemk28US-Uhx1sEG-80" vertex="1">
          <mxGeometry y="112" width="240" height="32" as="geometry" />
        </mxCell>
        <mxCell id="dm6teemk28US-Uhx1sEG-89" value="+ remove_from_wishlist(productId:int):void" style="text;strokeColor=none;fillColor=none;align=left;verticalAlign=top;spacingLeft=4;spacingRight=4;overflow=hidden;rotatable=0;points=[[0,0.5],[1,0.5]];portConstraint=eastwest;whiteSpace=wrap;html=1;" parent="dm6teemk28US-Uhx1sEG-80" vertex="1">
          <mxGeometry y="144" width="240" height="32" as="geometry" />
        </mxCell>
        <mxCell id="dm6teemk28US-Uhx1sEG-90" value="+ view_order_history():list" style="text;strokeColor=none;fillColor=none;align=left;verticalAlign=top;spacingLeft=4;spacingRight=4;overflow=hidden;rotatable=0;points=[[0,0.5],[1,0.5]];portConstraint=eastwest;whiteSpace=wrap;html=1;" parent="dm6teemk28US-Uhx1sEG-80" vertex="1">
          <mxGeometry y="176" width="240" height="32" as="geometry" />
        </mxCell>
        <mxCell id="dm6teemk28US-Uhx1sEG-91" value="Report" style="swimlane;fontStyle=1;align=center;verticalAlign=top;childLayout=stackLayout;horizontal=1;startSize=26;horizontalStack=0;resizeParent=1;resizeParentMax=0;resizeLast=0;collapsible=1;marginBottom=0;whiteSpace=wrap;html=1;" parent="WIyWlLk6GJQsqaUBKTNV-1" vertex="1">
          <mxGeometry x="-1820" y="-1580" width="400" height="268" as="geometry" />
        </mxCell>
        <mxCell id="dm6teemk28US-Uhx1sEG-92" value="- reportId:int" style="text;strokeColor=none;fillColor=none;align=left;verticalAlign=top;spacingLeft=4;spacingRight=4;overflow=hidden;rotatable=0;points=[[0,0.5],[1,0.5]];portConstraint=eastwest;whiteSpace=wrap;html=1;" parent="dm6teemk28US-Uhx1sEG-91" vertex="1">
          <mxGeometry y="26" width="400" height="26" as="geometry" />
        </mxCell>
        <mxCell id="dm6teemk28US-Uhx1sEG-93" value="- reporter_id:int" style="text;strokeColor=none;fillColor=none;align=left;verticalAlign=top;spacingLeft=4;spacingRight=4;overflow=hidden;rotatable=0;points=[[0,0.5],[1,0.5]];portConstraint=eastwest;whiteSpace=wrap;html=1;" parent="dm6teemk28US-Uhx1sEG-91" vertex="1">
          <mxGeometry y="52" width="400" height="26" as="geometry" />
        </mxCell>
        <mxCell id="dm6teemk28US-Uhx1sEG-94" value="- reported_account_id:int" style="text;strokeColor=none;fillColor=none;align=left;verticalAlign=top;spacingLeft=4;spacingRight=4;overflow=hidden;rotatable=0;points=[[0,0.5],[1,0.5]];portConstraint=eastwest;whiteSpace=wrap;html=1;" parent="dm6teemk28US-Uhx1sEG-91" vertex="1">
          <mxGeometry y="78" width="400" height="26" as="geometry" />
        </mxCell>
        <mxCell id="dm6teemk28US-Uhx1sEG-95" value="- content:string" style="text;strokeColor=none;fillColor=none;align=left;verticalAlign=top;spacingLeft=4;spacingRight=4;overflow=hidden;rotatable=0;points=[[0,0.5],[1,0.5]];portConstraint=eastwest;whiteSpace=wrap;html=1;" parent="dm6teemk28US-Uhx1sEG-91" vertex="1">
          <mxGeometry y="104" width="400" height="26" as="geometry" />
        </mxCell>
        <mxCell id="dm6teemk28US-Uhx1sEG-96" value="- status:EUM(PENDING,REVIEWED,RESOLVED)" style="text;strokeColor=none;fillColor=none;align=left;verticalAlign=top;spacingLeft=4;spacingRight=4;overflow=hidden;rotatable=0;points=[[0,0.5],[1,0.5]];portConstraint=eastwest;whiteSpace=wrap;html=1;" parent="dm6teemk28US-Uhx1sEG-91" vertex="1">
          <mxGeometry y="130" width="400" height="26" as="geometry" />
        </mxCell>
        <mxCell id="dm6teemk28US-Uhx1sEG-97" value="- adminId:int" style="text;strokeColor=none;fillColor=none;align=left;verticalAlign=top;spacingLeft=4;spacingRight=4;overflow=hidden;rotatable=0;points=[[0,0.5],[1,0.5]];portConstraint=eastwest;whiteSpace=wrap;html=1;" parent="dm6teemk28US-Uhx1sEG-91" vertex="1">
          <mxGeometry y="156" width="400" height="26" as="geometry" />
        </mxCell>
        <mxCell id="dm6teemk28US-Uhx1sEG-98" value="" style="line;strokeWidth=1;fillColor=none;align=left;verticalAlign=middle;spacingTop=-1;spacingLeft=3;spacingRight=3;rotatable=0;labelPosition=right;points=[];portConstraint=eastwest;strokeColor=inherit;" parent="dm6teemk28US-Uhx1sEG-91" vertex="1">
          <mxGeometry y="182" width="400" height="8" as="geometry" />
        </mxCell>
        <mxCell id="dm6teemk28US-Uhx1sEG-99" value="+ submit_report(reporterId:int,reported_account_id:int,content:string):void" style="text;strokeColor=none;fillColor=none;align=left;verticalAlign=top;spacingLeft=4;spacingRight=4;overflow=hidden;rotatable=0;points=[[0,0.5],[1,0.5]];portConstraint=eastwest;whiteSpace=wrap;html=1;" parent="dm6teemk28US-Uhx1sEG-91" vertex="1">
          <mxGeometry y="190" width="400" height="26" as="geometry" />
        </mxCell>
        <mxCell id="dm6teemk28US-Uhx1sEG-100" value="+get_report():Report" style="text;strokeColor=none;fillColor=none;align=left;verticalAlign=top;spacingLeft=4;spacingRight=4;overflow=hidden;rotatable=0;points=[[0,0.5],[1,0.5]];portConstraint=eastwest;whiteSpace=wrap;html=1;" parent="dm6teemk28US-Uhx1sEG-91" vertex="1">
          <mxGeometry y="216" width="400" height="26" as="geometry" />
        </mxCell>
        <mxCell id="dm6teemk28US-Uhx1sEG-101" value="+ update_status(new_status):void" style="text;strokeColor=none;fillColor=none;align=left;verticalAlign=top;spacingLeft=4;spacingRight=4;overflow=hidden;rotatable=0;points=[[0,0.5],[1,0.5]];portConstraint=eastwest;whiteSpace=wrap;html=1;" parent="dm6teemk28US-Uhx1sEG-91" vertex="1">
          <mxGeometry y="242" width="400" height="26" as="geometry" />
        </mxCell>
        <mxCell id="dm6teemk28US-Uhx1sEG-103" value="" style="endArrow=open;html=1;endSize=12;startArrow=diamondThin;startSize=14;startFill=0;edgeStyle=orthogonalEdgeStyle;align=left;verticalAlign=bottom;rounded=0;exitX=0.5;exitY=0;exitDx=0;exitDy=0;" parent="WIyWlLk6GJQsqaUBKTNV-1" source="dm6teemk28US-Uhx1sEG-91" target="dm6teemk28US-Uhx1sEG-62" edge="1">
          <mxGeometry x="-1" y="3" relative="1" as="geometry">
            <mxPoint x="-1655" y="-1638" as="sourcePoint" />
            <mxPoint x="-1495" y="-1638" as="targetPoint" />
          </mxGeometry>
        </mxCell>
        <mxCell id="dm6teemk28US-Uhx1sEG-104" value="" style="endArrow=open;html=1;endSize=12;startArrow=diamondThin;startSize=14;startFill=0;edgeStyle=orthogonalEdgeStyle;align=left;verticalAlign=bottom;rounded=0;" parent="WIyWlLk6GJQsqaUBKTNV-1" source="dm6teemk28US-Uhx1sEG-91" target="dm6teemk28US-Uhx1sEG-68" edge="1">
          <mxGeometry x="-1" y="3" relative="1" as="geometry">
            <mxPoint x="-1404" y="-1478" as="sourcePoint" />
            <mxPoint x="-1244" y="-1478" as="targetPoint" />
          </mxGeometry>
        </mxCell>
        <mxCell id="dm6teemk28US-Uhx1sEG-106" value="" style="endArrow=open;html=1;endSize=12;startArrow=diamondThin;startSize=14;startFill=0;edgeStyle=orthogonalEdgeStyle;align=left;verticalAlign=bottom;rounded=0;" parent="WIyWlLk6GJQsqaUBKTNV-1" source="dm6teemk28US-Uhx1sEG-91" target="dm6teemk28US-Uhx1sEG-80" edge="1">
          <mxGeometry x="-1" y="3" relative="1" as="geometry">
            <mxPoint x="-1274" y="-1398" as="sourcePoint" />
            <mxPoint x="-1114" y="-1398" as="targetPoint" />
            <Array as="points">
              <mxPoint x="-1020" y="-1433" />
            </Array>
          </mxGeometry>
        </mxCell>
        <mxCell id="dm6teemk28US-Uhx1sEG-107" value="&lt;font style=&quot;font-size: 17px;&quot;&gt;Use&lt;/font&gt;" style="endArrow=open;endSize=12;dashed=1;html=1;rounded=0;entryX=0.401;entryY=0.06;entryDx=0;entryDy=0;entryPerimeter=0;exitX=0.401;exitY=0.06;exitDx=0;exitDy=0;exitPerimeter=0;" parent="WIyWlLk6GJQsqaUBKTNV-1" source="bvaL93AAkVeGiQjm07bp-16" edge="1">
          <mxGeometry x="-0.5605" y="-7" width="160" relative="1" as="geometry">
            <mxPoint x="-560" y="-2250" as="sourcePoint" />
            <mxPoint x="-243" y="-2340" as="targetPoint" />
            <Array as="points" />
            <mxPoint as="offset" />
          </mxGeometry>
        </mxCell>
        <mxCell id="dm6teemk28US-Uhx1sEG-109" value="&lt;font style=&quot;font-size: 17px;&quot;&gt;Use&lt;/font&gt;" style="endArrow=open;endSize=12;dashed=1;html=1;rounded=0;exitX=0.992;exitY=0.999;exitDx=0;exitDy=0;exitPerimeter=0;entryX=0.044;entryY=0.004;entryDx=0;entryDy=0;entryPerimeter=0;" parent="WIyWlLk6GJQsqaUBKTNV-1" source="Q5uJ2qeS1NoMDb9aisBC-40" target="bvaL93AAkVeGiQjm07bp-16" edge="1">
          <mxGeometry width="160" relative="1" as="geometry">
            <mxPoint x="-610" y="-2270" as="sourcePoint" />
            <mxPoint x="-450" y="-2270" as="targetPoint" />
          </mxGeometry>
        </mxCell>
        <mxCell id="dm6teemk28US-Uhx1sEG-110" value="" style="endArrow=block;dashed=1;endFill=0;endSize=12;html=1;rounded=0;entryX=0.653;entryY=1;entryDx=0;entryDy=0;entryPerimeter=0;" parent="WIyWlLk6GJQsqaUBKTNV-1" target="bvaL93AAkVeGiQjm07bp-16" edge="1">
          <mxGeometry width="160" relative="1" as="geometry">
            <mxPoint x="-80" y="-1610" as="sourcePoint" />
            <mxPoint x="-80" y="-1650" as="targetPoint" />
          </mxGeometry>
        </mxCell>
        <mxCell id="dm6teemk28US-Uhx1sEG-112" value="&lt;font style=&quot;font-size: 17px;&quot;&gt;create&lt;/font&gt;" style="text;html=1;strokeColor=none;fillColor=none;align=center;verticalAlign=middle;whiteSpace=wrap;rounded=0;" parent="WIyWlLk6GJQsqaUBKTNV-1" vertex="1">
          <mxGeometry x="-80" y="-1660" width="60" height="30" as="geometry" />
        </mxCell>
        <mxCell id="3v67DcRXdjY68_tkPweE-0" value="" style="endArrow=block;endSize=10;endFill=0;shadow=0;strokeWidth=1;rounded=0;curved=0;edgeStyle=elbowEdgeStyle;elbow=vertical;exitX=0.4;exitY=0.011;exitDx=0;exitDy=0;exitPerimeter=0;entryX=0.561;entryY=1.108;entryDx=0;entryDy=0;entryPerimeter=0;" parent="WIyWlLk6GJQsqaUBKTNV-1" source="dm6teemk28US-Uhx1sEG-80" target="K0LZEwd1qcSagDW5QjRj-1" edge="1">
          <mxGeometry width="160" relative="1" as="geometry">
            <mxPoint x="-1000" y="-1900" as="sourcePoint" />
            <mxPoint x="-1280" y="-1940" as="targetPoint" />
            <Array as="points">
              <mxPoint x="-1330" y="-1900" />
            </Array>
          </mxGeometry>
        </mxCell>
        <mxCell id="3v67DcRXdjY68_tkPweE-3" value="" style="endArrow=block;endSize=10;endFill=0;shadow=0;strokeWidth=1;rounded=0;curved=0;edgeStyle=elbowEdgeStyle;elbow=vertical;entryX=0.123;entryY=1.077;entryDx=0;entryDy=0;entryPerimeter=0;" parent="WIyWlLk6GJQsqaUBKTNV-1" source="dm6teemk28US-Uhx1sEG-62" target="K0LZEwd1qcSagDW5QjRj-1" edge="1">
          <mxGeometry width="160" relative="1" as="geometry">
            <mxPoint x="-1470" y="-1848" as="sourcePoint" />
            <mxPoint x="-1380" y="-1940" as="targetPoint" />
          </mxGeometry>
        </mxCell>
        <mxCell id="3v67DcRXdjY68_tkPweE-5" value="" style="endArrow=block;endSize=10;endFill=0;shadow=0;strokeWidth=1;rounded=0;curved=0;edgeStyle=elbowEdgeStyle;elbow=vertical;exitX=0.286;exitY=1.14;exitDx=0;exitDy=0;exitPerimeter=0;entryX=0.342;entryY=1.108;entryDx=0;entryDy=0;entryPerimeter=0;" parent="WIyWlLk6GJQsqaUBKTNV-1" target="K0LZEwd1qcSagDW5QjRj-1" edge="1">
          <mxGeometry width="160" relative="1" as="geometry">
            <mxPoint x="-1314.5" y="-1878" as="sourcePoint" />
            <mxPoint x="-1330" y="-1940" as="targetPoint" />
          </mxGeometry>
        </mxCell>
        <mxCell id="3v67DcRXdjY68_tkPweE-6" value="" style="endArrow=open;endFill=1;endSize=12;html=1;rounded=0;entryX=1;entryY=0.5;entryDx=0;entryDy=0;" parent="WIyWlLk6GJQsqaUBKTNV-1" edge="1">
          <mxGeometry width="160" relative="1" as="geometry">
            <mxPoint x="-100" y="-2020" as="sourcePoint" />
            <mxPoint x="-190" y="-2019" as="targetPoint" />
            <Array as="points">
              <mxPoint x="-150" y="-2019" />
            </Array>
          </mxGeometry>
        </mxCell>
        <mxCell id="3v67DcRXdjY68_tkPweE-11" value="1..*" style="text;html=1;align=center;verticalAlign=middle;whiteSpace=wrap;rounded=0;" parent="WIyWlLk6GJQsqaUBKTNV-1" vertex="1">
          <mxGeometry x="-207.5" y="-2049.5" width="60" height="30" as="geometry" />
        </mxCell>
        <mxCell id="3v67DcRXdjY68_tkPweE-12" value="" style="endArrow=open;endFill=1;endSize=12;html=1;rounded=0;entryX=1;entryY=0.5;entryDx=0;entryDy=0;" parent="WIyWlLk6GJQsqaUBKTNV-1" target="UPpW3QvQ503PZCW4TQQM-19" edge="1">
          <mxGeometry width="160" relative="1" as="geometry">
            <mxPoint x="670" y="-2188" as="sourcePoint" />
            <mxPoint x="550" y="-2190" as="targetPoint" />
            <Array as="points">
              <mxPoint x="670" y="-2155" />
            </Array>
          </mxGeometry>
        </mxCell>
        <mxCell id="A3RSYJNHKTK07t-ZciKc-0" value="" style="shape=folder;fontStyle=1;spacingTop=10;tabWidth=40;tabHeight=14;tabPosition=left;html=1;whiteSpace=wrap;" parent="WIyWlLk6GJQsqaUBKTNV-1" vertex="1">
          <mxGeometry x="-2370" y="-850" width="1340" height="970" as="geometry" />
        </mxCell>
        <mxCell id="A3RSYJNHKTK07t-ZciKc-1" value="SimpleProduct" style="swimlane;fontStyle=0;align=center;verticalAlign=top;childLayout=stackLayout;horizontal=1;startSize=26;horizontalStack=0;resizeParent=1;resizeLast=0;collapsible=1;marginBottom=0;rounded=0;shadow=0;strokeWidth=1;" parent="WIyWlLk6GJQsqaUBKTNV-1" vertex="1">
          <mxGeometry x="-1960" y="-660" width="440" height="280" as="geometry">
            <mxRectangle x="130" y="380" width="160" height="26" as="alternateBounds" />
          </mxGeometry>
        </mxCell>
        <mxCell id="A3RSYJNHKTK07t-ZciKc-2" value="- Id: int" style="text;align=left;verticalAlign=top;spacingLeft=4;spacingRight=4;overflow=hidden;rotatable=0;points=[[0,0.5],[1,0.5]];portConstraint=eastwest;" parent="A3RSYJNHKTK07t-ZciKc-1" vertex="1">
          <mxGeometry y="26" width="440" height="26" as="geometry" />
        </mxCell>
        <mxCell id="A3RSYJNHKTK07t-ZciKc-3" value="- name: String" style="text;align=left;verticalAlign=top;spacingLeft=4;spacingRight=4;overflow=hidden;rotatable=0;points=[[0,0.5],[1,0.5]];portConstraint=eastwest;rounded=0;shadow=0;html=0;" parent="A3RSYJNHKTK07t-ZciKc-1" vertex="1">
          <mxGeometry y="52" width="440" height="26" as="geometry" />
        </mxCell>
        <mxCell id="A3RSYJNHKTK07t-ZciKc-4" value="- category:Category" style="text;align=left;verticalAlign=top;spacingLeft=4;spacingRight=4;overflow=hidden;rotatable=0;points=[[0,0.5],[1,0.5]];portConstraint=eastwest;rounded=0;shadow=0;html=0;" parent="A3RSYJNHKTK07t-ZciKc-1" vertex="1">
          <mxGeometry y="78" width="440" height="26" as="geometry" />
        </mxCell>
        <mxCell id="A3RSYJNHKTK07t-ZciKc-5" value="- description: String" style="text;align=left;verticalAlign=top;spacingLeft=4;spacingRight=4;overflow=hidden;rotatable=0;points=[[0,0.5],[1,0.5]];portConstraint=eastwest;rounded=0;shadow=0;html=0;" parent="A3RSYJNHKTK07t-ZciKc-1" vertex="1">
          <mxGeometry y="104" width="440" height="26" as="geometry" />
        </mxCell>
        <mxCell id="A3RSYJNHKTK07t-ZciKc-6" value="- price: Float" style="text;align=left;verticalAlign=top;spacingLeft=4;spacingRight=4;overflow=hidden;rotatable=0;points=[[0,0.5],[1,0.5]];portConstraint=eastwest;rounded=0;shadow=0;html=0;" parent="A3RSYJNHKTK07t-ZciKc-1" vertex="1">
          <mxGeometry y="130" width="440" height="26" as="geometry" />
        </mxCell>
        <mxCell id="A3RSYJNHKTK07t-ZciKc-7" value="- quantityAvailable:int" style="text;align=left;verticalAlign=top;spacingLeft=4;spacingRight=4;overflow=hidden;rotatable=0;points=[[0,0.5],[1,0.5]];portConstraint=eastwest;rounded=0;shadow=0;html=0;" parent="A3RSYJNHKTK07t-ZciKc-1" vertex="1">
          <mxGeometry y="156" width="440" height="26" as="geometry" />
        </mxCell>
        <mxCell id="A3RSYJNHKTK07t-ZciKc-9" value="- images: List&lt;String&gt;" style="text;align=left;verticalAlign=top;spacingLeft=4;spacingRight=4;overflow=hidden;rotatable=0;points=[[0,0.5],[1,0.5]];portConstraint=eastwest;rounded=0;shadow=0;html=0;" parent="A3RSYJNHKTK07t-ZciKc-1" vertex="1">
          <mxGeometry y="182" width="440" height="26" as="geometry" />
        </mxCell>
        <mxCell id="6KwpjvI5Y8AULeYpcBRz-10" value="- rating : float" style="text;strokeColor=none;fillColor=none;align=left;verticalAlign=top;spacingLeft=4;spacingRight=4;overflow=hidden;rotatable=0;points=[[0,0.5],[1,0.5]];portConstraint=eastwest;whiteSpace=wrap;html=1;" parent="A3RSYJNHKTK07t-ZciKc-1" vertex="1">
          <mxGeometry y="208" width="440" height="26" as="geometry" />
        </mxCell>
        <mxCell id="A3RSYJNHKTK07t-ZciKc-11" value="" style="line;html=1;strokeWidth=1;align=left;verticalAlign=middle;spacingTop=-1;spacingLeft=3;spacingRight=3;rotatable=0;labelPosition=right;points=[];portConstraint=eastwest;" parent="A3RSYJNHKTK07t-ZciKc-1" vertex="1">
          <mxGeometry y="234" width="440" height="8" as="geometry" />
        </mxCell>
        <object label="Category" id="A3RSYJNHKTK07t-ZciKc-21">
          <mxCell style="swimlane;fontStyle=0;align=center;verticalAlign=top;childLayout=stackLayout;horizontal=1;startSize=26;horizontalStack=0;resizeParent=1;resizeLast=0;collapsible=1;marginBottom=0;rounded=0;shadow=0;strokeWidth=1;" parent="WIyWlLk6GJQsqaUBKTNV-1" vertex="1">
            <mxGeometry x="-2320" y="-680" width="275" height="124" as="geometry">
              <mxRectangle x="340" y="380" width="170" height="26" as="alternateBounds" />
            </mxGeometry>
          </mxCell>
        </object>
        <mxCell id="A3RSYJNHKTK07t-ZciKc-22" value="id: int " style="text;align=left;verticalAlign=top;spacingLeft=4;spacingRight=4;overflow=hidden;rotatable=0;points=[[0,0.5],[1,0.5]];portConstraint=eastwest;" parent="A3RSYJNHKTK07t-ZciKc-21" vertex="1">
          <mxGeometry y="26" width="275" height="26" as="geometry" />
        </mxCell>
        <mxCell id="A3RSYJNHKTK07t-ZciKc-23" value="name: String" style="text;align=left;verticalAlign=top;spacingLeft=4;spacingRight=4;overflow=hidden;rotatable=0;points=[[0,0.5],[1,0.5]];portConstraint=eastwest;" parent="A3RSYJNHKTK07t-ZciKc-21" vertex="1">
          <mxGeometry y="52" width="275" height="26" as="geometry" />
        </mxCell>
        <mxCell id="A3RSYJNHKTK07t-ZciKc-25" value="status: enum" style="text;align=left;verticalAlign=top;spacingLeft=4;spacingRight=4;overflow=hidden;rotatable=0;points=[[0,0.5],[1,0.5]];portConstraint=eastwest;" parent="A3RSYJNHKTK07t-ZciKc-21" vertex="1">
          <mxGeometry y="78" width="275" height="26" as="geometry" />
        </mxCell>
        <mxCell id="A3RSYJNHKTK07t-ZciKc-26" value="" style="line;html=1;strokeWidth=1;align=left;verticalAlign=middle;spacingTop=-1;spacingLeft=3;spacingRight=3;rotatable=0;labelPosition=right;points=[];portConstraint=eastwest;" parent="A3RSYJNHKTK07t-ZciKc-21" vertex="1">
          <mxGeometry y="104" width="275" height="20" as="geometry" />
        </mxCell>
        <mxCell id="A3RSYJNHKTK07t-ZciKc-32" value="" style="endArrow=classic;html=1;rounded=0;exitX=1.004;exitY=0.246;exitDx=0;exitDy=0;exitPerimeter=0;" parent="WIyWlLk6GJQsqaUBKTNV-1" source="A3RSYJNHKTK07t-ZciKc-23" edge="1">
          <mxGeometry width="50" height="50" relative="1" as="geometry">
            <mxPoint x="-1730" y="-1690" as="sourcePoint" />
            <mxPoint x="-1960" y="-620" as="targetPoint" />
          </mxGeometry>
        </mxCell>
        <mxCell id="A3RSYJNHKTK07t-ZciKc-33" value="&lt;span style=&quot;color: rgb(0, 0, 0); font-family: Helvetica; font-size: 12px; font-style: normal; font-variant-ligatures: normal; font-variant-caps: normal; font-weight: 400; letter-spacing: normal; orphans: 2; text-align: left; text-indent: 0px; text-transform: none; widows: 2; word-spacing: 0px; -webkit-text-stroke-width: 0px; white-space: nowrap; background-color: rgb(251, 251, 251); text-decoration-thickness: initial; text-decoration-style: initial; text-decoration-color: initial; display: inline !important; float: none;&quot;&gt;1..*&lt;/span&gt;" style="text;whiteSpace=wrap;html=1;" parent="WIyWlLk6GJQsqaUBKTNV-1" vertex="1">
          <mxGeometry x="-1990" y="-624" width="50" height="40" as="geometry" />
        </mxCell>
        <mxCell id="A3RSYJNHKTK07t-ZciKc-50" value="" style="endArrow=diamondThin;endFill=0;endSize=24;html=1;rounded=0;fontFamily=Helvetica;fontSize=12;fontColor=default;fontStyle=0;" parent="WIyWlLk6GJQsqaUBKTNV-1" target="94fiQG-NUgiilBV_E3z4-2" edge="1">
          <mxGeometry width="160" relative="1" as="geometry">
            <mxPoint x="-1590" y="-770" as="sourcePoint" />
            <mxPoint x="-1389" y="-725" as="targetPoint" />
            <Array as="points">
              <mxPoint x="-1389" y="-770" />
            </Array>
          </mxGeometry>
        </mxCell>
        <mxCell id="A3RSYJNHKTK07t-ZciKc-51" value=" " style="shape=folder;fontStyle=1;spacingTop=10;tabWidth=40;tabHeight=14;tabPosition=left;html=1;whiteSpace=wrap;" parent="WIyWlLk6GJQsqaUBKTNV-1" vertex="1">
          <mxGeometry x="-804" y="-834" width="740" height="500" as="geometry" />
        </mxCell>
        <mxCell id="A3RSYJNHKTK07t-ZciKc-52" value="CustomizationRequset" style="swimlane;fontStyle=1;align=center;verticalAlign=top;childLayout=stackLayout;horizontal=1;startSize=26;horizontalStack=0;resizeParent=1;resizeParentMax=0;resizeLast=0;collapsible=1;marginBottom=0;whiteSpace=wrap;html=1;strokeColor=default;fontFamily=Helvetica;fontSize=12;fontColor=default;fillColor=none;" parent="WIyWlLk6GJQsqaUBKTNV-1" vertex="1">
          <mxGeometry x="-460" y="-800" width="300" height="294" as="geometry" />
        </mxCell>
        <mxCell id="A3RSYJNHKTK07t-ZciKc-53" value="&lt;span style=&quot;text-wrap: nowrap;&quot;&gt;- Id: int&lt;/span&gt;" style="text;strokeColor=none;fillColor=none;align=left;verticalAlign=top;spacingLeft=4;spacingRight=4;overflow=hidden;rotatable=0;points=[[0,0.5],[1,0.5]];portConstraint=eastwest;whiteSpace=wrap;html=1;fontFamily=Helvetica;fontSize=12;fontColor=default;fontStyle=0;" parent="A3RSYJNHKTK07t-ZciKc-52" vertex="1">
          <mxGeometry y="26" width="300" height="26" as="geometry" />
        </mxCell>
        <mxCell id="A3RSYJNHKTK07t-ZciKc-54" value="&lt;span style=&quot;text-wrap: nowrap;&quot;&gt;- title:String&lt;/span&gt;" style="text;strokeColor=none;fillColor=none;align=left;verticalAlign=top;spacingLeft=4;spacingRight=4;overflow=hidden;rotatable=0;points=[[0,0.5],[1,0.5]];portConstraint=eastwest;whiteSpace=wrap;html=1;fontFamily=Helvetica;fontSize=12;fontColor=default;fontStyle=0;" parent="A3RSYJNHKTK07t-ZciKc-52" vertex="1">
          <mxGeometry y="52" width="300" height="26" as="geometry" />
        </mxCell>
        <mxCell id="A3RSYJNHKTK07t-ZciKc-55" value="&lt;span style=&quot;text-wrap: nowrap;&quot;&gt;- description:String&lt;/span&gt;" style="text;strokeColor=none;fillColor=none;align=left;verticalAlign=top;spacingLeft=4;spacingRight=4;overflow=hidden;rotatable=0;points=[[0,0.5],[1,0.5]];portConstraint=eastwest;whiteSpace=wrap;html=1;fontFamily=Helvetica;fontSize=12;fontColor=default;fontStyle=0;" parent="A3RSYJNHKTK07t-ZciKc-52" vertex="1">
          <mxGeometry y="78" width="300" height="26" as="geometry" />
        </mxCell>
        <mxCell id="A3RSYJNHKTK07t-ZciKc-56" value="&lt;span style=&quot;text-wrap: nowrap;&quot;&gt;- customerId:int&lt;/span&gt;" style="text;strokeColor=none;fillColor=none;align=left;verticalAlign=top;spacingLeft=4;spacingRight=4;overflow=hidden;rotatable=0;points=[[0,0.5],[1,0.5]];portConstraint=eastwest;whiteSpace=wrap;html=1;fontFamily=Helvetica;fontSize=12;fontColor=default;fontStyle=0;" parent="A3RSYJNHKTK07t-ZciKc-52" vertex="1">
          <mxGeometry y="104" width="300" height="26" as="geometry" />
        </mxCell>
        <mxCell id="A3RSYJNHKTK07t-ZciKc-57" value="&lt;span style=&quot;text-wrap: nowrap;&quot;&gt;- orderId:int&lt;/span&gt;" style="text;strokeColor=none;fillColor=none;align=left;verticalAlign=top;spacingLeft=4;spacingRight=4;overflow=hidden;rotatable=0;points=[[0,0.5],[1,0.5]];portConstraint=eastwest;whiteSpace=wrap;html=1;fontFamily=Helvetica;fontSize=12;fontColor=default;fontStyle=0;" parent="A3RSYJNHKTK07t-ZciKc-52" vertex="1">
          <mxGeometry y="130" width="300" height="26" as="geometry" />
        </mxCell>
        <mxCell id="A3RSYJNHKTK07t-ZciKc-58" value="&lt;span style=&quot;text-wrap: nowrap;&quot;&gt;- status:enum&lt;/span&gt;" style="text;strokeColor=none;fillColor=none;align=left;verticalAlign=top;spacingLeft=4;spacingRight=4;overflow=hidden;rotatable=0;points=[[0,0.5],[1,0.5]];portConstraint=eastwest;whiteSpace=wrap;html=1;fontFamily=Helvetica;fontSize=12;fontColor=default;fontStyle=0;" parent="A3RSYJNHKTK07t-ZciKc-52" vertex="1">
          <mxGeometry y="156" width="300" height="26" as="geometry" />
        </mxCell>
        <mxCell id="A3RSYJNHKTK07t-ZciKc-59" value="&lt;span style=&quot;text-wrap: nowrap;&quot;&gt;- responses:List&amp;lt;Offer&amp;gt;&lt;/span&gt;" style="text;strokeColor=none;fillColor=none;align=left;verticalAlign=top;spacingLeft=4;spacingRight=4;overflow=hidden;rotatable=0;points=[[0,0.5],[1,0.5]];portConstraint=eastwest;whiteSpace=wrap;html=1;fontFamily=Helvetica;fontSize=12;fontColor=default;fontStyle=0;" parent="A3RSYJNHKTK07t-ZciKc-52" vertex="1">
          <mxGeometry y="182" width="300" height="26" as="geometry" />
        </mxCell>
        <mxCell id="A3RSYJNHKTK07t-ZciKc-60" value="&lt;span style=&quot;text-wrap: nowrap;&quot;&gt;- image:String&lt;/span&gt;" style="text;strokeColor=none;fillColor=none;align=left;verticalAlign=top;spacingLeft=4;spacingRight=4;overflow=hidden;rotatable=0;points=[[0,0.5],[1,0.5]];portConstraint=eastwest;whiteSpace=wrap;html=1;fontFamily=Helvetica;fontSize=12;fontColor=default;fontStyle=0;" parent="A3RSYJNHKTK07t-ZciKc-52" vertex="1">
          <mxGeometry y="208" width="300" height="26" as="geometry" />
        </mxCell>
        <mxCell id="A3RSYJNHKTK07t-ZciKc-61" value="&lt;span style=&quot;text-wrap: nowrap;&quot;&gt;- requestDate:date&lt;/span&gt;" style="text;strokeColor=none;fillColor=none;align=left;verticalAlign=top;spacingLeft=4;spacingRight=4;overflow=hidden;rotatable=0;points=[[0,0.5],[1,0.5]];portConstraint=eastwest;whiteSpace=wrap;html=1;fontFamily=Helvetica;fontSize=12;fontColor=default;fontStyle=0;" parent="A3RSYJNHKTK07t-ZciKc-52" vertex="1">
          <mxGeometry y="234" width="300" height="26" as="geometry" />
        </mxCell>
        <mxCell id="A3RSYJNHKTK07t-ZciKc-62" value="" style="line;strokeWidth=1;fillColor=none;align=left;verticalAlign=middle;spacingTop=-1;spacingLeft=3;spacingRight=3;rotatable=0;labelPosition=right;points=[];portConstraint=eastwest;strokeColor=inherit;fontFamily=Helvetica;fontSize=12;fontColor=default;fontStyle=0;" parent="A3RSYJNHKTK07t-ZciKc-52" vertex="1">
          <mxGeometry y="260" width="300" height="8" as="geometry" />
        </mxCell>
        <mxCell id="A3RSYJNHKTK07t-ZciKc-63" value="+ getRequestDetails()" style="text;strokeColor=none;fillColor=none;align=left;verticalAlign=top;spacingLeft=4;spacingRight=4;overflow=hidden;rotatable=0;points=[[0,0.5],[1,0.5]];portConstraint=eastwest;whiteSpace=wrap;html=1;fontFamily=Helvetica;fontSize=12;fontColor=default;fontStyle=0;" parent="A3RSYJNHKTK07t-ZciKc-52" vertex="1">
          <mxGeometry y="268" width="300" height="26" as="geometry" />
        </mxCell>
        <mxCell id="A3RSYJNHKTK07t-ZciKc-64" value="&lt;div style=&quot;text-align: left;&quot;&gt;&lt;span style=&quot;background-color: initial; font-weight: 400; text-wrap: nowrap;&quot;&gt;Offer&lt;/span&gt;&lt;/div&gt;" style="swimlane;fontStyle=1;align=center;verticalAlign=top;childLayout=stackLayout;horizontal=1;startSize=26;horizontalStack=0;resizeParent=1;resizeParentMax=0;resizeLast=0;collapsible=1;marginBottom=0;whiteSpace=wrap;html=1;strokeColor=default;fontFamily=Helvetica;fontSize=12;fontColor=default;fillColor=none;" parent="WIyWlLk6GJQsqaUBKTNV-1" vertex="1">
          <mxGeometry x="-748" y="-787" width="164" height="268" as="geometry" />
        </mxCell>
        <mxCell id="A3RSYJNHKTK07t-ZciKc-65" value="&lt;span style=&quot;text-wrap: nowrap;&quot;&gt;- Id: int&lt;/span&gt;" style="text;strokeColor=none;fillColor=none;align=left;verticalAlign=top;spacingLeft=4;spacingRight=4;overflow=hidden;rotatable=0;points=[[0,0.5],[1,0.5]];portConstraint=eastwest;whiteSpace=wrap;html=1;fontFamily=Helvetica;fontSize=12;fontColor=default;fontStyle=0;" parent="A3RSYJNHKTK07t-ZciKc-64" vertex="1">
          <mxGeometry y="26" width="164" height="26" as="geometry" />
        </mxCell>
        <mxCell id="A3RSYJNHKTK07t-ZciKc-66" value="&lt;span style=&quot;text-wrap: nowrap;&quot;&gt;- offerId: int&lt;/span&gt;" style="text;strokeColor=none;fillColor=none;align=left;verticalAlign=top;spacingLeft=4;spacingRight=4;overflow=hidden;rotatable=0;points=[[0,0.5],[1,0.5]];portConstraint=eastwest;whiteSpace=wrap;html=1;fontFamily=Helvetica;fontSize=12;fontColor=default;fontStyle=0;" parent="A3RSYJNHKTK07t-ZciKc-64" vertex="1">
          <mxGeometry y="52" width="164" height="26" as="geometry" />
        </mxCell>
        <mxCell id="A3RSYJNHKTK07t-ZciKc-67" value="&lt;span style=&quot;text-wrap: nowrap;&quot;&gt;- artistId:int&lt;/span&gt;" style="text;strokeColor=none;fillColor=none;align=left;verticalAlign=top;spacingLeft=4;spacingRight=4;overflow=hidden;rotatable=0;points=[[0,0.5],[1,0.5]];portConstraint=eastwest;whiteSpace=wrap;html=1;fontFamily=Helvetica;fontSize=12;fontColor=default;fontStyle=0;" parent="A3RSYJNHKTK07t-ZciKc-64" vertex="1">
          <mxGeometry y="78" width="164" height="26" as="geometry" />
        </mxCell>
        <mxCell id="A3RSYJNHKTK07t-ZciKc-68" value="&lt;span style=&quot;text-wrap: nowrap;&quot;&gt;- price: float&lt;/span&gt;" style="text;strokeColor=none;fillColor=none;align=left;verticalAlign=top;spacingLeft=4;spacingRight=4;overflow=hidden;rotatable=0;points=[[0,0.5],[1,0.5]];portConstraint=eastwest;whiteSpace=wrap;html=1;fontFamily=Helvetica;fontSize=12;fontColor=default;fontStyle=0;" parent="A3RSYJNHKTK07t-ZciKc-64" vertex="1">
          <mxGeometry y="104" width="164" height="26" as="geometry" />
        </mxCell>
        <mxCell id="A3RSYJNHKTK07t-ZciKc-69" value="&lt;span style=&quot;text-wrap: nowrap;&quot;&gt;- estimationCompletion: date&lt;/span&gt;" style="text;strokeColor=none;fillColor=none;align=left;verticalAlign=top;spacingLeft=4;spacingRight=4;overflow=hidden;rotatable=0;points=[[0,0.5],[1,0.5]];portConstraint=eastwest;whiteSpace=wrap;html=1;fontFamily=Helvetica;fontSize=12;fontColor=default;fontStyle=0;" parent="A3RSYJNHKTK07t-ZciKc-64" vertex="1">
          <mxGeometry y="130" width="164" height="26" as="geometry" />
        </mxCell>
        <mxCell id="A3RSYJNHKTK07t-ZciKc-70" value="&lt;span style=&quot;text-wrap: nowrap;&quot;&gt;- status:enum&lt;/span&gt;" style="text;strokeColor=none;fillColor=none;align=left;verticalAlign=top;spacingLeft=4;spacingRight=4;overflow=hidden;rotatable=0;points=[[0,0.5],[1,0.5]];portConstraint=eastwest;whiteSpace=wrap;html=1;fontFamily=Helvetica;fontSize=12;fontColor=default;fontStyle=0;" parent="A3RSYJNHKTK07t-ZciKc-64" vertex="1">
          <mxGeometry y="156" width="164" height="26" as="geometry" />
        </mxCell>
        <mxCell id="A3RSYJNHKTK07t-ZciKc-71" value="&lt;span style=&quot;text-wrap: nowrap;&quot;&gt;- responseDate:date&lt;/span&gt;" style="text;strokeColor=none;fillColor=none;align=left;verticalAlign=top;spacingLeft=4;spacingRight=4;overflow=hidden;rotatable=0;points=[[0,0.5],[1,0.5]];portConstraint=eastwest;whiteSpace=wrap;html=1;fontFamily=Helvetica;fontSize=12;fontColor=default;fontStyle=0;" parent="A3RSYJNHKTK07t-ZciKc-64" vertex="1">
          <mxGeometry y="182" width="164" height="26" as="geometry" />
        </mxCell>
        <mxCell id="A3RSYJNHKTK07t-ZciKc-72" value="&lt;span style=&quot;text-wrap: nowrap;&quot;&gt;- notes:String&lt;/span&gt;" style="text;strokeColor=none;fillColor=none;align=left;verticalAlign=top;spacingLeft=4;spacingRight=4;overflow=hidden;rotatable=0;points=[[0,0.5],[1,0.5]];portConstraint=eastwest;whiteSpace=wrap;html=1;fontFamily=Helvetica;fontSize=12;fontColor=default;fontStyle=0;" parent="A3RSYJNHKTK07t-ZciKc-64" vertex="1">
          <mxGeometry y="208" width="164" height="26" as="geometry" />
        </mxCell>
        <mxCell id="A3RSYJNHKTK07t-ZciKc-73" value="" style="line;strokeWidth=1;fillColor=none;align=left;verticalAlign=middle;spacingTop=-1;spacingLeft=3;spacingRight=3;rotatable=0;labelPosition=right;points=[];portConstraint=eastwest;strokeColor=inherit;fontFamily=Helvetica;fontSize=12;fontColor=default;fontStyle=0;" parent="A3RSYJNHKTK07t-ZciKc-64" vertex="1">
          <mxGeometry y="234" width="164" height="8" as="geometry" />
        </mxCell>
        <mxCell id="A3RSYJNHKTK07t-ZciKc-74" value="+ getOffer():Offer" style="text;strokeColor=none;fillColor=none;align=left;verticalAlign=top;spacingLeft=4;spacingRight=4;overflow=hidden;rotatable=0;points=[[0,0.5],[1,0.5]];portConstraint=eastwest;whiteSpace=wrap;html=1;fontFamily=Helvetica;fontSize=12;fontColor=default;fontStyle=0;" parent="A3RSYJNHKTK07t-ZciKc-64" vertex="1">
          <mxGeometry y="242" width="164" height="26" as="geometry" />
        </mxCell>
        <mxCell id="A3RSYJNHKTK07t-ZciKc-77" value="Gallery" style="swimlane;fontStyle=0;align=center;verticalAlign=top;childLayout=stackLayout;horizontal=1;startSize=26;horizontalStack=0;resizeParent=1;resizeLast=0;collapsible=1;marginBottom=0;rounded=0;shadow=0;strokeWidth=1;" parent="WIyWlLk6GJQsqaUBKTNV-1" vertex="1">
          <mxGeometry x="-1296" y="-1350" width="200" height="190" as="geometry">
            <mxRectangle x="550" y="140" width="160" height="26" as="alternateBounds" />
          </mxGeometry>
        </mxCell>
        <mxCell id="A3RSYJNHKTK07t-ZciKc-78" value="- Id: int " style="text;align=left;verticalAlign=top;spacingLeft=4;spacingRight=4;overflow=hidden;rotatable=0;points=[[0,0.5],[1,0.5]];portConstraint=eastwest;" parent="A3RSYJNHKTK07t-ZciKc-77" vertex="1">
          <mxGeometry y="26" width="200" height="26" as="geometry" />
        </mxCell>
        <mxCell id="A3RSYJNHKTK07t-ZciKc-79" value="- artistId: int " style="text;align=left;verticalAlign=top;spacingLeft=4;spacingRight=4;overflow=hidden;rotatable=0;points=[[0,0.5],[1,0.5]];portConstraint=eastwest;rounded=0;shadow=0;html=0;fillColor=none;gradientColor=none;" parent="A3RSYJNHKTK07t-ZciKc-77" vertex="1">
          <mxGeometry y="52" width="200" height="26" as="geometry" />
        </mxCell>
        <mxCell id="A3RSYJNHKTK07t-ZciKc-80" value="- visitorsCount: int" style="text;align=left;verticalAlign=top;spacingLeft=4;spacingRight=4;overflow=hidden;rotatable=0;points=[[0,0.5],[1,0.5]];portConstraint=eastwest;rounded=0;shadow=0;html=0;" parent="A3RSYJNHKTK07t-ZciKc-77" vertex="1">
          <mxGeometry y="78" width="200" height="26" as="geometry" />
        </mxCell>
        <mxCell id="A3RSYJNHKTK07t-ZciKc-81" value="- Sales: int " style="text;align=left;verticalAlign=top;spacingLeft=4;spacingRight=4;overflow=hidden;rotatable=0;points=[[0,0.5],[1,0.5]];portConstraint=eastwest;rounded=0;shadow=0;html=0;" parent="A3RSYJNHKTK07t-ZciKc-77" vertex="1">
          <mxGeometry y="104" width="200" height="26" as="geometry" />
        </mxCell>
        <mxCell id="A3RSYJNHKTK07t-ZciKc-82" value="" style="line;html=1;strokeWidth=1;align=left;verticalAlign=middle;spacingTop=-1;spacingLeft=3;spacingRight=3;rotatable=0;labelPosition=right;points=[];portConstraint=eastwest;" parent="A3RSYJNHKTK07t-ZciKc-77" vertex="1">
          <mxGeometry y="130" width="200" height="8" as="geometry" />
        </mxCell>
        <mxCell id="A3RSYJNHKTK07t-ZciKc-83" value="+ incrementVisitorCount()" style="text;align=left;verticalAlign=top;spacingLeft=4;spacingRight=4;overflow=hidden;rotatable=0;points=[[0,0.5],[1,0.5]];portConstraint=eastwest;" parent="A3RSYJNHKTK07t-ZciKc-77" vertex="1">
          <mxGeometry y="138" width="200" height="26" as="geometry" />
        </mxCell>
        <mxCell id="A3RSYJNHKTK07t-ZciKc-84" value="+ viewSales()" style="text;align=left;verticalAlign=top;spacingLeft=4;spacingRight=4;overflow=hidden;rotatable=0;points=[[0,0.5],[1,0.5]];portConstraint=eastwest;" parent="A3RSYJNHKTK07t-ZciKc-77" vertex="1">
          <mxGeometry y="164" width="200" height="26" as="geometry" />
        </mxCell>
        <mxCell id="A3RSYJNHKTK07t-ZciKc-75" value="" style="endArrow=diamondThin;endFill=1;endSize=24;html=1;rounded=0;fontFamily=Helvetica;fontSize=12;fontColor=default;fontStyle=0;entryX=0;entryY=0.5;entryDx=0;entryDy=0;exitX=1.013;exitY=-0.009;exitDx=0;exitDy=0;exitPerimeter=0;" parent="WIyWlLk6GJQsqaUBKTNV-1" source="A3RSYJNHKTK07t-ZciKc-69" target="A3RSYJNHKTK07t-ZciKc-57" edge="1">
          <mxGeometry width="160" relative="1" as="geometry">
            <mxPoint x="-570" y="-614" as="sourcePoint" />
            <mxPoint x="-294" y="-474" as="targetPoint" />
            <Array as="points" />
          </mxGeometry>
        </mxCell>
        <mxCell id="A3RSYJNHKTK07t-ZciKc-86" value="" style="endArrow=diamondThin;endFill=1;endSize=24;html=1;rounded=0;entryX=0.75;entryY=1.077;entryDx=0;entryDy=0;exitX=0.5;exitY=0;exitDx=0;exitDy=0;entryPerimeter=0;" parent="WIyWlLk6GJQsqaUBKTNV-1" source="A3RSYJNHKTK07t-ZciKc-77" target="6KwpjvI5Y8AULeYpcBRz-1" edge="1">
          <mxGeometry width="160" relative="1" as="geometry">
            <mxPoint x="-998.6823529411772" y="-1215" as="sourcePoint" />
            <mxPoint x="-1236" y="-1584" as="targetPoint" />
          </mxGeometry>
        </mxCell>
        <mxCell id="A3RSYJNHKTK07t-ZciKc-89" value="&lt;font style=&quot;font-size: 17px;&quot;&gt;manages&lt;/font&gt;" style="endArrow=open;endSize=12;dashed=1;html=1;rounded=0;exitX=0.5;exitY=1;exitDx=0;exitDy=0;exitPerimeter=0;entryX=0;entryY=0;entryDx=775;entryDy=14;entryPerimeter=0;" parent="WIyWlLk6GJQsqaUBKTNV-1" source="dm6teemk28US-Uhx1sEG-47" target="A3RSYJNHKTK07t-ZciKc-0" edge="1">
          <mxGeometry width="160" relative="1" as="geometry">
            <mxPoint x="-2220" y="-920" as="sourcePoint" />
            <mxPoint x="-1620" y="-740" as="targetPoint" />
            <Array as="points" />
          </mxGeometry>
        </mxCell>
        <mxCell id="A3RSYJNHKTK07t-ZciKc-91" value="&lt;font style=&quot;font-size: 17px;&quot;&gt;create&lt;/font&gt;" style="endArrow=open;endSize=12;dashed=1;html=1;rounded=0;exitX=-0.007;exitY=0.121;exitDx=0;exitDy=0;exitPerimeter=0;entryX=1;entryY=0.523;entryDx=0;entryDy=0;entryPerimeter=0;" parent="WIyWlLk6GJQsqaUBKTNV-1" source="A3RSYJNHKTK07t-ZciKc-51" target="A3RSYJNHKTK07t-ZciKc-0" edge="1">
          <mxGeometry width="160" relative="1" as="geometry">
            <mxPoint x="-510" y="-560" as="sourcePoint" />
            <mxPoint x="-670" y="-560" as="targetPoint" />
          </mxGeometry>
        </mxCell>
        <object label="product_management" id="yIk4h686hyqZEGkZEWGp-1">
          <mxCell style="swimlane;fontStyle=0;align=center;verticalAlign=top;childLayout=stackLayout;horizontal=1;startSize=26;horizontalStack=0;resizeParent=1;resizeLast=0;collapsible=1;marginBottom=0;rounded=0;shadow=0;strokeWidth=1;" parent="WIyWlLk6GJQsqaUBKTNV-1" vertex="1">
            <mxGeometry x="-2260" y="-120" width="360" height="176" as="geometry">
              <mxRectangle x="340" y="380" width="170" height="26" as="alternateBounds" />
            </mxGeometry>
          </mxCell>
        </object>
        <mxCell id="yIk4h686hyqZEGkZEWGp-5" value="" style="line;html=1;strokeWidth=1;align=left;verticalAlign=middle;spacingTop=-1;spacingLeft=3;spacingRight=3;rotatable=0;labelPosition=right;points=[];portConstraint=eastwest;" parent="yIk4h686hyqZEGkZEWGp-1" vertex="1">
          <mxGeometry y="26" width="360" height="20" as="geometry" />
        </mxCell>
        <mxCell id="yIk4h686hyqZEGkZEWGp-6" value="+ editProduct(productName, description, price, dimensions)" style="text;align=left;verticalAlign=top;spacingLeft=4;spacingRight=4;overflow=hidden;rotatable=0;points=[[0,0.5],[1,0.5]];portConstraint=eastwest;" parent="yIk4h686hyqZEGkZEWGp-1" vertex="1">
          <mxGeometry y="46" width="360" height="26" as="geometry" />
        </mxCell>
        <mxCell id="yIk4h686hyqZEGkZEWGp-7" value=" + removeProduct(productId)" style="text;align=left;verticalAlign=top;spacingLeft=4;spacingRight=4;overflow=hidden;rotatable=0;points=[[0,0.5],[1,0.5]];portConstraint=eastwest;" parent="yIk4h686hyqZEGkZEWGp-1" vertex="1">
          <mxGeometry y="72" width="360" height="26" as="geometry" />
        </mxCell>
        <mxCell id="yIk4h686hyqZEGkZEWGp-8" value="+ addCustomizableOption(option: CustomizableOption)" style="text;align=left;verticalAlign=top;spacingLeft=4;spacingRight=4;overflow=hidden;rotatable=0;points=[[0,0.5],[1,0.5]];portConstraint=eastwest;" parent="yIk4h686hyqZEGkZEWGp-1" vertex="1">
          <mxGeometry y="98" width="360" height="26" as="geometry" />
        </mxCell>
        <mxCell id="6KwpjvI5Y8AULeYpcBRz-13" value="+ compare_product(Product,Product):list" style="text;strokeColor=none;fillColor=none;align=left;verticalAlign=top;spacingLeft=4;spacingRight=4;overflow=hidden;rotatable=0;points=[[0,0.5],[1,0.5]];portConstraint=eastwest;whiteSpace=wrap;html=1;" parent="yIk4h686hyqZEGkZEWGp-1" vertex="1">
          <mxGeometry y="124" width="360" height="26" as="geometry" />
        </mxCell>
        <mxCell id="yIk4h686hyqZEGkZEWGp-9" value="+ removeCustomizableOption(optionId: int)" style="text;align=left;verticalAlign=top;spacingLeft=4;spacingRight=4;overflow=hidden;rotatable=0;points=[[0,0.5],[1,0.5]];portConstraint=eastwest;" parent="yIk4h686hyqZEGkZEWGp-1" vertex="1">
          <mxGeometry y="150" width="360" height="26" as="geometry" />
        </mxCell>
        <mxCell id="Rs6AaWUYdlJJOVlor8ce-1" value="sales_tracker" style="swimlane;fontStyle=0;align=center;verticalAlign=top;childLayout=stackLayout;horizontal=1;startSize=26;horizontalStack=0;resizeParent=1;resizeLast=0;collapsible=1;marginBottom=0;rounded=0;shadow=0;strokeWidth=1;" parent="WIyWlLk6GJQsqaUBKTNV-1" vertex="1">
          <mxGeometry x="-1296" y="-1120" width="200" height="70" as="geometry">
            <mxRectangle x="550" y="140" width="160" height="26" as="alternateBounds" />
          </mxGeometry>
        </mxCell>
        <mxCell id="Rs6AaWUYdlJJOVlor8ce-6" value="" style="line;html=1;strokeWidth=1;align=left;verticalAlign=middle;spacingTop=-1;spacingLeft=3;spacingRight=3;rotatable=0;labelPosition=right;points=[];portConstraint=eastwest;" parent="Rs6AaWUYdlJJOVlor8ce-1" vertex="1">
          <mxGeometry y="26" width="200" height="8" as="geometry" />
        </mxCell>
        <mxCell id="Rs6AaWUYdlJJOVlor8ce-8" value="+ trackSales()" style="text;align=left;verticalAlign=top;spacingLeft=4;spacingRight=4;overflow=hidden;rotatable=0;points=[[0,0.5],[1,0.5]];portConstraint=eastwest;" parent="Rs6AaWUYdlJJOVlor8ce-1" vertex="1">
          <mxGeometry y="34" width="200" height="26" as="geometry" />
        </mxCell>
        <mxCell id="Rs6AaWUYdlJJOVlor8ce-11" value="" style="endArrow=open;endFill=1;endSize=12;html=1;rounded=0;" parent="WIyWlLk6GJQsqaUBKTNV-1" source="Rs6AaWUYdlJJOVlor8ce-1" target="A3RSYJNHKTK07t-ZciKc-84" edge="1">
          <mxGeometry width="160" relative="1" as="geometry">
            <mxPoint x="-976" y="-1190" as="sourcePoint" />
            <mxPoint x="-1096" y="-1190" as="targetPoint" />
          </mxGeometry>
        </mxCell>
        <mxCell id="Rs6AaWUYdlJJOVlor8ce-13" value="track" style="text;html=1;strokeColor=none;fillColor=none;align=center;verticalAlign=middle;whiteSpace=wrap;rounded=0;" parent="WIyWlLk6GJQsqaUBKTNV-1" vertex="1">
          <mxGeometry x="-1200" y="-1150" width="60" height="30" as="geometry" />
        </mxCell>
        <mxCell id="Rs6AaWUYdlJJOVlor8ce-14" value="1..*" style="text;html=1;align=center;verticalAlign=middle;whiteSpace=wrap;rounded=0;" parent="WIyWlLk6GJQsqaUBKTNV-1" vertex="1">
          <mxGeometry x="-1254" y="-1160" width="60" height="30" as="geometry" />
        </mxCell>
        <mxCell id="Rs6AaWUYdlJJOVlor8ce-21" value="1" style="text;html=1;align=center;verticalAlign=middle;whiteSpace=wrap;rounded=0;" parent="WIyWlLk6GJQsqaUBKTNV-1" vertex="1">
          <mxGeometry x="-1240" y="-1140" width="60" height="30" as="geometry" />
        </mxCell>
        <mxCell id="Rs6AaWUYdlJJOVlor8ce-22" value="has" style="text;html=1;align=center;verticalAlign=middle;whiteSpace=wrap;rounded=0;" parent="WIyWlLk6GJQsqaUBKTNV-1" vertex="1">
          <mxGeometry x="-2045" y="-644.5" width="60" height="30" as="geometry" />
        </mxCell>
        <mxCell id="Rs6AaWUYdlJJOVlor8ce-23" value="" style="endArrow=open;endFill=1;endSize=12;html=1;rounded=0;exitX=0.375;exitY=0.057;exitDx=0;exitDy=0;exitPerimeter=0;entryX=0.25;entryY=1;entryDx=0;entryDy=0;" parent="WIyWlLk6GJQsqaUBKTNV-1" source="yIk4h686hyqZEGkZEWGp-1" target="A3RSYJNHKTK07t-ZciKc-1" edge="1">
          <mxGeometry width="160" relative="1" as="geometry">
            <mxPoint x="-1740" y="-400" as="sourcePoint" />
            <mxPoint x="-1980" y="-75" as="targetPoint" />
          </mxGeometry>
        </mxCell>
        <mxCell id="Rs6AaWUYdlJJOVlor8ce-24" value="manage" style="text;html=1;strokeColor=none;fillColor=none;align=center;verticalAlign=middle;whiteSpace=wrap;rounded=0;" parent="WIyWlLk6GJQsqaUBKTNV-1" vertex="1">
          <mxGeometry x="-1930" y="-236" width="60" height="30" as="geometry" />
        </mxCell>
        <mxCell id="Rs6AaWUYdlJJOVlor8ce-26" value="1..*" style="text;html=1;align=center;verticalAlign=middle;whiteSpace=wrap;rounded=0;" parent="WIyWlLk6GJQsqaUBKTNV-1" vertex="1">
          <mxGeometry x="-2210" y="-551" width="60" height="30" as="geometry" />
        </mxCell>
        <object label="category_management" id="Rs6AaWUYdlJJOVlor8ce-27">
          <mxCell style="swimlane;fontStyle=0;align=center;verticalAlign=top;childLayout=stackLayout;horizontal=1;startSize=26;horizontalStack=0;resizeParent=1;resizeLast=0;collapsible=1;marginBottom=0;rounded=0;shadow=0;strokeWidth=1;" parent="WIyWlLk6GJQsqaUBKTNV-1" vertex="1">
            <mxGeometry x="-2330" y="-434" width="360" height="124" as="geometry">
              <mxRectangle x="340" y="380" width="170" height="26" as="alternateBounds" />
            </mxGeometry>
          </mxCell>
        </object>
        <mxCell id="Rs6AaWUYdlJJOVlor8ce-28" value="" style="line;html=1;strokeWidth=1;align=left;verticalAlign=middle;spacingTop=-1;spacingLeft=3;spacingRight=3;rotatable=0;labelPosition=right;points=[];portConstraint=eastwest;" parent="Rs6AaWUYdlJJOVlor8ce-27" vertex="1">
          <mxGeometry y="26" width="360" height="20" as="geometry" />
        </mxCell>
        <mxCell id="Rs6AaWUYdlJJOVlor8ce-29" value="+ addCategory(name, parentCategoryId)" style="text;align=left;verticalAlign=top;spacingLeft=4;spacingRight=4;overflow=hidden;rotatable=0;points=[[0,0.5],[1,0.5]];portConstraint=eastwest;" parent="Rs6AaWUYdlJJOVlor8ce-27" vertex="1">
          <mxGeometry y="46" width="360" height="26" as="geometry" />
        </mxCell>
        <mxCell id="Rs6AaWUYdlJJOVlor8ce-30" value=" + deleteCategory()" style="text;align=left;verticalAlign=top;spacingLeft=4;spacingRight=4;overflow=hidden;rotatable=0;points=[[0,0.5],[1,0.5]];portConstraint=eastwest;" parent="Rs6AaWUYdlJJOVlor8ce-27" vertex="1">
          <mxGeometry y="72" width="360" height="26" as="geometry" />
        </mxCell>
        <mxCell id="Rs6AaWUYdlJJOVlor8ce-32" value="+ requestCategory(name, artistId, status)" style="text;align=left;verticalAlign=top;spacingLeft=4;spacingRight=4;overflow=hidden;rotatable=0;points=[[0,0.5],[1,0.5]];portConstraint=eastwest;" parent="Rs6AaWUYdlJJOVlor8ce-27" vertex="1">
          <mxGeometry y="98" width="360" height="26" as="geometry" />
        </mxCell>
        <mxCell id="Rs6AaWUYdlJJOVlor8ce-33" value="manage" style="text;html=1;strokeColor=none;fillColor=none;align=center;verticalAlign=middle;whiteSpace=wrap;rounded=0;" parent="WIyWlLk6GJQsqaUBKTNV-1" vertex="1">
          <mxGeometry x="-2212.5" y="-506" width="60" height="30" as="geometry" />
        </mxCell>
        <mxCell id="Rs6AaWUYdlJJOVlor8ce-34" value="1..*" style="text;html=1;align=center;verticalAlign=middle;whiteSpace=wrap;rounded=0;" parent="WIyWlLk6GJQsqaUBKTNV-1" vertex="1">
          <mxGeometry x="-1880" y="-350" width="60" height="30" as="geometry" />
        </mxCell>
        <mxCell id="Rs6AaWUYdlJJOVlor8ce-35" value="1" style="text;html=1;align=center;verticalAlign=middle;whiteSpace=wrap;rounded=0;" parent="WIyWlLk6GJQsqaUBKTNV-1" vertex="1">
          <mxGeometry x="-2220" y="-463" width="60" height="30" as="geometry" />
        </mxCell>
        <mxCell id="Rs6AaWUYdlJJOVlor8ce-36" value="" style="endArrow=open;endFill=1;endSize=12;html=1;rounded=0;exitX=0.337;exitY=0.008;exitDx=0;exitDy=0;exitPerimeter=0;" parent="WIyWlLk6GJQsqaUBKTNV-1" source="Rs6AaWUYdlJJOVlor8ce-27" edge="1">
          <mxGeometry width="160" relative="1" as="geometry">
            <mxPoint x="-2180" y="-521" as="sourcePoint" />
            <mxPoint x="-2209" y="-550" as="targetPoint" />
          </mxGeometry>
        </mxCell>
        <mxCell id="Rs6AaWUYdlJJOVlor8ce-38" value="Account_management" style="swimlane;fontStyle=1;align=center;verticalAlign=top;childLayout=stackLayout;horizontal=1;startSize=26;horizontalStack=0;resizeParent=1;resizeParentMax=0;resizeLast=0;collapsible=1;marginBottom=0;whiteSpace=wrap;html=1;" parent="WIyWlLk6GJQsqaUBKTNV-1" vertex="1">
          <mxGeometry x="-1830" y="-2187.5" width="230" height="86" as="geometry" />
        </mxCell>
        <mxCell id="Rs6AaWUYdlJJOVlor8ce-39" value="" style="line;strokeWidth=1;fillColor=none;align=left;verticalAlign=middle;spacingTop=-1;spacingLeft=3;spacingRight=3;rotatable=0;labelPosition=right;points=[];portConstraint=eastwest;strokeColor=inherit;" parent="Rs6AaWUYdlJJOVlor8ce-38" vertex="1">
          <mxGeometry y="26" width="230" height="8" as="geometry" />
        </mxCell>
        <mxCell id="Rs6AaWUYdlJJOVlor8ce-42" value="+ add_admin_account()" style="text;strokeColor=none;fillColor=none;align=left;verticalAlign=top;spacingLeft=4;spacingRight=4;overflow=hidden;rotatable=0;points=[[0,0.5],[1,0.5]];portConstraint=eastwest;whiteSpace=wrap;html=1;" parent="Rs6AaWUYdlJJOVlor8ce-38" vertex="1">
          <mxGeometry y="34" width="230" height="26" as="geometry" />
        </mxCell>
        <mxCell id="Rs6AaWUYdlJJOVlor8ce-44" value="+ remove_account(accountId:int)" style="text;strokeColor=none;fillColor=none;align=left;verticalAlign=top;spacingLeft=4;spacingRight=4;overflow=hidden;rotatable=0;points=[[0,0.5],[1,0.5]];portConstraint=eastwest;whiteSpace=wrap;html=1;" parent="Rs6AaWUYdlJJOVlor8ce-38" vertex="1">
          <mxGeometry y="60" width="230" height="26" as="geometry" />
        </mxCell>
        <mxCell id="Rs6AaWUYdlJJOVlor8ce-51" value="has" style="text;html=1;align=center;verticalAlign=middle;resizable=0;points=[];autosize=1;strokeColor=none;fillColor=none;" parent="WIyWlLk6GJQsqaUBKTNV-1" vertex="1">
          <mxGeometry x="-1620" y="-1990" width="40" height="30" as="geometry" />
        </mxCell>
        <mxCell id="Rs6AaWUYdlJJOVlor8ce-52" value="1" style="text;html=1;align=center;verticalAlign=middle;resizable=0;points=[];autosize=1;strokeColor=none;fillColor=none;" parent="WIyWlLk6GJQsqaUBKTNV-1" vertex="1">
          <mxGeometry x="-1615" y="-2040" width="30" height="30" as="geometry" />
        </mxCell>
        <mxCell id="Rs6AaWUYdlJJOVlor8ce-53" value="1..*" style="text;html=1;align=center;verticalAlign=middle;resizable=0;points=[];autosize=1;strokeColor=none;fillColor=none;" parent="WIyWlLk6GJQsqaUBKTNV-1" vertex="1">
          <mxGeometry x="-1660" y="-1892" width="40" height="30" as="geometry" />
        </mxCell>
        <mxCell id="p1KBks_BvdkvikkBRHm6-0" value="&lt;span style=&quot;font-weight: 400; text-align: left; text-wrap: nowrap;&quot;&gt;Coversation&lt;/span&gt;" style="swimlane;fontStyle=1;align=center;verticalAlign=top;childLayout=stackLayout;horizontal=1;startSize=26;horizontalStack=0;resizeParent=1;resizeParentMax=0;resizeLast=0;collapsible=1;marginBottom=0;whiteSpace=wrap;html=1;strokeColor=default;fontFamily=Helvetica;fontSize=12;fontColor=default;fillColor=none;" parent="WIyWlLk6GJQsqaUBKTNV-1" vertex="1">
          <mxGeometry x="-700" y="-230" width="160" height="198" as="geometry" />
        </mxCell>
        <mxCell id="p1KBks_BvdkvikkBRHm6-1" value="&lt;span style=&quot;text-wrap: nowrap;&quot;&gt;Id: int&lt;/span&gt;" style="text;strokeColor=none;fillColor=none;align=left;verticalAlign=top;spacingLeft=4;spacingRight=4;overflow=hidden;rotatable=0;points=[[0,0.5],[1,0.5]];portConstraint=eastwest;whiteSpace=wrap;html=1;fontFamily=Helvetica;fontSize=12;fontColor=default;fontStyle=0;" parent="p1KBks_BvdkvikkBRHm6-0" vertex="1">
          <mxGeometry y="26" width="160" height="26" as="geometry" />
        </mxCell>
        <mxCell id="p1KBks_BvdkvikkBRHm6-2" value="&lt;span style=&quot;text-wrap: nowrap;&quot;&gt;requestId: int&lt;/span&gt;" style="text;strokeColor=none;fillColor=none;align=left;verticalAlign=top;spacingLeft=4;spacingRight=4;overflow=hidden;rotatable=0;points=[[0,0.5],[1,0.5]];portConstraint=eastwest;whiteSpace=wrap;html=1;fontFamily=Helvetica;fontSize=12;fontColor=default;fontStyle=0;" parent="p1KBks_BvdkvikkBRHm6-0" vertex="1">
          <mxGeometry y="52" width="160" height="26" as="geometry" />
        </mxCell>
        <mxCell id="p1KBks_BvdkvikkBRHm6-3" value="&lt;span style=&quot;text-wrap: nowrap;&quot;&gt;artistId:int&lt;/span&gt;" style="text;strokeColor=none;fillColor=none;align=left;verticalAlign=top;spacingLeft=4;spacingRight=4;overflow=hidden;rotatable=0;points=[[0,0.5],[1,0.5]];portConstraint=eastwest;whiteSpace=wrap;html=1;fontFamily=Helvetica;fontSize=12;fontColor=default;fontStyle=0;" parent="p1KBks_BvdkvikkBRHm6-0" vertex="1">
          <mxGeometry y="78" width="160" height="26" as="geometry" />
        </mxCell>
        <mxCell id="p1KBks_BvdkvikkBRHm6-11" value="&lt;span style=&quot;text-wrap: nowrap;&quot;&gt;messages:list&lt;/span&gt;" style="text;strokeColor=none;fillColor=none;align=left;verticalAlign=top;spacingLeft=4;spacingRight=4;overflow=hidden;rotatable=0;points=[[0,0.5],[1,0.5]];portConstraint=eastwest;whiteSpace=wrap;html=1;fontFamily=Helvetica;fontSize=12;fontColor=default;fontStyle=0;" parent="p1KBks_BvdkvikkBRHm6-0" vertex="1">
          <mxGeometry y="104" width="160" height="26" as="geometry" />
        </mxCell>
        <mxCell id="p1KBks_BvdkvikkBRHm6-9" value="" style="line;strokeWidth=1;fillColor=none;align=left;verticalAlign=middle;spacingTop=-1;spacingLeft=3;spacingRight=3;rotatable=0;labelPosition=right;points=[];portConstraint=eastwest;strokeColor=inherit;fontFamily=Helvetica;fontSize=12;fontColor=default;fontStyle=0;" parent="p1KBks_BvdkvikkBRHm6-0" vertex="1">
          <mxGeometry y="130" width="160" height="8" as="geometry" />
        </mxCell>
        <mxCell id="p1KBks_BvdkvikkBRHm6-10" value="+ get_messages():list" style="text;strokeColor=none;fillColor=none;align=left;verticalAlign=top;spacingLeft=4;spacingRight=4;overflow=hidden;rotatable=0;points=[[0,0.5],[1,0.5]];portConstraint=eastwest;whiteSpace=wrap;html=1;fontFamily=Helvetica;fontSize=12;fontColor=default;fontStyle=0;" parent="p1KBks_BvdkvikkBRHm6-0" vertex="1">
          <mxGeometry y="138" width="160" height="26" as="geometry" />
        </mxCell>
        <mxCell id="p1KBks_BvdkvikkBRHm6-12" value="+ add_message(string)" style="text;strokeColor=none;fillColor=none;align=left;verticalAlign=top;spacingLeft=4;spacingRight=4;overflow=hidden;rotatable=0;points=[[0,0.5],[1,0.5]];portConstraint=eastwest;whiteSpace=wrap;html=1;fontFamily=Helvetica;fontSize=12;fontColor=default;fontStyle=0;" parent="p1KBks_BvdkvikkBRHm6-0" vertex="1">
          <mxGeometry y="164" width="160" height="26" as="geometry" />
        </mxCell>
        <mxCell id="p1KBks_BvdkvikkBRHm6-13" value="" style="line;strokeWidth=1;fillColor=none;align=left;verticalAlign=middle;spacingTop=-1;spacingLeft=3;spacingRight=3;rotatable=0;labelPosition=right;points=[];portConstraint=eastwest;strokeColor=inherit;fontFamily=Helvetica;fontSize=12;fontColor=default;fontStyle=0;" parent="p1KBks_BvdkvikkBRHm6-0" vertex="1">
          <mxGeometry y="190" width="160" height="8" as="geometry" />
        </mxCell>
        <mxCell id="p1KBks_BvdkvikkBRHm6-14" value="&lt;span style=&quot;font-weight: 400; text-align: left; text-wrap: nowrap;&quot;&gt;message&lt;/span&gt;" style="swimlane;fontStyle=1;align=center;verticalAlign=top;childLayout=stackLayout;horizontal=1;startSize=26;horizontalStack=0;resizeParent=1;resizeParentMax=0;resizeLast=0;collapsible=1;marginBottom=0;whiteSpace=wrap;html=1;strokeColor=default;fontFamily=Helvetica;fontSize=12;fontColor=default;fillColor=none;" parent="WIyWlLk6GJQsqaUBKTNV-1" vertex="1">
          <mxGeometry x="-395" y="-217" width="160" height="172" as="geometry" />
        </mxCell>
        <mxCell id="p1KBks_BvdkvikkBRHm6-15" value="&lt;span style=&quot;text-wrap: nowrap;&quot;&gt;Id: int&lt;/span&gt;" style="text;strokeColor=none;fillColor=none;align=left;verticalAlign=top;spacingLeft=4;spacingRight=4;overflow=hidden;rotatable=0;points=[[0,0.5],[1,0.5]];portConstraint=eastwest;whiteSpace=wrap;html=1;fontFamily=Helvetica;fontSize=12;fontColor=default;fontStyle=0;" parent="p1KBks_BvdkvikkBRHm6-14" vertex="1">
          <mxGeometry y="26" width="160" height="26" as="geometry" />
        </mxCell>
        <mxCell id="p1KBks_BvdkvikkBRHm6-16" value="&lt;span style=&quot;text-wrap: nowrap;&quot;&gt;receiverId: int&lt;/span&gt;" style="text;strokeColor=none;fillColor=none;align=left;verticalAlign=top;spacingLeft=4;spacingRight=4;overflow=hidden;rotatable=0;points=[[0,0.5],[1,0.5]];portConstraint=eastwest;whiteSpace=wrap;html=1;fontFamily=Helvetica;fontSize=12;fontColor=default;fontStyle=0;" parent="p1KBks_BvdkvikkBRHm6-14" vertex="1">
          <mxGeometry y="52" width="160" height="26" as="geometry" />
        </mxCell>
        <mxCell id="p1KBks_BvdkvikkBRHm6-17" value="&lt;span style=&quot;text-wrap: nowrap;&quot;&gt;senderId:int&lt;/span&gt;" style="text;strokeColor=none;fillColor=none;align=left;verticalAlign=top;spacingLeft=4;spacingRight=4;overflow=hidden;rotatable=0;points=[[0,0.5],[1,0.5]];portConstraint=eastwest;whiteSpace=wrap;html=1;fontFamily=Helvetica;fontSize=12;fontColor=default;fontStyle=0;" parent="p1KBks_BvdkvikkBRHm6-14" vertex="1">
          <mxGeometry y="78" width="160" height="26" as="geometry" />
        </mxCell>
        <mxCell id="p1KBks_BvdkvikkBRHm6-18" value="&lt;span style=&quot;text-wrap: nowrap;&quot;&gt;text:string&lt;/span&gt;" style="text;strokeColor=none;fillColor=none;align=left;verticalAlign=top;spacingLeft=4;spacingRight=4;overflow=hidden;rotatable=0;points=[[0,0.5],[1,0.5]];portConstraint=eastwest;whiteSpace=wrap;html=1;fontFamily=Helvetica;fontSize=12;fontColor=default;fontStyle=0;" parent="p1KBks_BvdkvikkBRHm6-14" vertex="1">
          <mxGeometry y="104" width="160" height="26" as="geometry" />
        </mxCell>
        <mxCell id="p1KBks_BvdkvikkBRHm6-23" value="&lt;span style=&quot;text-wrap: nowrap;&quot;&gt;timestamp:date&lt;/span&gt;" style="text;strokeColor=none;fillColor=none;align=left;verticalAlign=top;spacingLeft=4;spacingRight=4;overflow=hidden;rotatable=0;points=[[0,0.5],[1,0.5]];portConstraint=eastwest;whiteSpace=wrap;html=1;fontFamily=Helvetica;fontSize=12;fontColor=default;fontStyle=0;" parent="p1KBks_BvdkvikkBRHm6-14" vertex="1">
          <mxGeometry y="130" width="160" height="26" as="geometry" />
        </mxCell>
        <mxCell id="p1KBks_BvdkvikkBRHm6-19" value="" style="line;strokeWidth=1;fillColor=none;align=left;verticalAlign=middle;spacingTop=-1;spacingLeft=3;spacingRight=3;rotatable=0;labelPosition=right;points=[];portConstraint=eastwest;strokeColor=inherit;fontFamily=Helvetica;fontSize=12;fontColor=default;fontStyle=0;" parent="p1KBks_BvdkvikkBRHm6-14" vertex="1">
          <mxGeometry y="156" width="160" height="8" as="geometry" />
        </mxCell>
        <mxCell id="p1KBks_BvdkvikkBRHm6-22" value="" style="line;strokeWidth=1;fillColor=none;align=left;verticalAlign=middle;spacingTop=-1;spacingLeft=3;spacingRight=3;rotatable=0;labelPosition=right;points=[];portConstraint=eastwest;strokeColor=inherit;fontFamily=Helvetica;fontSize=12;fontColor=default;fontStyle=0;" parent="p1KBks_BvdkvikkBRHm6-14" vertex="1">
          <mxGeometry y="164" width="160" height="8" as="geometry" />
        </mxCell>
        <mxCell id="p1KBks_BvdkvikkBRHm6-25" value="&lt;span style=&quot;font-weight: 400; text-align: left; text-wrap: nowrap;&quot;&gt;messaging_controller&lt;/span&gt;" style="swimlane;fontStyle=1;align=center;verticalAlign=top;childLayout=stackLayout;horizontal=1;startSize=26;horizontalStack=0;resizeParent=1;resizeParentMax=0;resizeLast=0;collapsible=1;marginBottom=0;whiteSpace=wrap;html=1;strokeColor=default;fontFamily=Helvetica;fontSize=12;fontColor=default;fillColor=none;" parent="WIyWlLk6GJQsqaUBKTNV-1" vertex="1">
          <mxGeometry x="-644" width="224" height="88" as="geometry" />
        </mxCell>
        <mxCell id="p1KBks_BvdkvikkBRHm6-30" value="" style="line;strokeWidth=1;fillColor=none;align=left;verticalAlign=middle;spacingTop=-1;spacingLeft=3;spacingRight=3;rotatable=0;labelPosition=right;points=[];portConstraint=eastwest;strokeColor=inherit;fontFamily=Helvetica;fontSize=12;fontColor=default;fontStyle=0;" parent="p1KBks_BvdkvikkBRHm6-25" vertex="1">
          <mxGeometry y="26" width="224" height="8" as="geometry" />
        </mxCell>
        <mxCell id="p1KBks_BvdkvikkBRHm6-31" value="+ receive_messages():message" style="text;strokeColor=none;fillColor=none;align=left;verticalAlign=top;spacingLeft=4;spacingRight=4;overflow=hidden;rotatable=0;points=[[0,0.5],[1,0.5]];portConstraint=eastwest;whiteSpace=wrap;html=1;fontFamily=Helvetica;fontSize=12;fontColor=default;fontStyle=0;" parent="p1KBks_BvdkvikkBRHm6-25" vertex="1">
          <mxGeometry y="34" width="224" height="26" as="geometry" />
        </mxCell>
        <mxCell id="p1KBks_BvdkvikkBRHm6-32" value="+ send_message(string)" style="text;strokeColor=none;fillColor=none;align=left;verticalAlign=top;spacingLeft=4;spacingRight=4;overflow=hidden;rotatable=0;points=[[0,0.5],[1,0.5]];portConstraint=eastwest;whiteSpace=wrap;html=1;fontFamily=Helvetica;fontSize=12;fontColor=default;fontStyle=0;" parent="p1KBks_BvdkvikkBRHm6-25" vertex="1">
          <mxGeometry y="60" width="224" height="20" as="geometry" />
        </mxCell>
        <mxCell id="p1KBks_BvdkvikkBRHm6-33" value="" style="line;strokeWidth=1;fillColor=none;align=left;verticalAlign=middle;spacingTop=-1;spacingLeft=3;spacingRight=3;rotatable=0;labelPosition=right;points=[];portConstraint=eastwest;strokeColor=inherit;fontFamily=Helvetica;fontSize=12;fontColor=default;fontStyle=0;" parent="p1KBks_BvdkvikkBRHm6-25" vertex="1">
          <mxGeometry y="80" width="224" height="8" as="geometry" />
        </mxCell>
        <mxCell id="p1KBks_BvdkvikkBRHm6-35" value="" style="endArrow=open;endFill=1;endSize=12;html=1;rounded=0;exitX=0.391;exitY=-0.004;exitDx=0;exitDy=0;exitPerimeter=0;entryX=0.455;entryY=0.625;entryDx=0;entryDy=0;entryPerimeter=0;" parent="WIyWlLk6GJQsqaUBKTNV-1" source="p1KBks_BvdkvikkBRHm6-25" target="p1KBks_BvdkvikkBRHm6-22" edge="1">
          <mxGeometry width="160" relative="1" as="geometry">
            <mxPoint x="-274" y="-10" as="sourcePoint" />
            <mxPoint x="-394" y="-10" as="targetPoint" />
          </mxGeometry>
        </mxCell>
        <mxCell id="p1KBks_BvdkvikkBRHm6-36" value="manage" style="text;html=1;align=center;verticalAlign=middle;resizable=0;points=[];autosize=1;strokeColor=none;fillColor=none;" parent="WIyWlLk6GJQsqaUBKTNV-1" vertex="1">
          <mxGeometry x="-500" y="-45" width="70" height="30" as="geometry" />
        </mxCell>
        <mxCell id="p1KBks_BvdkvikkBRHm6-37" value="1" style="text;html=1;align=center;verticalAlign=middle;resizable=0;points=[];autosize=1;strokeColor=none;fillColor=none;" parent="WIyWlLk6GJQsqaUBKTNV-1" vertex="1">
          <mxGeometry x="-540" y="-146" width="30" height="30" as="geometry" />
        </mxCell>
        <mxCell id="p1KBks_BvdkvikkBRHm6-38" value="0..*" style="text;html=1;align=center;verticalAlign=middle;resizable=0;points=[];autosize=1;strokeColor=none;fillColor=none;" parent="WIyWlLk6GJQsqaUBKTNV-1" vertex="1">
          <mxGeometry x="-430" y="-146" width="40" height="30" as="geometry" />
        </mxCell>
        <mxCell id="p1KBks_BvdkvikkBRHm6-39" value="" style="endArrow=open;endFill=1;endSize=12;html=1;rounded=0;entryX=0.018;entryY=0.977;entryDx=0;entryDy=0;exitX=1;exitY=0.5;exitDx=0;exitDy=0;entryPerimeter=0;" parent="WIyWlLk6GJQsqaUBKTNV-1" source="p1KBks_BvdkvikkBRHm6-11" target="p1KBks_BvdkvikkBRHm6-17" edge="1">
          <mxGeometry width="160" relative="1" as="geometry">
            <mxPoint x="-480" y="-60" as="sourcePoint" />
            <mxPoint x="-455.3000000000002" y="-190" as="targetPoint" />
          </mxGeometry>
        </mxCell>
        <mxCell id="p1KBks_BvdkvikkBRHm6-40" value="1" style="text;html=1;align=center;verticalAlign=middle;resizable=0;points=[];autosize=1;strokeColor=none;fillColor=none;" parent="WIyWlLk6GJQsqaUBKTNV-1" vertex="1">
          <mxGeometry x="-569" y="-30" width="30" height="30" as="geometry" />
        </mxCell>
        <mxCell id="p1KBks_BvdkvikkBRHm6-41" value="1..*" style="text;html=1;align=center;verticalAlign=middle;resizable=0;points=[];autosize=1;strokeColor=none;fillColor=none;" parent="WIyWlLk6GJQsqaUBKTNV-1" vertex="1">
          <mxGeometry x="-435" y="-62" width="40" height="30" as="geometry" />
        </mxCell>
        <mxCell id="p1KBks_BvdkvikkBRHm6-42" value="has" style="text;html=1;align=center;verticalAlign=middle;resizable=0;points=[];autosize=1;strokeColor=none;fillColor=none;" parent="WIyWlLk6GJQsqaUBKTNV-1" vertex="1">
          <mxGeometry x="-495" y="-146" width="40" height="30" as="geometry" />
        </mxCell>
        <mxCell id="p1KBks_BvdkvikkBRHm6-43" value="&lt;font style=&quot;font-size: 17px;&quot;&gt;iniate&lt;/font&gt;" style="endArrow=open;endSize=12;dashed=1;html=1;rounded=0;entryX=0.652;entryY=0.08;entryDx=0;entryDy=0;entryPerimeter=0;" parent="WIyWlLk6GJQsqaUBKTNV-1" target="p1KBks_BvdkvikkBRHm6-34" edge="1">
          <mxGeometry width="160" relative="1" as="geometry">
            <mxPoint x="-340" y="-330" as="sourcePoint" />
            <mxPoint x="-335" y="-260" as="targetPoint" />
          </mxGeometry>
        </mxCell>
        <mxCell id="UXWOMkNRIBOMz34GWL5e-0" value="IRegister" style="swimlane;fontStyle=0;align=center;verticalAlign=top;childLayout=stackLayout;horizontal=1;startSize=26;horizontalStack=0;resizeParent=1;resizeLast=0;collapsible=1;marginBottom=0;rounded=0;shadow=0;strokeWidth=1;" parent="WIyWlLk6GJQsqaUBKTNV-1" vertex="1">
          <mxGeometry x="-1134" y="-2014" width="210" height="60" as="geometry">
            <mxRectangle x="550" y="140" width="160" height="26" as="alternateBounds" />
          </mxGeometry>
        </mxCell>
        <mxCell id="UXWOMkNRIBOMz34GWL5e-1" value="" style="line;html=1;strokeWidth=1;align=left;verticalAlign=middle;spacingTop=-1;spacingLeft=3;spacingRight=3;rotatable=0;labelPosition=right;points=[];portConstraint=eastwest;" parent="UXWOMkNRIBOMz34GWL5e-0" vertex="1">
          <mxGeometry y="26" width="210" height="8" as="geometry" />
        </mxCell>
        <mxCell id="UXWOMkNRIBOMz34GWL5e-4" value="+register()" style="text;align=left;verticalAlign=top;spacingLeft=4;spacingRight=4;overflow=hidden;rotatable=0;points=[[0,0.5],[1,0.5]];portConstraint=eastwest;" parent="UXWOMkNRIBOMz34GWL5e-0" vertex="1">
          <mxGeometry y="34" width="210" height="26" as="geometry" />
        </mxCell>
        <mxCell id="UXWOMkNRIBOMz34GWL5e-5" value="&amp;lt;&amp;lt;interface&amp;gt;&amp;gt;" style="text;html=1;align=center;verticalAlign=middle;whiteSpace=wrap;rounded=0;" parent="WIyWlLk6GJQsqaUBKTNV-1" vertex="1">
          <mxGeometry x="-1059" y="-2049.5" width="60" height="30" as="geometry" />
        </mxCell>
        <mxCell id="UXWOMkNRIBOMz34GWL5e-6" value="" style="endArrow=block;endSize=10;endFill=0;shadow=0;strokeWidth=1;rounded=0;curved=0;edgeStyle=elbowEdgeStyle;elbow=vertical;exitX=0.596;exitY=0.004;exitDx=0;exitDy=0;exitPerimeter=0;" parent="WIyWlLk6GJQsqaUBKTNV-1" source="dm6teemk28US-Uhx1sEG-80" edge="1">
          <mxGeometry width="160" relative="1" as="geometry">
            <mxPoint x="-955" y="-1900" as="sourcePoint" />
            <mxPoint x="-955" y="-1950" as="targetPoint" />
            <Array as="points">
              <mxPoint x="-1275.5700000000002" y="-1939" />
            </Array>
          </mxGeometry>
        </mxCell>
        <mxCell id="7QKVaCc_7s8-cdnk_iKY-0" value="account_access" style="swimlane;fontStyle=0;align=center;verticalAlign=top;childLayout=stackLayout;horizontal=1;startSize=26;horizontalStack=0;resizeParent=1;resizeLast=0;collapsible=1;marginBottom=0;rounded=0;shadow=0;strokeWidth=1;" parent="WIyWlLk6GJQsqaUBKTNV-1" vertex="1">
          <mxGeometry x="-1081" y="-2124" width="210" height="60" as="geometry">
            <mxRectangle x="550" y="140" width="160" height="26" as="alternateBounds" />
          </mxGeometry>
        </mxCell>
        <mxCell id="7QKVaCc_7s8-cdnk_iKY-1" value="" style="line;html=1;strokeWidth=1;align=left;verticalAlign=middle;spacingTop=-1;spacingLeft=3;spacingRight=3;rotatable=0;labelPosition=right;points=[];portConstraint=eastwest;" parent="7QKVaCc_7s8-cdnk_iKY-0" vertex="1">
          <mxGeometry y="26" width="210" height="8" as="geometry" />
        </mxCell>
        <mxCell id="7QKVaCc_7s8-cdnk_iKY-2" value="+signIn(email:string,password:string)" style="text;align=left;verticalAlign=top;spacingLeft=4;spacingRight=4;overflow=hidden;rotatable=0;points=[[0,0.5],[1,0.5]];portConstraint=eastwest;" parent="7QKVaCc_7s8-cdnk_iKY-0" vertex="1">
          <mxGeometry y="34" width="210" height="26" as="geometry" />
        </mxCell>
        <mxCell id="7QKVaCc_7s8-cdnk_iKY-3" value="" style="endArrow=open;endFill=1;endSize=12;html=1;rounded=0;entryX=1;entryY=0.5;entryDx=0;entryDy=0;exitX=0.017;exitY=0.169;exitDx=0;exitDy=0;exitPerimeter=0;" parent="WIyWlLk6GJQsqaUBKTNV-1" edge="1">
          <mxGeometry width="160" relative="1" as="geometry">
            <mxPoint x="-1082.7099999999998" y="-2090.6059999999998" as="sourcePoint" />
            <mxPoint x="-1185.28" y="-2088" as="targetPoint" />
          </mxGeometry>
        </mxCell>
        <mxCell id="7QKVaCc_7s8-cdnk_iKY-4" value="access" style="text;html=1;align=center;verticalAlign=middle;resizable=0;points=[];autosize=1;strokeColor=none;fillColor=none;" parent="WIyWlLk6GJQsqaUBKTNV-1" vertex="1">
          <mxGeometry x="-1164" y="-2118" width="60" height="30" as="geometry" />
        </mxCell>
        <mxCell id="6KwpjvI5Y8AULeYpcBRz-0" value="" style="endArrow=open;endFill=1;endSize=12;html=1;rounded=0;entryX=0.931;entryY=0.904;entryDx=0;entryDy=0;entryPerimeter=0;exitX=0.302;exitY=0.118;exitDx=0;exitDy=0;exitPerimeter=0;" parent="WIyWlLk6GJQsqaUBKTNV-1" source="dm6teemk28US-Uhx1sEG-62" target="Rs6AaWUYdlJJOVlor8ce-44" edge="1">
          <mxGeometry width="160" relative="1" as="geometry">
            <mxPoint x="-1408" y="-2066" as="sourcePoint" />
            <mxPoint x="-1600" y="-2064" as="targetPoint" />
          </mxGeometry>
        </mxCell>
        <mxCell id="6KwpjvI5Y8AULeYpcBRz-4" value="&lt;font style=&quot;font-size: 17px;&quot;&gt;Notify&lt;/font&gt;" style="endArrow=open;endSize=12;dashed=1;html=1;rounded=0;entryX=0.997;entryY=0.024;entryDx=0;entryDy=0;entryPerimeter=0;exitX=-0.001;exitY=0.22;exitDx=0;exitDy=0;exitPerimeter=0;" parent="WIyWlLk6GJQsqaUBKTNV-1" source="UPpW3QvQ503PZCW4TQQM-24" target="dm6teemk28US-Uhx1sEG-47" edge="1">
          <mxGeometry x="0.0855" y="-12" width="160" relative="1" as="geometry">
            <mxPoint x="240" y="-2220" as="sourcePoint" />
            <mxPoint x="220" y="-2064" as="targetPoint" />
            <Array as="points" />
            <mxPoint as="offset" />
          </mxGeometry>
        </mxCell>
        <mxCell id="6KwpjvI5Y8AULeYpcBRz-7" value="1" style="text;html=1;align=center;verticalAlign=middle;whiteSpace=wrap;rounded=0;" parent="WIyWlLk6GJQsqaUBKTNV-1" vertex="1">
          <mxGeometry x="-2067" y="-625" width="60" height="30" as="geometry" />
        </mxCell>
        <mxCell id="QmuiIm03l5nQFGx0jXv9-1" value="&amp;lt;&amp;lt;Order Management&amp;gt;&amp;gt;" style="text;html=1;align=center;verticalAlign=middle;whiteSpace=wrap;rounded=0;" parent="WIyWlLk6GJQsqaUBKTNV-1" vertex="1">
          <mxGeometry x="-380" y="-2142" width="60" height="30" as="geometry" />
        </mxCell>
        <mxCell id="QmuiIm03l5nQFGx0jXv9-2" value="&lt;font style=&quot;font-size: 16px;&quot;&gt;&amp;lt;&amp;lt;Auction Management&amp;gt;&amp;gt;&lt;/font&gt;" style="text;html=1;align=center;verticalAlign=middle;whiteSpace=wrap;rounded=0;" parent="WIyWlLk6GJQsqaUBKTNV-1" vertex="1">
          <mxGeometry x="-355" y="-1660" width="60" height="30" as="geometry" />
        </mxCell>
        <mxCell id="QmuiIm03l5nQFGx0jXv9-3" value="&amp;lt;&amp;lt;Notificatioion Management&amp;gt;&amp;gt;" style="text;html=1;align=center;verticalAlign=middle;whiteSpace=wrap;rounded=0;" parent="WIyWlLk6GJQsqaUBKTNV-1" vertex="1">
          <mxGeometry x="410" y="-2378" width="60" height="30" as="geometry" />
        </mxCell>
        <mxCell id="QmuiIm03l5nQFGx0jXv9-4" value="&amp;lt;&amp;lt;product Management&amp;gt;&amp;gt;" style="text;html=1;align=center;verticalAlign=middle;whiteSpace=wrap;rounded=0;" parent="WIyWlLk6GJQsqaUBKTNV-1" vertex="1">
          <mxGeometry x="-1770" y="-880" width="60" height="30" as="geometry" />
        </mxCell>
        <mxCell id="QmuiIm03l5nQFGx0jXv9-5" value="&amp;lt;&amp;lt;Customization request Management&amp;gt;&amp;gt;" style="text;html=1;align=center;verticalAlign=middle;whiteSpace=wrap;rounded=0;" parent="WIyWlLk6GJQsqaUBKTNV-1" vertex="1">
          <mxGeometry x="-804" y="-830" width="60" height="30" as="geometry" />
        </mxCell>
        <mxCell id="QmuiIm03l5nQFGx0jXv9-6" value="&amp;lt;&amp;lt;messaging&amp;gt;&amp;gt;" style="text;html=1;align=center;verticalAlign=middle;whiteSpace=wrap;rounded=0;" parent="WIyWlLk6GJQsqaUBKTNV-1" vertex="1">
          <mxGeometry x="-584" y="-290" width="60" height="30" as="geometry" />
        </mxCell>
        <mxCell id="QmuiIm03l5nQFGx0jXv9-7" value="create" style="endArrow=open;endSize=12;dashed=1;html=1;rounded=0;exitX=-0.007;exitY=0.121;exitDx=0;exitDy=0;exitPerimeter=0;entryX=0;entryY=0.63;entryDx=0;entryDy=0;entryPerimeter=0;" parent="WIyWlLk6GJQsqaUBKTNV-1" target="bvaL93AAkVeGiQjm07bp-16" edge="1">
          <mxGeometry width="160" relative="1" as="geometry">
            <mxPoint x="-654" y="-823.5" as="sourcePoint" />
            <mxPoint x="-755" y="-886.5" as="targetPoint" />
          </mxGeometry>
        </mxCell>
        <mxCell id="bvaL93AAkVeGiQjm07bp-11" value="+place_order()" style="text;align=left;verticalAlign=top;spacingLeft=4;spacingRight=4;overflow=hidden;rotatable=0;points=[[0,0.5],[1,0.5]];portConstraint=eastwest;" parent="WIyWlLk6GJQsqaUBKTNV-1" vertex="1">
          <mxGeometry x="-490" y="-1740" width="210" height="26" as="geometry" />
        </mxCell>
        <mxCell id="njConUx2gpbWzHYmU8oM-2" value="biding_order" style="swimlane;fontStyle=2;align=center;verticalAlign=top;childLayout=stackLayout;horizontal=1;startSize=26;horizontalStack=0;resizeParent=1;resizeLast=0;collapsible=1;marginBottom=0;rounded=0;shadow=0;strokeWidth=1;" parent="WIyWlLk6GJQsqaUBKTNV-1" vertex="1">
          <mxGeometry x="-190" y="-1796" width="186" height="86" as="geometry">
            <mxRectangle x="230" y="140" width="160" height="26" as="alternateBounds" />
          </mxGeometry>
        </mxCell>
        <mxCell id="njConUx2gpbWzHYmU8oM-3" value="-biding_amount:float" style="text;align=left;verticalAlign=top;spacingLeft=4;spacingRight=4;overflow=hidden;rotatable=0;points=[[0,0.5],[1,0.5]];portConstraint=eastwest;" parent="njConUx2gpbWzHYmU8oM-2" vertex="1">
          <mxGeometry y="26" width="186" height="26" as="geometry" />
        </mxCell>
        <mxCell id="njConUx2gpbWzHYmU8oM-8" value="" style="line;html=1;strokeWidth=1;align=left;verticalAlign=middle;spacingTop=-1;spacingLeft=3;spacingRight=3;rotatable=0;labelPosition=right;points=[];portConstraint=eastwest;" parent="njConUx2gpbWzHYmU8oM-2" vertex="1">
          <mxGeometry y="52" width="186" height="8" as="geometry" />
        </mxCell>
        <mxCell id="njConUx2gpbWzHYmU8oM-9" value="+close_order()" style="text;align=left;verticalAlign=top;spacingLeft=4;spacingRight=4;overflow=hidden;rotatable=0;points=[[0,0.5],[1,0.5]];portConstraint=eastwest;" parent="njConUx2gpbWzHYmU8oM-2" vertex="1">
          <mxGeometry y="60" width="186" height="26" as="geometry" />
        </mxCell>
        <mxCell id="94fiQG-NUgiilBV_E3z4-0" value="&lt;p style=&quot;margin:0px;margin-top:4px;text-align:center;&quot;&gt;&lt;i&gt;&amp;lt;&amp;lt;Interface&amp;gt;&amp;gt;&lt;/i&gt;&lt;br&gt;&lt;b&gt;IProduct&lt;/b&gt;&lt;/p&gt;&lt;hr size=&quot;1&quot; style=&quot;border-style:solid;&quot;&gt;&lt;p style=&quot;margin:0px;margin-left:4px;&quot;&gt;&lt;br&gt;&lt;/p&gt;&lt;hr size=&quot;1&quot; style=&quot;border-style:solid;&quot;&gt;&lt;p style=&quot;margin:0px;margin-left:4px;&quot;&gt;+makeProduct()&lt;/p&gt;" style="verticalAlign=top;align=left;overflow=fill;html=1;whiteSpace=wrap;" parent="WIyWlLk6GJQsqaUBKTNV-1" vertex="1">
          <mxGeometry x="-1780" y="-830" width="190" height="90" as="geometry" />
        </mxCell>
        <mxCell id="94fiQG-NUgiilBV_E3z4-1" value="" style="endArrow=block;endSize=10;endFill=0;shadow=0;strokeWidth=1;rounded=0;curved=0;edgeStyle=elbowEdgeStyle;elbow=vertical;entryX=0.123;entryY=1.077;entryDx=0;entryDy=0;entryPerimeter=0;exitX=0.059;exitY=0.007;exitDx=0;exitDy=0;exitPerimeter=0;" parent="WIyWlLk6GJQsqaUBKTNV-1" source="A3RSYJNHKTK07t-ZciKc-1" edge="1">
          <mxGeometry width="160" relative="1" as="geometry">
            <mxPoint x="-1940" y="-652" as="sourcePoint" />
            <mxPoint x="-1747" y="-740" as="targetPoint" />
          </mxGeometry>
        </mxCell>
        <mxCell id="94fiQG-NUgiilBV_E3z4-2" value="ProductDecorator" style="swimlane;fontStyle=0;align=center;verticalAlign=top;childLayout=stackLayout;horizontal=1;startSize=26;horizontalStack=0;resizeParent=1;resizeLast=0;collapsible=1;marginBottom=0;rounded=0;shadow=0;strokeWidth=1;" parent="WIyWlLk6GJQsqaUBKTNV-1" vertex="1">
          <mxGeometry x="-1604" y="-350" width="440" height="50" as="geometry">
            <mxRectangle x="130" y="380" width="160" height="26" as="alternateBounds" />
          </mxGeometry>
        </mxCell>
        <mxCell id="94fiQG-NUgiilBV_E3z4-12" value="" style="line;html=1;strokeWidth=1;align=left;verticalAlign=middle;spacingTop=-1;spacingLeft=3;spacingRight=3;rotatable=0;labelPosition=right;points=[];portConstraint=eastwest;" parent="94fiQG-NUgiilBV_E3z4-2" vertex="1">
          <mxGeometry y="26" width="440" height="8" as="geometry" />
        </mxCell>
        <mxCell id="94fiQG-NUgiilBV_E3z4-13" value="" style="endArrow=block;endSize=10;endFill=0;shadow=0;strokeWidth=1;rounded=0;curved=0;edgeStyle=elbowEdgeStyle;elbow=vertical;exitX=0.287;exitY=0.024;exitDx=0;exitDy=0;exitPerimeter=0;entryX=0.561;entryY=1.108;entryDx=0;entryDy=0;entryPerimeter=0;" parent="WIyWlLk6GJQsqaUBKTNV-1" source="94fiQG-NUgiilBV_E3z4-2" edge="1">
          <mxGeometry width="160" relative="1" as="geometry">
            <mxPoint x="-1420" y="-675" as="sourcePoint" />
            <mxPoint x="-1701" y="-740" as="targetPoint" />
            <Array as="points">
              <mxPoint x="-1750" y="-685" />
            </Array>
          </mxGeometry>
        </mxCell>
        <mxCell id="94fiQG-NUgiilBV_E3z4-20" value="CustomizedProduct" style="swimlane;fontStyle=1;align=center;verticalAlign=top;childLayout=stackLayout;horizontal=1;startSize=26;horizontalStack=0;resizeParent=1;resizeParentMax=0;resizeLast=0;collapsible=1;marginBottom=0;whiteSpace=wrap;html=1;" parent="WIyWlLk6GJQsqaUBKTNV-1" vertex="1">
          <mxGeometry x="-1715" y="-202" width="280" height="112" as="geometry" />
        </mxCell>
        <mxCell id="94fiQG-NUgiilBV_E3z4-21" value="&lt;span style=&quot;font-weight: 700; text-align: center;&quot;&gt;-postCustomizationRequsetID:int&lt;/span&gt;" style="text;strokeColor=none;fillColor=none;align=left;verticalAlign=top;spacingLeft=4;spacingRight=4;overflow=hidden;rotatable=0;points=[[0,0.5],[1,0.5]];portConstraint=eastwest;whiteSpace=wrap;html=1;" parent="94fiQG-NUgiilBV_E3z4-20" vertex="1">
          <mxGeometry y="26" width="280" height="26" as="geometry" />
        </mxCell>
        <mxCell id="94fiQG-NUgiilBV_E3z4-28" value="&lt;div style=&quot;text-align: center;&quot;&gt;&lt;span style=&quot;background-color: initial;&quot;&gt;&lt;b&gt;-requests:list&lt;/b&gt;&lt;/span&gt;&lt;/div&gt;" style="text;strokeColor=none;fillColor=none;align=left;verticalAlign=top;spacingLeft=4;spacingRight=4;overflow=hidden;rotatable=0;points=[[0,0.5],[1,0.5]];portConstraint=eastwest;whiteSpace=wrap;html=1;" parent="94fiQG-NUgiilBV_E3z4-20" vertex="1">
          <mxGeometry y="52" width="280" height="26" as="geometry" />
        </mxCell>
        <mxCell id="94fiQG-NUgiilBV_E3z4-22" value="" style="line;strokeWidth=1;fillColor=none;align=left;verticalAlign=middle;spacingTop=-1;spacingLeft=3;spacingRight=3;rotatable=0;labelPosition=right;points=[];portConstraint=eastwest;strokeColor=inherit;" parent="94fiQG-NUgiilBV_E3z4-20" vertex="1">
          <mxGeometry y="78" width="280" height="8" as="geometry" />
        </mxCell>
        <mxCell id="94fiQG-NUgiilBV_E3z4-23" value="+ addRequest(string)" style="text;strokeColor=none;fillColor=none;align=left;verticalAlign=top;spacingLeft=4;spacingRight=4;overflow=hidden;rotatable=0;points=[[0,0.5],[1,0.5]];portConstraint=eastwest;whiteSpace=wrap;html=1;" parent="94fiQG-NUgiilBV_E3z4-20" vertex="1">
          <mxGeometry y="86" width="280" height="26" as="geometry" />
        </mxCell>
        <mxCell id="94fiQG-NUgiilBV_E3z4-24" value="Personlized_Product" style="swimlane;fontStyle=1;align=center;verticalAlign=top;childLayout=stackLayout;horizontal=1;startSize=26;horizontalStack=0;resizeParent=1;resizeParentMax=0;resizeLast=0;collapsible=1;marginBottom=0;whiteSpace=wrap;html=1;" parent="WIyWlLk6GJQsqaUBKTNV-1" vertex="1">
          <mxGeometry x="-1296" y="-206" width="226" height="86" as="geometry" />
        </mxCell>
        <mxCell id="94fiQG-NUgiilBV_E3z4-25" value="+ options:list&amp;lt;list&amp;lt;String&amp;gt;&amp;gt;" style="text;strokeColor=none;fillColor=none;align=left;verticalAlign=top;spacingLeft=4;spacingRight=4;overflow=hidden;rotatable=0;points=[[0,0.5],[1,0.5]];portConstraint=eastwest;whiteSpace=wrap;html=1;" parent="94fiQG-NUgiilBV_E3z4-24" vertex="1">
          <mxGeometry y="26" width="226" height="26" as="geometry" />
        </mxCell>
        <mxCell id="94fiQG-NUgiilBV_E3z4-26" value="" style="line;strokeWidth=1;fillColor=none;align=left;verticalAlign=middle;spacingTop=-1;spacingLeft=3;spacingRight=3;rotatable=0;labelPosition=right;points=[];portConstraint=eastwest;strokeColor=inherit;" parent="94fiQG-NUgiilBV_E3z4-24" vertex="1">
          <mxGeometry y="52" width="226" height="8" as="geometry" />
        </mxCell>
        <mxCell id="94fiQG-NUgiilBV_E3z4-27" value="+ appOptions(string)" style="text;strokeColor=none;fillColor=none;align=left;verticalAlign=top;spacingLeft=4;spacingRight=4;overflow=hidden;rotatable=0;points=[[0,0.5],[1,0.5]];portConstraint=eastwest;whiteSpace=wrap;html=1;" parent="94fiQG-NUgiilBV_E3z4-24" vertex="1">
          <mxGeometry y="60" width="226" height="26" as="geometry" />
        </mxCell>
        <mxCell id="94fiQG-NUgiilBV_E3z4-29" value="" style="endArrow=block;endSize=10;endFill=0;shadow=0;strokeWidth=1;rounded=0;curved=0;edgeStyle=elbowEdgeStyle;elbow=vertical;exitX=0.621;exitY=0.014;exitDx=0;exitDy=0;exitPerimeter=0;entryX=0.561;entryY=1.108;entryDx=0;entryDy=0;entryPerimeter=0;" parent="WIyWlLk6GJQsqaUBKTNV-1" source="94fiQG-NUgiilBV_E3z4-24" edge="1">
          <mxGeometry width="160" relative="1" as="geometry">
            <mxPoint x="-1055.5" y="-235" as="sourcePoint" />
            <mxPoint x="-1336.5" y="-300" as="targetPoint" />
            <Array as="points">
              <mxPoint x="-1385.5" y="-245" />
            </Array>
          </mxGeometry>
        </mxCell>
        <mxCell id="94fiQG-NUgiilBV_E3z4-30" value="" style="endArrow=block;endSize=10;endFill=0;shadow=0;strokeWidth=1;rounded=0;curved=0;edgeStyle=elbowEdgeStyle;elbow=vertical;entryX=0.123;entryY=1.077;entryDx=0;entryDy=0;entryPerimeter=0;exitX=0.25;exitY=0;exitDx=0;exitDy=0;" parent="WIyWlLk6GJQsqaUBKTNV-1" source="94fiQG-NUgiilBV_E3z4-20" edge="1">
          <mxGeometry width="160" relative="1" as="geometry">
            <mxPoint x="-1696.5" y="-212" as="sourcePoint" />
            <mxPoint x="-1503.5" y="-300" as="targetPoint" />
          </mxGeometry>
        </mxCell>
        <mxCell id="94fiQG-NUgiilBV_E3z4-31" value="1" style="text;html=1;align=center;verticalAlign=middle;whiteSpace=wrap;rounded=0;" parent="WIyWlLk6GJQsqaUBKTNV-1" vertex="1">
          <mxGeometry x="-2067" y="-170" width="60" height="30" as="geometry" />
        </mxCell>
        <mxCell id="q637Gu_soD_jAeFLe_u1-3" value="&lt;font style=&quot;font-size: 17px;&quot;&gt;generate&lt;/font&gt;" style="endArrow=open;endSize=12;dashed=1;html=1;rounded=0;exitX=0.821;exitY=0.066;exitDx=0;exitDy=0;exitPerimeter=0;entryX=0;entryY=0;entryDx=0;entryDy=195;entryPerimeter=0;" parent="WIyWlLk6GJQsqaUBKTNV-1" source="bvaL93AAkVeGiQjm07bp-16" target="UPpW3QvQ503PZCW4TQQM-24" edge="1">
          <mxGeometry x="-0.5605" y="-7" width="160" relative="1" as="geometry">
            <mxPoint x="220" y="-1884" as="sourcePoint" />
            <mxPoint x="230" y="-2200" as="targetPoint" />
            <Array as="points">
              <mxPoint x="150" y="-2170" />
            </Array>
            <mxPoint as="offset" />
          </mxGeometry>
        </mxCell>
        <mxCell id="q637Gu_soD_jAeFLe_u1-5" value="" style="endArrow=block;endSize=10;endFill=0;shadow=0;strokeWidth=1;rounded=0;curved=0;edgeStyle=elbowEdgeStyle;elbow=vertical;entryX=0.123;entryY=1.077;entryDx=0;entryDy=0;entryPerimeter=0;" parent="WIyWlLk6GJQsqaUBKTNV-1" edge="1">
          <mxGeometry width="160" relative="1" as="geometry">
            <mxPoint x="-1263" y="-1880" as="sourcePoint" />
            <mxPoint x="-1070" y="-1954" as="targetPoint" />
          </mxGeometry>
        </mxCell>
        <mxCell id="q637Gu_soD_jAeFLe_u1-6" value="&lt;font style=&quot;font-size: 17px;&quot;&gt;generate&lt;/font&gt;" style="endArrow=open;endSize=12;dashed=1;html=1;rounded=0;exitX=0.854;exitY=0.014;exitDx=0;exitDy=0;exitPerimeter=0;entryX=0.174;entryY=1.003;entryDx=0;entryDy=0;entryPerimeter=0;" parent="WIyWlLk6GJQsqaUBKTNV-1" source="dm6teemk28US-Uhx1sEG-0" target="UPpW3QvQ503PZCW4TQQM-24" edge="1">
          <mxGeometry x="-0.4705" y="-24" width="160" relative="1" as="geometry">
            <mxPoint x="245" y="-1610" as="sourcePoint" />
            <mxPoint x="430" y="-1680" as="targetPoint" />
            <Array as="points">
              <mxPoint x="370" y="-1670" />
            </Array>
            <mxPoint y="1" as="offset" />
          </mxGeometry>
        </mxCell>
        <mxCell id="q637Gu_soD_jAeFLe_u1-14" value="" style="endArrow=open;endFill=1;endSize=12;html=1;rounded=0;entryX=1;entryY=0.5;entryDx=0;entryDy=0;exitX=0;exitY=0.5;exitDx=0;exitDy=0;" parent="WIyWlLk6GJQsqaUBKTNV-1" edge="1">
          <mxGeometry width="160" relative="1" as="geometry">
            <mxPoint x="120" y="-1360" as="sourcePoint" />
            <mxPoint y="-1360.0000000000005" as="targetPoint" />
            <Array as="points">
              <mxPoint x="40" y="-1360" />
            </Array>
          </mxGeometry>
        </mxCell>
        <mxCell id="q637Gu_soD_jAeFLe_u1-15" value="1..*" style="text;html=1;strokeColor=none;fillColor=none;align=center;verticalAlign=middle;whiteSpace=wrap;rounded=0;" parent="WIyWlLk6GJQsqaUBKTNV-1" vertex="1">
          <mxGeometry y="-1380" width="30" height="10" as="geometry" />
        </mxCell>
        <mxCell id="q637Gu_soD_jAeFLe_u1-16" value="1" style="text;html=1;strokeColor=none;fillColor=none;align=center;verticalAlign=middle;whiteSpace=wrap;rounded=0;" parent="WIyWlLk6GJQsqaUBKTNV-1" vertex="1">
          <mxGeometry x="100" y="-1380" width="20" height="10" as="geometry" />
        </mxCell>
        <mxCell id="q637Gu_soD_jAeFLe_u1-17" value="add" style="text;html=1;strokeColor=none;fillColor=none;align=center;verticalAlign=middle;whiteSpace=wrap;rounded=0;" parent="WIyWlLk6GJQsqaUBKTNV-1" vertex="1">
          <mxGeometry x="36" y="-1390" width="60" height="30" as="geometry" />
        </mxCell>
        <mxCell id="q637Gu_soD_jAeFLe_u1-24" value="AuctionRequest" style="swimlane;fontStyle=2;align=center;verticalAlign=top;childLayout=stackLayout;horizontal=1;startSize=26;horizontalStack=0;resizeParent=1;resizeLast=0;collapsible=1;marginBottom=0;rounded=0;shadow=0;strokeWidth=1;" parent="WIyWlLk6GJQsqaUBKTNV-1" vertex="1">
          <mxGeometry x="30" y="-1260" width="420" height="188" as="geometry">
            <mxRectangle x="230" y="140" width="160" height="26" as="alternateBounds" />
          </mxGeometry>
        </mxCell>
        <mxCell id="q637Gu_soD_jAeFLe_u1-25" value="- auctionRequestID:int" style="text;align=left;verticalAlign=top;spacingLeft=4;spacingRight=4;overflow=hidden;rotatable=0;points=[[0,0.5],[1,0.5]];portConstraint=eastwest;" parent="q637Gu_soD_jAeFLe_u1-24" vertex="1">
          <mxGeometry y="26" width="420" height="24" as="geometry" />
        </mxCell>
        <mxCell id="q637Gu_soD_jAeFLe_u1-36" value="-product_description:string" style="text;align=left;verticalAlign=top;spacingLeft=4;spacingRight=4;overflow=hidden;rotatable=0;points=[[0,0.5],[1,0.5]];portConstraint=eastwest;" parent="q637Gu_soD_jAeFLe_u1-24" vertex="1">
          <mxGeometry y="50" width="420" height="24" as="geometry" />
        </mxCell>
        <mxCell id="IZNv1gLnLJnbKeBYkeAr-6" value="- ArtistId:int" style="text;align=left;verticalAlign=top;spacingLeft=4;spacingRight=4;overflow=hidden;rotatable=0;points=[[0,0.5],[1,0.5]];portConstraint=eastwest;" parent="q637Gu_soD_jAeFLe_u1-24" vertex="1">
          <mxGeometry y="74" width="420" height="24" as="geometry" />
        </mxCell>
        <mxCell id="q637Gu_soD_jAeFLe_u1-26" value="- Image:string" style="text;align=left;verticalAlign=top;spacingLeft=4;spacingRight=4;overflow=hidden;rotatable=0;points=[[0,0.5],[1,0.5]];portConstraint=eastwest;" parent="q637Gu_soD_jAeFLe_u1-24" vertex="1">
          <mxGeometry y="98" width="420" height="20" as="geometry" />
        </mxCell>
        <mxCell id="q637Gu_soD_jAeFLe_u1-27" value="-is_approved:bool" style="text;align=left;verticalAlign=top;spacingLeft=4;spacingRight=4;overflow=hidden;rotatable=0;points=[[0,0.5],[1,0.5]];portConstraint=eastwest;" parent="q637Gu_soD_jAeFLe_u1-24" vertex="1">
          <mxGeometry y="118" width="420" height="20" as="geometry" />
        </mxCell>
        <mxCell id="IZNv1gLnLJnbKeBYkeAr-5" value=" - startingBid: float" style="text;align=left;verticalAlign=top;spacingLeft=4;spacingRight=4;overflow=hidden;rotatable=0;points=[[0,0.5],[1,0.5]];portConstraint=eastwest;" parent="q637Gu_soD_jAeFLe_u1-24" vertex="1">
          <mxGeometry y="138" width="420" height="20" as="geometry" />
        </mxCell>
        <mxCell id="q637Gu_soD_jAeFLe_u1-35" value="" style="line;html=1;strokeWidth=1;align=left;verticalAlign=middle;spacingTop=-1;spacingLeft=3;spacingRight=3;rotatable=0;labelPosition=right;points=[];portConstraint=eastwest;" parent="q637Gu_soD_jAeFLe_u1-24" vertex="1">
          <mxGeometry y="158" width="420" height="30" as="geometry" />
        </mxCell>
        <mxCell id="q637Gu_soD_jAeFLe_u1-37" value="" style="endArrow=open;endFill=1;endSize=12;html=1;rounded=0;exitX=0;exitY=0.5;exitDx=0;exitDy=0;" parent="WIyWlLk6GJQsqaUBKTNV-1" target="q637Gu_soD_jAeFLe_u1-24" edge="1">
          <mxGeometry width="160" relative="1" as="geometry">
            <mxPoint x="120" y="-1290" as="sourcePoint" />
            <mxPoint y="-1290.0000000000005" as="targetPoint" />
            <Array as="points">
              <mxPoint x="40" y="-1290" />
            </Array>
          </mxGeometry>
        </mxCell>
        <mxCell id="q637Gu_soD_jAeFLe_u1-38" value="manage" style="text;html=1;strokeColor=none;fillColor=none;align=center;verticalAlign=middle;whiteSpace=wrap;rounded=0;" parent="WIyWlLk6GJQsqaUBKTNV-1" vertex="1">
          <mxGeometry x="50" y="-1316" width="60" height="30" as="geometry" />
        </mxCell>
        <mxCell id="q637Gu_soD_jAeFLe_u1-39" value="1" style="text;html=1;strokeColor=none;fillColor=none;align=center;verticalAlign=middle;whiteSpace=wrap;rounded=0;" parent="WIyWlLk6GJQsqaUBKTNV-1" vertex="1">
          <mxGeometry x="100" y="-1306" width="20" height="10" as="geometry" />
        </mxCell>
        <mxCell id="q637Gu_soD_jAeFLe_u1-40" value="1..*" style="text;html=1;strokeColor=none;fillColor=none;align=center;verticalAlign=middle;whiteSpace=wrap;rounded=0;" parent="WIyWlLk6GJQsqaUBKTNV-1" vertex="1">
          <mxGeometry x="85" y="-1270" width="30" height="10" as="geometry" />
        </mxCell>
        <mxCell id="q637Gu_soD_jAeFLe_u1-43" value="offerManager" style="swimlane;fontStyle=1;align=center;verticalAlign=top;childLayout=stackLayout;horizontal=1;startSize=26;horizontalStack=0;resizeParent=1;resizeParentMax=0;resizeLast=0;collapsible=1;marginBottom=0;whiteSpace=wrap;html=1;" parent="WIyWlLk6GJQsqaUBKTNV-1" vertex="1">
          <mxGeometry x="-480" y="-488" width="340" height="138" as="geometry" />
        </mxCell>
        <mxCell id="q637Gu_soD_jAeFLe_u1-44" value="" style="line;strokeWidth=1;fillColor=none;align=left;verticalAlign=middle;spacingTop=-1;spacingLeft=3;spacingRight=3;rotatable=0;labelPosition=right;points=[];portConstraint=eastwest;strokeColor=inherit;" parent="q637Gu_soD_jAeFLe_u1-43" vertex="1">
          <mxGeometry y="26" width="340" height="8" as="geometry" />
        </mxCell>
        <mxCell id="q637Gu_soD_jAeFLe_u1-46" value="+send_offer()" style="text;strokeColor=none;fillColor=none;align=left;verticalAlign=top;spacingLeft=4;spacingRight=4;overflow=hidden;rotatable=0;points=[[0,0.5],[1,0.5]];portConstraint=eastwest;whiteSpace=wrap;html=1;" parent="q637Gu_soD_jAeFLe_u1-43" vertex="1">
          <mxGeometry y="34" width="340" height="26" as="geometry" />
        </mxCell>
        <mxCell id="q637Gu_soD_jAeFLe_u1-49" value="+receive_offer():Offer" style="text;strokeColor=none;fillColor=none;align=left;verticalAlign=top;spacingLeft=4;spacingRight=4;overflow=hidden;rotatable=0;points=[[0,0.5],[1,0.5]];portConstraint=eastwest;whiteSpace=wrap;html=1;" parent="q637Gu_soD_jAeFLe_u1-43" vertex="1">
          <mxGeometry y="60" width="340" height="26" as="geometry" />
        </mxCell>
        <mxCell id="q637Gu_soD_jAeFLe_u1-47" value="+accept_offer(offer_id)" style="text;strokeColor=none;fillColor=none;align=left;verticalAlign=top;spacingLeft=4;spacingRight=4;overflow=hidden;rotatable=0;points=[[0,0.5],[1,0.5]];portConstraint=eastwest;whiteSpace=wrap;html=1;" parent="q637Gu_soD_jAeFLe_u1-43" vertex="1">
          <mxGeometry y="86" width="340" height="26" as="geometry" />
        </mxCell>
        <mxCell id="q637Gu_soD_jAeFLe_u1-48" value="+reject_offer(offer_id)" style="text;strokeColor=none;fillColor=none;align=left;verticalAlign=top;spacingLeft=4;spacingRight=4;overflow=hidden;rotatable=0;points=[[0,0.5],[1,0.5]];portConstraint=eastwest;whiteSpace=wrap;html=1;" parent="q637Gu_soD_jAeFLe_u1-43" vertex="1">
          <mxGeometry y="112" width="340" height="26" as="geometry" />
        </mxCell>
        <mxCell id="q637Gu_soD_jAeFLe_u1-51" value="" style="endArrow=open;endFill=1;endSize=12;html=1;rounded=0;exitX=0;exitY=0.5;exitDx=0;exitDy=0;" parent="WIyWlLk6GJQsqaUBKTNV-1" source="q637Gu_soD_jAeFLe_u1-46" target="A3RSYJNHKTK07t-ZciKc-74" edge="1">
          <mxGeometry width="160" relative="1" as="geometry">
            <mxPoint x="-520" y="-471" as="sourcePoint" />
            <mxPoint x="-640" y="-476" as="targetPoint" />
          </mxGeometry>
        </mxCell>
        <mxCell id="q637Gu_soD_jAeFLe_u1-52" value="manage" style="text;html=1;align=center;verticalAlign=middle;whiteSpace=wrap;rounded=0;" parent="WIyWlLk6GJQsqaUBKTNV-1" vertex="1">
          <mxGeometry x="-570" y="-505" width="60" height="30" as="geometry" />
        </mxCell>
        <mxCell id="q637Gu_soD_jAeFLe_u1-53" value="1" style="text;html=1;align=center;verticalAlign=middle;whiteSpace=wrap;rounded=0;" parent="WIyWlLk6GJQsqaUBKTNV-1" vertex="1">
          <mxGeometry x="-520" y="-478" width="60" height="30" as="geometry" />
        </mxCell>
        <mxCell id="q637Gu_soD_jAeFLe_u1-54" value="1..*" style="text;html=1;align=center;verticalAlign=middle;whiteSpace=wrap;rounded=0;" parent="WIyWlLk6GJQsqaUBKTNV-1" vertex="1">
          <mxGeometry x="-614" y="-521" width="60" height="30" as="geometry" />
        </mxCell>
        <mxCell id="tdPHjlki5LSOHwfFaQ_Z-5" value="DatabaseConnection" style="swimlane;fontStyle=1;align=center;verticalAlign=top;childLayout=stackLayout;horizontal=1;startSize=26;horizontalStack=0;resizeParent=1;resizeParentMax=0;resizeLast=0;collapsible=1;marginBottom=0;whiteSpace=wrap;html=1;" parent="WIyWlLk6GJQsqaUBKTNV-1" vertex="1">
          <mxGeometry x="150" y="-696" width="240" height="216" as="geometry" />
        </mxCell>
        <mxCell id="tdPHjlki5LSOHwfFaQ_Z-6" value="-instance :DatabaseConnection" style="text;strokeColor=none;fillColor=none;align=left;verticalAlign=top;spacingLeft=4;spacingRight=4;overflow=hidden;rotatable=0;points=[[0,0.5],[1,0.5]];portConstraint=eastwest;whiteSpace=wrap;html=1;" parent="tdPHjlki5LSOHwfFaQ_Z-5" vertex="1">
          <mxGeometry y="26" width="240" height="26" as="geometry" />
        </mxCell>
        <mxCell id="tdPHjlki5LSOHwfFaQ_Z-13" value="-connection :Connection" style="text;strokeColor=none;fillColor=none;align=left;verticalAlign=top;spacingLeft=4;spacingRight=4;overflow=hidden;rotatable=0;points=[[0,0.5],[1,0.5]];portConstraint=eastwest;whiteSpace=wrap;html=1;" parent="tdPHjlki5LSOHwfFaQ_Z-5" vertex="1">
          <mxGeometry y="52" width="240" height="26" as="geometry" />
        </mxCell>
        <mxCell id="tdPHjlki5LSOHwfFaQ_Z-7" value="" style="line;strokeWidth=1;fillColor=none;align=left;verticalAlign=middle;spacingTop=-1;spacingLeft=3;spacingRight=3;rotatable=0;labelPosition=right;points=[];portConstraint=eastwest;strokeColor=inherit;" parent="tdPHjlki5LSOHwfFaQ_Z-5" vertex="1">
          <mxGeometry y="78" width="240" height="8" as="geometry" />
        </mxCell>
        <mxCell id="tdPHjlki5LSOHwfFaQ_Z-8" value="-DatabaseConnection()" style="text;strokeColor=none;fillColor=none;align=left;verticalAlign=top;spacingLeft=4;spacingRight=4;overflow=hidden;rotatable=0;points=[[0,0.5],[1,0.5]];portConstraint=eastwest;whiteSpace=wrap;html=1;" parent="tdPHjlki5LSOHwfFaQ_Z-5" vertex="1">
          <mxGeometry y="86" width="240" height="26" as="geometry" />
        </mxCell>
        <mxCell id="tdPHjlki5LSOHwfFaQ_Z-10" value="+get_instance() :DatabaseConnection" style="text;strokeColor=none;fillColor=none;align=left;verticalAlign=top;spacingLeft=4;spacingRight=4;overflow=hidden;rotatable=0;points=[[0,0.5],[1,0.5]];portConstraint=eastwest;whiteSpace=wrap;html=1;" parent="tdPHjlki5LSOHwfFaQ_Z-5" vertex="1">
          <mxGeometry y="112" width="240" height="26" as="geometry" />
        </mxCell>
        <mxCell id="tdPHjlki5LSOHwfFaQ_Z-11" value="+connect()" style="text;strokeColor=none;fillColor=none;align=left;verticalAlign=top;spacingLeft=4;spacingRight=4;overflow=hidden;rotatable=0;points=[[0,0.5],[1,0.5]];portConstraint=eastwest;whiteSpace=wrap;html=1;" parent="tdPHjlki5LSOHwfFaQ_Z-5" vertex="1">
          <mxGeometry y="138" width="240" height="26" as="geometry" />
        </mxCell>
        <mxCell id="tdPHjlki5LSOHwfFaQ_Z-12" value="+disconnect()" style="text;strokeColor=none;fillColor=none;align=left;verticalAlign=top;spacingLeft=4;spacingRight=4;overflow=hidden;rotatable=0;points=[[0,0.5],[1,0.5]];portConstraint=eastwest;whiteSpace=wrap;html=1;" parent="tdPHjlki5LSOHwfFaQ_Z-5" vertex="1">
          <mxGeometry y="164" width="240" height="26" as="geometry" />
        </mxCell>
        <mxCell id="tdPHjlki5LSOHwfFaQ_Z-14" value="+execute_query(query:String):ResultSet" style="text;strokeColor=none;fillColor=none;align=left;verticalAlign=top;spacingLeft=4;spacingRight=4;overflow=hidden;rotatable=0;points=[[0,0.5],[1,0.5]];portConstraint=eastwest;whiteSpace=wrap;html=1;" parent="tdPHjlki5LSOHwfFaQ_Z-5" vertex="1">
          <mxGeometry y="190" width="240" height="26" as="geometry" />
        </mxCell>
        <mxCell id="tdPHjlki5LSOHwfFaQ_Z-16" value="DatabaseManager" style="swimlane;fontStyle=1;align=center;verticalAlign=top;childLayout=stackLayout;horizontal=1;startSize=26;horizontalStack=0;resizeParent=1;resizeParentMax=0;resizeLast=0;collapsible=1;marginBottom=0;whiteSpace=wrap;html=1;" parent="WIyWlLk6GJQsqaUBKTNV-1" vertex="1">
          <mxGeometry x="470" y="-600" width="330" height="372" as="geometry" />
        </mxCell>
        <mxCell id="tdPHjlki5LSOHwfFaQ_Z-17" value="-instance :DatabaseManager" style="text;strokeColor=none;fillColor=none;align=left;verticalAlign=top;spacingLeft=4;spacingRight=4;overflow=hidden;rotatable=0;points=[[0,0.5],[1,0.5]];portConstraint=eastwest;whiteSpace=wrap;html=1;" parent="tdPHjlki5LSOHwfFaQ_Z-16" vertex="1">
          <mxGeometry y="26" width="330" height="26" as="geometry" />
        </mxCell>
        <mxCell id="tdPHjlki5LSOHwfFaQ_Z-18" value="&lt;div style=&quot;text-align: left;&quot;&gt;&lt;span style=&quot;background-color: initial; text-align: center;&quot;&gt;-account_management:&lt;/span&gt;&lt;span style=&quot;background-color: initial; text-align: center;&quot;&gt;Account_management&lt;/span&gt;&lt;/div&gt;" style="text;strokeColor=none;fillColor=none;align=left;verticalAlign=top;spacingLeft=4;spacingRight=4;overflow=hidden;rotatable=0;points=[[0,0.5],[1,0.5]];portConstraint=eastwest;whiteSpace=wrap;html=1;" parent="tdPHjlki5LSOHwfFaQ_Z-16" vertex="1">
          <mxGeometry y="52" width="330" height="26" as="geometry" />
        </mxCell>
        <mxCell id="tdPHjlki5LSOHwfFaQ_Z-25" value="&lt;span style=&quot;text-align: center; text-wrap: nowrap;&quot;&gt;-o&lt;/span&gt;&lt;span style=&quot;text-align: center; text-wrap: nowrap;&quot;&gt;rder_management&lt;/span&gt;&lt;span style=&quot;text-align: center; text-wrap: nowrap;&quot;&gt;:Order_management&lt;/span&gt;" style="text;strokeColor=none;fillColor=none;align=left;verticalAlign=top;spacingLeft=4;spacingRight=4;overflow=hidden;rotatable=0;points=[[0,0.5],[1,0.5]];portConstraint=eastwest;whiteSpace=wrap;html=1;" parent="tdPHjlki5LSOHwfFaQ_Z-16" vertex="1">
          <mxGeometry y="78" width="330" height="26" as="geometry" />
        </mxCell>
        <mxCell id="tdPHjlki5LSOHwfFaQ_Z-26" value="&lt;span style=&quot;text-align: center; text-wrap: nowrap;&quot;&gt;-n&lt;/span&gt;&lt;span style=&quot;text-align: center; text-wrap: nowrap;&quot;&gt;otifiaction_management&lt;/span&gt;&lt;span style=&quot;text-align: center; text-wrap: nowrap;&quot;&gt;:Notifiaction_management&lt;/span&gt;" style="text;strokeColor=none;fillColor=none;align=left;verticalAlign=top;spacingLeft=4;spacingRight=4;overflow=hidden;rotatable=0;points=[[0,0.5],[1,0.5]];portConstraint=eastwest;whiteSpace=wrap;html=1;" parent="tdPHjlki5LSOHwfFaQ_Z-16" vertex="1">
          <mxGeometry y="104" width="330" height="26" as="geometry" />
        </mxCell>
        <mxCell id="tdPHjlki5LSOHwfFaQ_Z-27" value="&lt;span style=&quot;text-align: center; text-wrap: nowrap;&quot;&gt;-product_management:P&lt;/span&gt;&lt;span style=&quot;text-align: center; text-wrap: nowrap;&quot;&gt;roduct_management&lt;/span&gt;" style="text;strokeColor=none;fillColor=none;align=left;verticalAlign=top;spacingLeft=4;spacingRight=4;overflow=hidden;rotatable=0;points=[[0,0.5],[1,0.5]];portConstraint=eastwest;whiteSpace=wrap;html=1;" parent="tdPHjlki5LSOHwfFaQ_Z-16" vertex="1">
          <mxGeometry y="130" width="330" height="26" as="geometry" />
        </mxCell>
        <mxCell id="tdPHjlki5LSOHwfFaQ_Z-29" value="&lt;span style=&quot;text-align: center; text-wrap: nowrap;&quot;&gt;-&lt;/span&gt;&lt;span style=&quot;text-align: center; text-wrap: nowrap;&quot;&gt;category_management&lt;/span&gt;&lt;span style=&quot;text-align: center; text-wrap: nowrap;&quot;&gt;:C&lt;/span&gt;&lt;span style=&quot;text-align: center; text-wrap: nowrap;&quot;&gt;ategory_management&lt;/span&gt;" style="text;strokeColor=none;fillColor=none;align=left;verticalAlign=top;spacingLeft=4;spacingRight=4;overflow=hidden;rotatable=0;points=[[0,0.5],[1,0.5]];portConstraint=eastwest;whiteSpace=wrap;html=1;" parent="tdPHjlki5LSOHwfFaQ_Z-16" vertex="1">
          <mxGeometry y="156" width="330" height="26" as="geometry" />
        </mxCell>
        <mxCell id="tdPHjlki5LSOHwfFaQ_Z-30" value="&lt;span style=&quot;text-align: center;&quot;&gt;-offerManager&lt;/span&gt;&lt;span style=&quot;text-align: center;&quot;&gt;:OfferManager&lt;/span&gt;" style="text;strokeColor=none;fillColor=none;align=left;verticalAlign=top;spacingLeft=4;spacingRight=4;overflow=hidden;rotatable=0;points=[[0,0.5],[1,0.5]];portConstraint=eastwest;whiteSpace=wrap;html=1;" parent="tdPHjlki5LSOHwfFaQ_Z-16" vertex="1">
          <mxGeometry y="182" width="330" height="26" as="geometry" />
        </mxCell>
        <mxCell id="tdPHjlki5LSOHwfFaQ_Z-31" value="&lt;span style=&quot;text-align: center;&quot;&gt;-auctionManager&lt;/span&gt;&lt;span style=&quot;text-align: center;&quot;&gt;:AuctionManager&lt;/span&gt;" style="text;strokeColor=none;fillColor=none;align=left;verticalAlign=top;spacingLeft=4;spacingRight=4;overflow=hidden;rotatable=0;points=[[0,0.5],[1,0.5]];portConstraint=eastwest;whiteSpace=wrap;html=1;" parent="tdPHjlki5LSOHwfFaQ_Z-16" vertex="1">
          <mxGeometry y="208" width="330" height="26" as="geometry" />
        </mxCell>
        <mxCell id="tdPHjlki5LSOHwfFaQ_Z-32" value="&lt;span style=&quot;text-align: center;&quot;&gt;-b&lt;/span&gt;&lt;span style=&quot;text-align: center;&quot;&gt;idManager:&lt;/span&gt;&lt;span style=&quot;text-align: center;&quot;&gt;BidManager&lt;/span&gt;" style="text;strokeColor=none;fillColor=none;align=left;verticalAlign=top;spacingLeft=4;spacingRight=4;overflow=hidden;rotatable=0;points=[[0,0.5],[1,0.5]];portConstraint=eastwest;whiteSpace=wrap;html=1;" parent="tdPHjlki5LSOHwfFaQ_Z-16" vertex="1">
          <mxGeometry y="234" width="330" height="26" as="geometry" />
        </mxCell>
        <mxCell id="tdPHjlki5LSOHwfFaQ_Z-19" value="" style="line;strokeWidth=1;fillColor=none;align=left;verticalAlign=middle;spacingTop=-1;spacingLeft=3;spacingRight=3;rotatable=0;labelPosition=right;points=[];portConstraint=eastwest;strokeColor=inherit;" parent="tdPHjlki5LSOHwfFaQ_Z-16" vertex="1">
          <mxGeometry y="260" width="330" height="8" as="geometry" />
        </mxCell>
        <mxCell id="tdPHjlki5LSOHwfFaQ_Z-20" value="-DatabaseManager()" style="text;strokeColor=none;fillColor=none;align=left;verticalAlign=top;spacingLeft=4;spacingRight=4;overflow=hidden;rotatable=0;points=[[0,0.5],[1,0.5]];portConstraint=eastwest;whiteSpace=wrap;html=1;" parent="tdPHjlki5LSOHwfFaQ_Z-16" vertex="1">
          <mxGeometry y="268" width="330" height="26" as="geometry" />
        </mxCell>
        <mxCell id="tdPHjlki5LSOHwfFaQ_Z-21" value="+get_instance() :DatabaseManager" style="text;strokeColor=none;fillColor=none;align=left;verticalAlign=top;spacingLeft=4;spacingRight=4;overflow=hidden;rotatable=0;points=[[0,0.5],[1,0.5]];portConstraint=eastwest;whiteSpace=wrap;html=1;" parent="tdPHjlki5LSOHwfFaQ_Z-16" vertex="1">
          <mxGeometry y="294" width="330" height="26" as="geometry" />
        </mxCell>
        <mxCell id="tdPHjlki5LSOHwfFaQ_Z-22" value="+initialize()" style="text;strokeColor=none;fillColor=none;align=left;verticalAlign=top;spacingLeft=4;spacingRight=4;overflow=hidden;rotatable=0;points=[[0,0.5],[1,0.5]];portConstraint=eastwest;whiteSpace=wrap;html=1;" parent="tdPHjlki5LSOHwfFaQ_Z-16" vertex="1">
          <mxGeometry y="320" width="330" height="26" as="geometry" />
        </mxCell>
        <mxCell id="tdPHjlki5LSOHwfFaQ_Z-23" value="+close()" style="text;strokeColor=none;fillColor=none;align=left;verticalAlign=top;spacingLeft=4;spacingRight=4;overflow=hidden;rotatable=0;points=[[0,0.5],[1,0.5]];portConstraint=eastwest;whiteSpace=wrap;html=1;" parent="tdPHjlki5LSOHwfFaQ_Z-16" vertex="1">
          <mxGeometry y="346" width="330" height="26" as="geometry" />
        </mxCell>
        <mxCell id="tdPHjlki5LSOHwfFaQ_Z-35" value="" style="endArrow=open;endFill=1;endSize=12;html=1;rounded=0;entryX=0.67;entryY=1.132;entryDx=0;entryDy=0;entryPerimeter=0;exitX=0;exitY=0.5;exitDx=0;exitDy=0;" parent="WIyWlLk6GJQsqaUBKTNV-1" source="tdPHjlki5LSOHwfFaQ_Z-30" target="tdPHjlki5LSOHwfFaQ_Z-14" edge="1">
          <mxGeometry width="160" relative="1" as="geometry">
            <mxPoint x="460" y="-395" as="sourcePoint" />
            <mxPoint x="340" y="-400" as="targetPoint" />
          </mxGeometry>
        </mxCell>
        <mxCell id="tdPHjlki5LSOHwfFaQ_Z-36" value="manage" style="text;html=1;align=center;verticalAlign=middle;whiteSpace=wrap;rounded=0;" parent="WIyWlLk6GJQsqaUBKTNV-1" vertex="1">
          <mxGeometry x="370" y="-470" width="60" height="30" as="geometry" />
        </mxCell>
        <mxCell id="tdPHjlki5LSOHwfFaQ_Z-37" value="1" style="text;html=1;align=center;verticalAlign=middle;whiteSpace=wrap;rounded=0;" parent="WIyWlLk6GJQsqaUBKTNV-1" vertex="1">
          <mxGeometry x="430" y="-440" width="60" height="30" as="geometry" />
        </mxCell>
        <mxCell id="tdPHjlki5LSOHwfFaQ_Z-38" value="1" style="text;html=1;align=center;verticalAlign=middle;whiteSpace=wrap;rounded=0;" parent="WIyWlLk6GJQsqaUBKTNV-1" vertex="1">
          <mxGeometry x="320" y="-480" width="60" height="30" as="geometry" />
        </mxCell>
        <mxCell id="12GS11DmtLp40Zu0BdiK-0" value="&lt;font style=&quot;font-size: 17px;&quot;&gt;Stored&lt;/font&gt;" style="endArrow=open;endSize=12;dashed=1;html=1;rounded=0;exitX=0;exitY=0;exitDx=1019.9999999999999;exitDy=1190;exitPerimeter=0;" parent="WIyWlLk6GJQsqaUBKTNV-1" source="dm6teemk28US-Uhx1sEG-47" edge="1">
          <mxGeometry width="160" relative="1" as="geometry">
            <mxPoint x="-790" y="-1060" as="sourcePoint" />
            <mxPoint x="150" y="-750" as="targetPoint" />
          </mxGeometry>
        </mxCell>
        <mxCell id="12GS11DmtLp40Zu0BdiK-2" value="&lt;font style=&quot;font-size: 17px;&quot;&gt;Stored&lt;/font&gt;" style="endArrow=open;endSize=12;dashed=1;html=1;rounded=0;exitX=0.75;exitY=1;exitDx=0;exitDy=0;exitPerimeter=0;" parent="WIyWlLk6GJQsqaUBKTNV-1" source="dm6teemk28US-Uhx1sEG-0" edge="1">
          <mxGeometry width="160" relative="1" as="geometry">
            <mxPoint x="300" y="-900" as="sourcePoint" />
            <mxPoint x="420" y="-750" as="targetPoint" />
          </mxGeometry>
        </mxCell>
        <mxCell id="12GS11DmtLp40Zu0BdiK-3" value="&lt;font style=&quot;font-size: 17px;&quot;&gt;Stored&lt;/font&gt;" style="endArrow=open;endSize=12;dashed=1;html=1;rounded=0;exitX=0;exitY=0;exitDx=1019.9999999999999;exitDy=1190;exitPerimeter=0;entryX=0.725;entryY=0.008;entryDx=0;entryDy=0;entryPerimeter=0;" parent="WIyWlLk6GJQsqaUBKTNV-1" target="tdPHjlki5LSOHwfFaQ_Z-15" edge="1">
          <mxGeometry width="160" relative="1" as="geometry">
            <mxPoint x="780" y="-1680" as="sourcePoint" />
            <mxPoint x="640" y="-930" as="targetPoint" />
          </mxGeometry>
        </mxCell>
        <mxCell id="12GS11DmtLp40Zu0BdiK-4" value="&lt;font style=&quot;font-size: 17px;&quot;&gt;Stored&lt;/font&gt;" style="endArrow=open;endSize=12;dashed=1;html=1;rounded=0;" parent="WIyWlLk6GJQsqaUBKTNV-1" edge="1">
          <mxGeometry width="160" relative="1" as="geometry">
            <mxPoint x="-1030" y="-320" as="sourcePoint" />
            <mxPoint x="47" y="-310" as="targetPoint" />
          </mxGeometry>
        </mxCell>
        <mxCell id="12GS11DmtLp40Zu0BdiK-5" value="&lt;font style=&quot;font-size: 17px;&quot;&gt;Stored&lt;/font&gt;" style="endArrow=open;endSize=12;dashed=1;html=1;rounded=0;exitX=1;exitY=0.5;exitDx=0;exitDy=0;" parent="WIyWlLk6GJQsqaUBKTNV-1" source="q637Gu_soD_jAeFLe_u1-49" target="tdPHjlki5LSOHwfFaQ_Z-15" edge="1">
          <mxGeometry x="0.1419" y="-22" width="160" relative="1" as="geometry">
            <mxPoint x="-10" y="-430" as="sourcePoint" />
            <mxPoint x="990" y="-140" as="targetPoint" />
            <mxPoint as="offset" />
          </mxGeometry>
        </mxCell>
        <mxCell id="5HwQV0fHh8OEpiPy33nG-3" value="" style="endArrow=block;endSize=10;endFill=0;shadow=0;strokeWidth=1;rounded=0;curved=0;edgeStyle=elbowEdgeStyle;elbow=vertical;" edge="1" parent="WIyWlLk6GJQsqaUBKTNV-1">
          <mxGeometry width="160" relative="1" as="geometry">
            <mxPoint x="-1059" y="-2400" as="sourcePoint" />
            <mxPoint x="-1059" y="-2428" as="targetPoint" />
            <Array as="points" />
          </mxGeometry>
        </mxCell>
      </root>
    </mxGraphModel>
  </diagram>
</mxfile>
